M48
; DRILL file KiCad 10.0.2 date 2026-08-05T14:08:14
; FORMAT={3:3/ absolute / metric / keep zeros}
; #@! TF.CreationDate,2026-08-05T14:08:14-06:00
; #@! TF.GenerationSoftware,Kicad,Pcbnew,10.0.2
; #@! TF.FileFunction,Plated,1,2,PTH
FMAT,2
METRIC
; #@! TA.AperFunction,Plated,PTH,ComponentDrill
T1C0.200
; #@! TA.AperFunction,Plated,PTH,ComponentDrill
T2C0.600
; #@! TA.AperFunction,Plated,PTH,ComponentDrill
T3C0.700
; #@! TA.AperFunction,Plated,PTH,ComponentDrill
T4C1.000
; #@! TA.AperFunction,Plated,PTH,ComponentDrill
T5C1.100
%
G90
G05
T1
X153700Y-083625
X153700Y-084825
X153700Y-086025
X155100Y-083625
X155100Y-084825
X155100Y-086025
T3
X166500Y-085350
X167000Y-086850
X168500Y-085350
X169500Y-086850
X170500Y-085350
X171500Y-086850
X172500Y-085350
X174000Y-086850
X174500Y-085350
T4
X148000Y-059690
X148000Y-062230
X148000Y-064770
X148000Y-067310
T5
X163250Y-073750
X163250Y-078250
X169750Y-073750
X169750Y-078250
T2
G00X137250Y-080180
M15
G01X136650Y-080180
M16
G05
G00X137250Y-088820
M15
G01X136650Y-088820
M16
G05
G00X141680Y-080180
M15
G01X140580Y-080180
M16
G05
G00X141680Y-088820
M15
G01X140580Y-088820
M16
G05
G00X164100Y-085550
M15
G01X164100Y-086650
M16
G05
G00X164100Y-094200
M15
G01X164100Y-095000
M16
G05
G00X176900Y-085550
M15
G01X176900Y-086650
M16
G05
G00X176900Y-094200
M15
G01X176900Y-095000
M16
G05
M30
