%TF.GenerationSoftware,KiCad,Pcbnew,10.0.2*%
%TF.CreationDate,2026-08-05T14:10:50-06:00*%
%TF.ProjectId,powerblink,706f7765-7262-46c6-996e-6b2e6b696361,rev?*%
%TF.SameCoordinates,Original*%
%TF.FileFunction,Soldermask,Top*%
%TF.FilePolarity,Negative*%
%FSLAX46Y46*%
G04 Gerber Fmt 4.6, Leading zero omitted, Abs format (unit mm)*
G04 Created by KiCad (PCBNEW 10.0.2) date 2026-08-05 14:10:50*
%MOMM*%
%LPD*%
G01*
G04 APERTURE LIST*
G04 Aperture macros list*
%AMRoundRect*
0 Rectangle with rounded corners*
0 $1 Rounding radius*
0 $2 $3 $4 $5 $6 $7 $8 $9 X,Y pos of 4 corners*
0 Add a 4 corners polygon primitive as box body*
4,1,4,$2,$3,$4,$5,$6,$7,$8,$9,$2,$3,0*
0 Add four circle primitives for the rounded corners*
1,1,$1+$1,$2,$3*
1,1,$1+$1,$4,$5*
1,1,$1+$1,$6,$7*
1,1,$1+$1,$8,$9*
0 Add four rect primitives between the rounded corners*
20,1,$1+$1,$2,$3,$4,$5,0*
20,1,$1+$1,$4,$5,$6,$7,0*
20,1,$1+$1,$6,$7,$8,$9,0*
20,1,$1+$1,$8,$9,$2,$3,0*%
G04 Aperture macros list end*
%ADD10RoundRect,0.200000X0.200000X0.275000X-0.200000X0.275000X-0.200000X-0.275000X0.200000X-0.275000X0*%
%ADD11RoundRect,0.250000X-0.250000X-0.475000X0.250000X-0.475000X0.250000X0.475000X-0.250000X0.475000X0*%
%ADD12RoundRect,0.218750X-0.218750X-0.256250X0.218750X-0.256250X0.218750X0.256250X-0.218750X0.256250X0*%
%ADD13RoundRect,0.200000X-0.200000X-0.275000X0.200000X-0.275000X0.200000X0.275000X-0.200000X0.275000X0*%
%ADD14C,2.000000*%
%ADD15R,1.100000X0.600000*%
%ADD16R,0.425000X0.280000*%
%ADD17R,0.800000X1.200000*%
%ADD18RoundRect,0.150000X-0.825000X-0.150000X0.825000X-0.150000X0.825000X0.150000X-0.825000X0.150000X0*%
%ADD19RoundRect,0.250000X-1.000000X-0.650000X1.000000X-0.650000X1.000000X0.650000X-1.000000X0.650000X0*%
%ADD20RoundRect,0.250000X-0.350000X-0.350000X0.350000X-0.350000X0.350000X0.350000X-0.350000X0.350000X0*%
%ADD21C,1.200000*%
%ADD22O,1.200000X2.400000*%
%ADD23O,1.200000X2.100000*%
%ADD24R,1.072000X0.532000*%
%ADD25R,2.410000X3.300000*%
%ADD26C,0.650000*%
%ADD27RoundRect,0.150000X-0.575000X0.150000X-0.575000X-0.150000X0.575000X-0.150000X0.575000X0.150000X0*%
%ADD28RoundRect,0.075000X-0.650000X0.075000X-0.650000X-0.075000X0.650000X-0.075000X0.650000X0.075000X0*%
%ADD29O,2.100000X1.000000*%
%ADD30O,1.600000X1.000000*%
%ADD31RoundRect,0.170000X0.680000X-0.680000X0.680000X0.680000X-0.680000X0.680000X-0.680000X-0.680000X0*%
%ADD32C,1.700000*%
G04 APERTURE END LIST*
D10*
%TO.C,R10*%
X149000000Y-73000000D03*
X147350000Y-73000000D03*
%TD*%
D11*
%TO.C,C5*%
X152450000Y-72050000D03*
X150550000Y-72050000D03*
%TD*%
%TO.C,C3*%
X166050000Y-82000000D03*
X167950000Y-82000000D03*
%TD*%
D12*
%TO.C,D1*%
X151500000Y-79200000D03*
X153075000Y-79200000D03*
%TD*%
D11*
%TO.C,C1*%
X146600000Y-82200000D03*
X148500000Y-82200000D03*
%TD*%
D13*
%TO.C,R9*%
X142000000Y-72000000D03*
X143650000Y-72000000D03*
%TD*%
%TO.C,R4*%
X151887500Y-89045000D03*
X153537500Y-89045000D03*
%TD*%
D14*
%TO.C,SW1*%
X163250000Y-73750000D03*
X169750000Y-73750000D03*
X163250000Y-78250000D03*
X169750000Y-78250000D03*
%TD*%
D15*
%TO.C,U3*%
X142350000Y-77950000D03*
X142350000Y-77000000D03*
X142350000Y-76050000D03*
X139650000Y-76050000D03*
X139650000Y-77000000D03*
X139650000Y-77950000D03*
%TD*%
D11*
%TO.C,C2*%
X160025000Y-83500000D03*
X161925000Y-83500000D03*
%TD*%
D16*
%TO.C,U4*%
X158500000Y-72000000D03*
X158500000Y-71500000D03*
X158500000Y-71000000D03*
X158500000Y-70500000D03*
X156620000Y-70500000D03*
X156620000Y-71000000D03*
X156620000Y-71500000D03*
X156620000Y-72000000D03*
D17*
X157560000Y-71250000D03*
%TD*%
D18*
%TO.C,U5*%
X136500000Y-60880000D03*
X136500000Y-62150000D03*
X136500000Y-63420000D03*
X136500000Y-64690000D03*
X136500000Y-65960000D03*
X136500000Y-67230000D03*
X136500000Y-68500000D03*
X141450000Y-68500000D03*
X141450000Y-67230000D03*
X141450000Y-65960000D03*
X141450000Y-64690000D03*
X141450000Y-63420000D03*
X141450000Y-62150000D03*
X141450000Y-60880000D03*
%TD*%
D19*
%TO.C,D3*%
X177500000Y-78000000D03*
X181500000Y-78000000D03*
%TD*%
D12*
%TO.C,D2*%
X155250000Y-89025000D03*
X156825000Y-89025000D03*
%TD*%
D13*
%TO.C,R2*%
X146725000Y-85700000D03*
X148375000Y-85700000D03*
%TD*%
D11*
%TO.C,C4*%
X138100000Y-72095000D03*
X140000000Y-72095000D03*
%TD*%
D20*
%TO.C,J1*%
X167000000Y-86850000D03*
D21*
X169500000Y-86850000D03*
X171500000Y-86850000D03*
X174000000Y-86850000D03*
X174500000Y-85350000D03*
X172500000Y-85350000D03*
X170500000Y-85350000D03*
X168500000Y-85350000D03*
X166500000Y-85350000D03*
D22*
X164100000Y-86100000D03*
D23*
X164100000Y-94600000D03*
D22*
X176900000Y-86100000D03*
D23*
X176900000Y-94600000D03*
%TD*%
D13*
%TO.C,R1*%
X146725000Y-89200000D03*
X148375000Y-89200000D03*
%TD*%
D11*
%TO.C,C6*%
X174550000Y-74000000D03*
X176450000Y-74000000D03*
%TD*%
D13*
%TO.C,R3*%
X156390000Y-79200000D03*
X158040000Y-79200000D03*
%TD*%
D24*
%TO.C,U1*%
X179500000Y-72550000D03*
X179500000Y-73500000D03*
X179500000Y-74450000D03*
X181800000Y-74450000D03*
X181800000Y-73500000D03*
X181800000Y-72550000D03*
%TD*%
D13*
%TO.C,R8*%
X176525000Y-81500000D03*
X178175000Y-81500000D03*
%TD*%
D10*
%TO.C,R5*%
X137650000Y-77000000D03*
X136000000Y-77000000D03*
%TD*%
D13*
%TO.C,R7*%
X180500000Y-82000000D03*
X182150000Y-82000000D03*
%TD*%
D18*
%TO.C,U8*%
X151925000Y-82920000D03*
X151925000Y-84190000D03*
X151925000Y-85460000D03*
X151925000Y-86730000D03*
X156875000Y-86730000D03*
X156875000Y-85460000D03*
X156875000Y-84190000D03*
X156875000Y-82920000D03*
D25*
X154400000Y-84825000D03*
%TD*%
D10*
%TO.C,R6*%
X145325000Y-77000000D03*
X143675000Y-77000000D03*
%TD*%
D15*
%TO.C,Q1*%
X149850000Y-77950000D03*
X149850000Y-77000000D03*
X149850000Y-76050000D03*
X147150000Y-76050000D03*
X147150000Y-77000000D03*
X147150000Y-77950000D03*
%TD*%
D26*
%TO.C,J3*%
X140600000Y-81610000D03*
X140600000Y-87390000D03*
D27*
X142045000Y-81250000D03*
X142045000Y-82050000D03*
D28*
X142045000Y-83250000D03*
X142045000Y-84250000D03*
X142045000Y-84750000D03*
X142045000Y-85750000D03*
D27*
X142045000Y-86950000D03*
X142045000Y-87750000D03*
X142045000Y-87750000D03*
X142045000Y-86950000D03*
D28*
X142045000Y-86250000D03*
X142045000Y-85250000D03*
X142045000Y-83750000D03*
X142045000Y-82750000D03*
D27*
X142045000Y-82050000D03*
X142045000Y-81250000D03*
D29*
X141130000Y-80180000D03*
D30*
X136950000Y-80180000D03*
D29*
X141130000Y-88820000D03*
D30*
X136950000Y-88820000D03*
%TD*%
D31*
%TO.C,U6*%
X148000000Y-67310000D03*
D32*
X148000000Y-64770000D03*
X148000000Y-62230000D03*
X148000000Y-59690000D03*
%TD*%
M02*
