%TF.GenerationSoftware,KiCad,Pcbnew,10.0.2*%
%TF.CreationDate,2026-08-05T14:10:50-06:00*%
%TF.ProjectId,powerblink,706f7765-7262-46c6-996e-6b2e6b696361,rev?*%
%TF.SameCoordinates,Original*%
%TF.FileFunction,Copper,L1,Top*%
%TF.FilePolarity,Positive*%
%FSLAX46Y46*%
G04 Gerber Fmt 4.6, Leading zero omitted, Abs format (unit mm)*
G04 Created by KiCad (PCBNEW 10.0.2) date 2026-08-05 14:10:50*
%MOMM*%
%LPD*%
G01*
G04 APERTURE LIST*
G04 Aperture macros list*
%AMRoundRect*
0 Rectangle with rounded corners*
0 $1 Rounding radius*
0 $2 $3 $4 $5 $6 $7 $8 $9 X,Y pos of 4 corners*
0 Add a 4 corners polygon primitive as box body*
4,1,4,$2,$3,$4,$5,$6,$7,$8,$9,$2,$3,0*
0 Add four circle primitives for the rounded corners*
1,1,$1+$1,$2,$3*
1,1,$1+$1,$4,$5*
1,1,$1+$1,$6,$7*
1,1,$1+$1,$8,$9*
0 Add four rect primitives between the rounded corners*
20,1,$1+$1,$2,$3,$4,$5,0*
20,1,$1+$1,$4,$5,$6,$7,0*
20,1,$1+$1,$6,$7,$8,$9,0*
20,1,$1+$1,$8,$9,$2,$3,0*%
G04 Aperture macros list end*
%TA.AperFunction,SMDPad,CuDef*%
%ADD10RoundRect,0.200000X0.200000X0.275000X-0.200000X0.275000X-0.200000X-0.275000X0.200000X-0.275000X0*%
%TD*%
%TA.AperFunction,SMDPad,CuDef*%
%ADD11RoundRect,0.250000X-0.250000X-0.475000X0.250000X-0.475000X0.250000X0.475000X-0.250000X0.475000X0*%
%TD*%
%TA.AperFunction,SMDPad,CuDef*%
%ADD12RoundRect,0.218750X-0.218750X-0.256250X0.218750X-0.256250X0.218750X0.256250X-0.218750X0.256250X0*%
%TD*%
%TA.AperFunction,SMDPad,CuDef*%
%ADD13RoundRect,0.200000X-0.200000X-0.275000X0.200000X-0.275000X0.200000X0.275000X-0.200000X0.275000X0*%
%TD*%
%TA.AperFunction,ComponentPad*%
%ADD14C,2.000000*%
%TD*%
%TA.AperFunction,SMDPad,CuDef*%
%ADD15R,1.100000X0.600000*%
%TD*%
%TA.AperFunction,SMDPad,CuDef*%
%ADD16R,0.425000X0.280000*%
%TD*%
%TA.AperFunction,SMDPad,CuDef*%
%ADD17R,0.800000X1.200000*%
%TD*%
%TA.AperFunction,SMDPad,CuDef*%
%ADD18RoundRect,0.150000X-0.825000X-0.150000X0.825000X-0.150000X0.825000X0.150000X-0.825000X0.150000X0*%
%TD*%
%TA.AperFunction,SMDPad,CuDef*%
%ADD19RoundRect,0.250000X-1.000000X-0.650000X1.000000X-0.650000X1.000000X0.650000X-1.000000X0.650000X0*%
%TD*%
%TA.AperFunction,ComponentPad*%
%ADD20RoundRect,0.250000X-0.350000X-0.350000X0.350000X-0.350000X0.350000X0.350000X-0.350000X0.350000X0*%
%TD*%
%TA.AperFunction,ComponentPad*%
%ADD21C,1.200000*%
%TD*%
%TA.AperFunction,ComponentPad*%
%ADD22O,1.200000X2.400000*%
%TD*%
%TA.AperFunction,ComponentPad*%
%ADD23O,1.200000X2.100000*%
%TD*%
%TA.AperFunction,SMDPad,CuDef*%
%ADD24R,1.072000X0.532000*%
%TD*%
%TA.AperFunction,HeatsinkPad*%
%ADD25C,0.500000*%
%TD*%
%TA.AperFunction,HeatsinkPad*%
%ADD26R,2.410000X3.300000*%
%TD*%
%TA.AperFunction,SMDPad,CuDef*%
%ADD27RoundRect,0.150000X-0.575000X0.150000X-0.575000X-0.150000X0.575000X-0.150000X0.575000X0.150000X0*%
%TD*%
%TA.AperFunction,SMDPad,CuDef*%
%ADD28RoundRect,0.075000X-0.650000X0.075000X-0.650000X-0.075000X0.650000X-0.075000X0.650000X0.075000X0*%
%TD*%
%TA.AperFunction,ComponentPad*%
%ADD29O,2.100000X1.000000*%
%TD*%
%TA.AperFunction,ComponentPad*%
%ADD30O,1.600000X1.000000*%
%TD*%
%TA.AperFunction,ComponentPad*%
%ADD31RoundRect,0.170000X0.680000X-0.680000X0.680000X0.680000X-0.680000X0.680000X-0.680000X-0.680000X0*%
%TD*%
%TA.AperFunction,ComponentPad*%
%ADD32C,1.700000*%
%TD*%
%TA.AperFunction,Conductor*%
%ADD33C,0.200000*%
%TD*%
G04 APERTURE END LIST*
D10*
%TO.P,R10,1*%
%TO.N,BAT*%
X149000000Y-73000000D03*
%TO.P,R10,2*%
%TO.N,Net-(U4-SCL)*%
X147350000Y-73000000D03*
%TD*%
D11*
%TO.P,C5,2*%
%TO.N,GND*%
X152450000Y-72050000D03*
%TO.P,C5,1*%
%TO.N,BAT*%
X150550000Y-72050000D03*
%TD*%
%TO.P,C3,1*%
%TO.N,VOUT*%
X166050000Y-82000000D03*
%TO.P,C3,2*%
%TO.N,GND*%
X167950000Y-82000000D03*
%TD*%
D12*
%TO.P,D1,1,K_1*%
%TO.N,Net-(D1-K)*%
X151500000Y-79200000D03*
%TO.P,D1,2,A_2*%
%TO.N,CHRG*%
X153075000Y-79200000D03*
%TD*%
D11*
%TO.P,C1,1*%
%TO.N,VCC*%
X146600000Y-82200000D03*
%TO.P,C1,2*%
%TO.N,GND*%
X148500000Y-82200000D03*
%TD*%
D13*
%TO.P,R9,1*%
%TO.N,BAT*%
X142000000Y-72000000D03*
%TO.P,R9,2*%
%TO.N,Net-(U4-SDA)*%
X143650000Y-72000000D03*
%TD*%
%TO.P,R4,1*%
%TO.N,VCC*%
X151887500Y-89045000D03*
%TO.P,R4,2*%
%TO.N,Net-(D2-K)*%
X153537500Y-89045000D03*
%TD*%
D14*
%TO.P,SW1,1,1_1*%
%TO.N,GND*%
X163250000Y-73750000D03*
X169750000Y-73750000D03*
%TO.P,SW1,2,2_2*%
%TO.N,Net-(U5-PA3)*%
X163250000Y-78250000D03*
X169750000Y-78250000D03*
%TD*%
D15*
%TO.P,U3,1,OD_1*%
%TO.N,OD*%
X142350000Y-77950000D03*
%TO.P,U3,2,CS_2*%
%TO.N,CS*%
X142350000Y-77000000D03*
%TO.P,U3,3,OC_3*%
%TO.N,OC*%
X142350000Y-76050000D03*
%TO.P,U3,4,TD_4*%
%TO.N,unconnected-(U3-TD-Pad4)*%
X139650000Y-76050000D03*
%TO.P,U3,5,VCC_5*%
%TO.N,VCC*%
X139650000Y-77000000D03*
%TO.P,U3,6,GND_6*%
%TO.N,-BATT*%
X139650000Y-77950000D03*
%TD*%
D11*
%TO.P,C2,1*%
%TO.N,BAT*%
X160025000Y-83500000D03*
%TO.P,C2,2*%
%TO.N,GND*%
X161925000Y-83500000D03*
%TD*%
D16*
%TO.P,U4,1,CTG_1*%
%TO.N,GND*%
X158500000Y-72000000D03*
%TO.P,U4,2,CELL_2*%
%TO.N,unconnected-(U4-CELL-Pad2)*%
X158500000Y-71500000D03*
%TO.P,U4,3,VDD_3*%
%TO.N,BAT*%
X158500000Y-71000000D03*
%TO.P,U4,4,GND_4*%
%TO.N,GND*%
X158500000Y-70500000D03*
%TO.P,U4,5,~{ALRT}_5*%
%TO.N,Net-(U4-~{ALRT})*%
X156620000Y-70500000D03*
%TO.P,U4,6,QSTRT_6*%
%TO.N,GND*%
X156620000Y-71000000D03*
%TO.P,U4,7,SCL_7*%
%TO.N,Net-(U4-SCL)*%
X156620000Y-71500000D03*
%TO.P,U4,8,SDA_8*%
%TO.N,Net-(U4-SDA)*%
X156620000Y-72000000D03*
D17*
%TO.P,U4,9,EP_9*%
%TO.N,unconnected-(U4-EP-Pad9)*%
X157560000Y-71250000D03*
%TD*%
D18*
%TO.P,U5,1,VCC_1*%
%TO.N,BAT*%
X136500000Y-60880000D03*
%TO.P,U5,2,PA4_2*%
%TO.N,Net-(U4-~{ALRT})*%
X136500000Y-62150000D03*
%TO.P,U5,3,PA5_3*%
%TO.N,unconnected-(U5-PA5-Pad3)*%
X136500000Y-63420000D03*
%TO.P,U5,4,PA6_4*%
%TO.N,unconnected-(U5-PA6-Pad4)*%
X136500000Y-64690000D03*
%TO.P,U5,5,PA7_5*%
%TO.N,unconnected-(U5-PA7-Pad5)*%
X136500000Y-65960000D03*
%TO.P,U5,6,PB3_6*%
%TO.N,unconnected-(U5-PB3-Pad6)*%
X136500000Y-67230000D03*
%TO.P,U5,7,PB2_7*%
%TO.N,unconnected-(U5-PB2-Pad7)*%
X136500000Y-68500000D03*
%TO.P,U5,8,PB1_8*%
%TO.N,unconnected-(U5-PB1-Pad8)*%
X141450000Y-68500000D03*
%TO.P,U5,9,PB0_9*%
%TO.N,unconnected-(U5-PB0-Pad9)*%
X141450000Y-67230000D03*
%TO.P,U5,10,~{RESET}/PA0_10*%
%TO.N,unconnected-(U5-~{RESET}{slash}PA0-Pad10)*%
X141450000Y-65960000D03*
%TO.P,U5,11,PA1_11*%
%TO.N,Net-(U4-SDA)*%
X141450000Y-64690000D03*
%TO.P,U5,12,PA2_12*%
%TO.N,Net-(U4-SCL)*%
X141450000Y-63420000D03*
%TO.P,U5,13,PA3_13*%
%TO.N,Net-(U5-PA3)*%
X141450000Y-62150000D03*
%TO.P,U5,14,GND_14*%
%TO.N,GND*%
X141450000Y-60880000D03*
%TD*%
D19*
%TO.P,D3,1,K_1*%
%TO.N,Net-(D3-K)*%
X177500000Y-78000000D03*
%TO.P,D3,2,A_2*%
%TO.N,VOUT*%
X181500000Y-78000000D03*
%TD*%
D12*
%TO.P,D2,1,K_1*%
%TO.N,Net-(D2-K)*%
X155250000Y-89025000D03*
%TO.P,D2,2,A_2*%
%TO.N,STDBY*%
X156825000Y-89025000D03*
%TD*%
D13*
%TO.P,R2,1*%
%TO.N,cc1*%
X146725000Y-85700000D03*
%TO.P,R2,2*%
%TO.N,GND*%
X148375000Y-85700000D03*
%TD*%
D11*
%TO.P,C4,1*%
%TO.N,BAT*%
X138100000Y-72095000D03*
%TO.P,C4,2*%
%TO.N,GND*%
X140000000Y-72095000D03*
%TD*%
D20*
%TO.P,J1,1,VBUS_1*%
%TO.N,VOUT*%
X167000000Y-86850000D03*
D21*
%TO.P,J1,2,D-_2*%
%TO.N,Net-(J1-D+)*%
X169500000Y-86850000D03*
%TO.P,J1,3,D+_3*%
X171500000Y-86850000D03*
%TO.P,J1,4,GND_4*%
%TO.N,GND*%
X174000000Y-86850000D03*
%TO.P,J1,5*%
%TO.N,N/C*%
X174500000Y-85350000D03*
%TO.P,J1,6*%
X172500000Y-85350000D03*
%TO.P,J1,7*%
X170500000Y-85350000D03*
%TO.P,J1,8*%
X168500000Y-85350000D03*
%TO.P,J1,9*%
X166500000Y-85350000D03*
D22*
%TO.P,J1,SH,Shield_SH*%
%TO.N,unconnected-(J1-Shield-PadSH)*%
X164100000Y-86100000D03*
D23*
%TO.N,unconnected-(J1-Shield-PadSH)_1*%
X164100000Y-94600000D03*
D22*
%TO.N,unconnected-(J1-Shield-PadSH)_2*%
X176900000Y-86100000D03*
D23*
%TO.N,unconnected-(J1-Shield-PadSH)_3*%
X176900000Y-94600000D03*
%TD*%
D13*
%TO.P,R1,1*%
%TO.N,cc2*%
X146725000Y-89200000D03*
%TO.P,R1,2*%
%TO.N,GND*%
X148375000Y-89200000D03*
%TD*%
D11*
%TO.P,C6,1*%
%TO.N,Net-(D3-K)*%
X174550000Y-74000000D03*
%TO.P,C6,2*%
%TO.N,GND*%
X176450000Y-74000000D03*
%TD*%
D13*
%TO.P,R3,1*%
%TO.N,VCC*%
X156390000Y-79200000D03*
%TO.P,R3,2*%
%TO.N,Net-(D1-K)*%
X158040000Y-79200000D03*
%TD*%
D24*
%TO.P,U1,1,SW_1*%
%TO.N,VOUT*%
X179500000Y-72550000D03*
%TO.P,U1,2,GND_2*%
%TO.N,GND*%
X179500000Y-73500000D03*
%TO.P,U1,3,FB_3*%
%TO.N,Net-(U1-FB)*%
X179500000Y-74450000D03*
%TO.P,U1,4,EN_4*%
%TO.N,BAT*%
X181800000Y-74450000D03*
%TO.P,U1,5,IN_5*%
%TO.N,unconnected-(U1-IN-Pad5)*%
X181800000Y-73500000D03*
%TO.P,U1,6,NC_6*%
%TO.N,unconnected-(U1-NC-Pad6)*%
X181800000Y-72550000D03*
%TD*%
D13*
%TO.P,R8,1*%
%TO.N,VOUT*%
X176525000Y-81500000D03*
%TO.P,R8,2*%
%TO.N,Net-(U1-FB)*%
X178175000Y-81500000D03*
%TD*%
D10*
%TO.P,R5,1*%
%TO.N,VCC*%
X137650000Y-77000000D03*
%TO.P,R5,2*%
%TO.N,BAT*%
X136000000Y-77000000D03*
%TD*%
D13*
%TO.P,R7,1*%
%TO.N,GND*%
X180500000Y-82000000D03*
%TO.P,R7,2*%
%TO.N,Net-(U1-FB)*%
X182150000Y-82000000D03*
%TD*%
D18*
%TO.P,U8,1,TEMP_1*%
%TO.N,GND*%
X151925000Y-82920000D03*
%TO.P,U8,2,PROG_2*%
%TO.N,2.4k*%
X151925000Y-84190000D03*
%TO.P,U8,3,GND_3*%
%TO.N,GND*%
X151925000Y-85460000D03*
%TO.P,U8,4,V_{CC}_4*%
%TO.N,VCC*%
X151925000Y-86730000D03*
%TO.P,U8,5,BAT_5*%
%TO.N,BAT*%
X156875000Y-86730000D03*
%TO.P,U8,6,~{STDBY}_6*%
%TO.N,STDBY*%
X156875000Y-85460000D03*
%TO.P,U8,7,~{CHRG}_7*%
%TO.N,CHRG*%
X156875000Y-84190000D03*
%TO.P,U8,8,CE_8*%
%TO.N,VCC*%
X156875000Y-82920000D03*
D25*
%TO.P,U8,9,EPAD_9*%
%TO.N,unconnected-(U8-EPAD-Pad9)*%
X153700000Y-83625000D03*
%TO.N,unconnected-(U8-EPAD-Pad9)_5*%
X153700000Y-84825000D03*
%TO.N,unconnected-(U8-EPAD-Pad9)_2*%
X153700000Y-86025000D03*
D26*
%TO.N,unconnected-(U8-EPAD-Pad9)_7*%
X154400000Y-84825000D03*
D25*
%TO.N,unconnected-(U8-EPAD-Pad9)_3*%
X155100000Y-83625000D03*
%TO.N,unconnected-(U8-EPAD-Pad9)_1*%
X155100000Y-84825000D03*
%TO.N,unconnected-(U8-EPAD-Pad9)_4*%
X155100000Y-86025000D03*
%TD*%
D10*
%TO.P,R6,1*%
%TO.N,Net-(Q1-D1{slash}D2-Pad5)*%
X145325000Y-77000000D03*
%TO.P,R6,2*%
%TO.N,CS*%
X143675000Y-77000000D03*
%TD*%
D15*
%TO.P,Q1,1,S1_1*%
%TO.N,unconnected-(Q1-S1-Pad1)*%
X149850000Y-77950000D03*
%TO.P,Q1,2,D1/D2_2*%
%TO.N,unconnected-(Q1-D1{slash}D2-Pad2)*%
X149850000Y-77000000D03*
%TO.P,Q1,3,S2_3*%
%TO.N,GND*%
X149850000Y-76050000D03*
%TO.P,Q1,4,G2_4*%
%TO.N,OC*%
X147150000Y-76050000D03*
%TO.P,Q1,5,D1/D2_5*%
%TO.N,Net-(Q1-D1{slash}D2-Pad5)*%
X147150000Y-77000000D03*
%TO.P,Q1,6,G1_6*%
%TO.N,OD*%
X147150000Y-77950000D03*
%TD*%
D27*
%TO.P,J3,A1,GND_A1*%
%TO.N,GND*%
X142045000Y-81250000D03*
%TO.P,J3,A4,VBUS_A4*%
%TO.N,VCC*%
X142045000Y-82050000D03*
D28*
%TO.P,J3,A5,CC1_A5*%
%TO.N,cc1*%
X142045000Y-83250000D03*
%TO.P,J3,A6,D+_A6*%
%TO.N,unconnected-(J3-D+-PadA6)*%
X142045000Y-84250000D03*
%TO.P,J3,A7,D-_A7*%
%TO.N,unconnected-(J3-D--PadA7)*%
X142045000Y-84750000D03*
%TO.P,J3,A8*%
%TO.N,N/C*%
X142045000Y-85750000D03*
D27*
%TO.P,J3,A9,VBUS_A9*%
%TO.N,VCC*%
X142045000Y-86950000D03*
%TO.P,J3,A12,GND_A12*%
%TO.N,GND*%
X142045000Y-87750000D03*
%TO.P,J3,B1,GND_B1*%
X142045000Y-87750000D03*
%TO.P,J3,B4,VBUS_B4*%
%TO.N,VCC*%
X142045000Y-86950000D03*
D28*
%TO.P,J3,B5,CC2_B5*%
%TO.N,cc2*%
X142045000Y-86250000D03*
%TO.P,J3,B6,D+_B6*%
%TO.N,unconnected-(J3-D+-PadB6)*%
X142045000Y-85250000D03*
%TO.P,J3,B7,D-_B7*%
%TO.N,unconnected-(J3-D--PadB7)*%
X142045000Y-83750000D03*
%TO.P,J3,B8*%
%TO.N,N/C*%
X142045000Y-82750000D03*
D27*
%TO.P,J3,B9,VBUS_B9*%
%TO.N,VCC*%
X142045000Y-82050000D03*
%TO.P,J3,B12,GND_B12*%
%TO.N,GND*%
X142045000Y-81250000D03*
D29*
%TO.P,J3,SH,SHIELD_SH*%
%TO.N,unconnected-(J3-SHIELD-PadSH)_3*%
X141130000Y-80180000D03*
D30*
%TO.N,unconnected-(J3-SHIELD-PadSH)*%
X136950000Y-80180000D03*
D29*
%TO.N,unconnected-(J3-SHIELD-PadSH)_1*%
X141130000Y-88820000D03*
D30*
%TO.N,unconnected-(J3-SHIELD-PadSH)_2*%
X136950000Y-88820000D03*
%TD*%
D31*
%TO.P,U6,1,GND_1*%
%TO.N,GND*%
X148000000Y-67310000D03*
D32*
%TO.P,U6,2,VCC_2*%
%TO.N,BAT*%
X148000000Y-64770000D03*
%TO.P,U6,3,SCL_3*%
%TO.N,Net-(U4-SCL)*%
X148000000Y-62230000D03*
%TO.P,U6,4,SDA_4*%
%TO.N,Net-(U4-SDA)*%
X148000000Y-59690000D03*
%TD*%
%TO.N,BAT*%
D33*
X156087500Y-87517500D02*
X156875000Y-86730000D01*
X156087500Y-89502186D02*
X156087500Y-87517500D01*
X156385314Y-89800000D02*
X156087500Y-89502186D01*
X158700000Y-89800000D02*
X156385314Y-89800000D01*
X163200000Y-85300000D02*
X158700000Y-89800000D01*
X163200000Y-85127208D02*
X163200000Y-85300000D01*
X163900000Y-84600000D02*
X163727208Y-84600000D01*
X164000000Y-84500000D02*
X163900000Y-84600000D01*
X164000000Y-81515256D02*
X164000000Y-84500000D01*
X170288478Y-79550000D02*
X165965256Y-79550000D01*
X171050000Y-78788478D02*
X170288478Y-79550000D01*
X163727208Y-84600000D02*
X163200000Y-85127208D01*
X178412000Y-70060000D02*
X173321522Y-70060000D01*
X180950430Y-72598430D02*
X178412000Y-70060000D01*
X171050000Y-72331522D02*
X171050000Y-78788478D01*
X181800000Y-74450000D02*
X180950430Y-74450000D01*
X180950430Y-74450000D02*
X180950430Y-72598430D01*
X173321522Y-70060000D02*
X171050000Y-72331522D01*
X165965256Y-79550000D02*
X164000000Y-81515256D01*
%TO.N,STDBY*%
X160500000Y-85350000D02*
X156825000Y-89025000D01*
X160500000Y-84525000D02*
X160500000Y-85350000D01*
X160825000Y-84209744D02*
X160509744Y-84525000D01*
X160509744Y-84525000D02*
X160500000Y-84525000D01*
X160509744Y-82475000D02*
X160825000Y-82790256D01*
X160825000Y-82790256D02*
X160825000Y-84209744D01*
X159540256Y-82475000D02*
X160509744Y-82475000D01*
X159225000Y-82790256D02*
X159540256Y-82475000D01*
X159225000Y-84209744D02*
X159225000Y-82790256D01*
X157974744Y-85460000D02*
X159225000Y-84209744D01*
X156875000Y-85460000D02*
X157974744Y-85460000D01*
%TO.N,VCC*%
X138050000Y-77400000D02*
X138050000Y-81420001D01*
X138050000Y-81420001D02*
X140000000Y-83370001D01*
X137650000Y-77000000D02*
X138050000Y-77400000D01*
X140000000Y-83370001D02*
X141320001Y-82050000D01*
X140000000Y-86000000D02*
X140000000Y-83370001D01*
X141320001Y-82050000D02*
X142045000Y-82050000D01*
X140370001Y-86000000D02*
X140000000Y-86000000D01*
X141320001Y-86950000D02*
X140370001Y-86000000D01*
X142045000Y-86950000D02*
X141320001Y-86950000D01*
X151887500Y-86767500D02*
X151925000Y-86730000D01*
X151887500Y-89045000D02*
X151887500Y-86767500D01*
%TO.N,GND*%
X142345000Y-80950000D02*
X142045000Y-81250000D01*
X147250000Y-80950000D02*
X142345000Y-80950000D01*
X148500000Y-82200000D02*
X147250000Y-80950000D01*
%TO.N,VCC*%
X145800000Y-83000000D02*
X144000000Y-83000000D01*
X146600000Y-82200000D02*
X145800000Y-83000000D01*
X142195000Y-82200000D02*
X142045000Y-82050000D01*
X143200000Y-82200000D02*
X142195000Y-82200000D01*
X144000000Y-83000000D02*
X143200000Y-82200000D01*
X150500000Y-81000000D02*
X151000000Y-81000000D01*
X149500000Y-80000000D02*
X150500000Y-81000000D01*
X149500000Y-79750000D02*
X149500000Y-80000000D01*
X151000000Y-78250000D02*
X149500000Y-79750000D01*
X151500000Y-77500000D02*
X151000000Y-78000000D01*
X159000000Y-77500000D02*
X151500000Y-77500000D01*
X160500000Y-79000000D02*
X159000000Y-77500000D01*
X151000000Y-78000000D02*
X151000000Y-78250000D01*
X158500000Y-81000000D02*
X160500000Y-79000000D01*
X158190000Y-81000000D02*
X158500000Y-81000000D01*
X156390000Y-79200000D02*
X158190000Y-81000000D01*
X154955000Y-81000000D02*
X156875000Y-82920000D01*
X150000000Y-82000000D02*
X151000000Y-81000000D01*
X149000000Y-84500000D02*
X150000000Y-83500000D01*
X149000000Y-84500000D02*
X151230000Y-86730000D01*
X150000000Y-83500000D02*
X150000000Y-82000000D01*
X151000000Y-81000000D02*
X154955000Y-81000000D01*
%TO.N,VOUT*%
X171000000Y-80500000D02*
X171950000Y-79550000D01*
X167550000Y-80500000D02*
X171000000Y-80500000D01*
X166050000Y-82000000D02*
X167550000Y-80500000D01*
X178000000Y-74500000D02*
X181500000Y-78000000D01*
X179500000Y-72550000D02*
X178450000Y-72550000D01*
X178450000Y-72550000D02*
X178000000Y-73000000D01*
X178000000Y-73000000D02*
X178000000Y-74500000D01*
%TO.N,Net-(D3-K)*%
X176350000Y-75800000D02*
X177500000Y-75800000D01*
X174550000Y-74000000D02*
X176350000Y-75800000D01*
%TO.N,Net-(U5-PA3)*%
X159325000Y-74325000D02*
X163250000Y-78250000D01*
X159325000Y-74175000D02*
X159325000Y-74325000D01*
X144637352Y-74175000D02*
X159325000Y-74175000D01*
X142950000Y-72487648D02*
X144637352Y-74175000D01*
X142950000Y-65780687D02*
X142950000Y-72487648D01*
X142459313Y-65290000D02*
X142950000Y-65780687D01*
X140434448Y-65290000D02*
X142459313Y-65290000D01*
X138500000Y-63355552D02*
X140434448Y-65290000D01*
X138500000Y-60500000D02*
X138500000Y-63355552D01*
X149150000Y-59213654D02*
X148476346Y-58540000D01*
X149150000Y-65246346D02*
X149150000Y-59213654D01*
X140460000Y-58540000D02*
X138500000Y-60500000D01*
X148476346Y-65920000D02*
X149150000Y-65246346D01*
X143753654Y-62150000D02*
X147523654Y-65920000D01*
X148476346Y-58540000D02*
X140460000Y-58540000D01*
X141450000Y-62150000D02*
X143753654Y-62150000D01*
X147523654Y-65920000D02*
X148476346Y-65920000D01*
%TO.N,Net-(U4-SDA)*%
X156000000Y-72620000D02*
X156620000Y-72000000D01*
X156000000Y-73000000D02*
X156000000Y-72620000D01*
X155225000Y-73775000D02*
X156000000Y-73000000D01*
X145425000Y-73775000D02*
X155225000Y-73775000D01*
X143650000Y-72000000D02*
X145425000Y-73775000D01*
%TO.N,Net-(U4-SCL)*%
X147350000Y-72425000D02*
X147775000Y-72000000D01*
X147350000Y-73000000D02*
X147350000Y-72425000D01*
X156100000Y-71500000D02*
X156620000Y-71500000D01*
X154525000Y-73075000D02*
X156100000Y-71500000D01*
X151650000Y-72759744D02*
X151965256Y-73075000D01*
X151650000Y-71340256D02*
X151650000Y-72759744D01*
X147775000Y-72000000D02*
X148775000Y-71000000D01*
X148775000Y-71000000D02*
X151309744Y-71000000D01*
X151309744Y-71000000D02*
X151650000Y-71340256D01*
X151965256Y-73075000D02*
X154525000Y-73075000D01*
%TO.N,BAT*%
X149600000Y-73000000D02*
X150550000Y-72050000D01*
X149000000Y-73000000D02*
X149600000Y-73000000D01*
%TO.N,Net-(U4-SDA)*%
X142424999Y-64690000D02*
X141450000Y-64690000D01*
X143650000Y-65915001D02*
X142424999Y-64690000D01*
X143650000Y-72000000D02*
X143650000Y-65915001D01*
%TO.N,BAT*%
X139500000Y-74500000D02*
X138100000Y-74500000D01*
X142000000Y-72000000D02*
X139500000Y-74500000D01*
X138100000Y-72095000D02*
X138100000Y-74500000D01*
X138100000Y-74900000D02*
X136000000Y-77000000D01*
X138100000Y-74500000D02*
X138100000Y-74900000D01*
%TO.N,GND*%
X161000000Y-71500000D02*
X160500000Y-72000000D01*
X160500000Y-72000000D02*
X158500000Y-72000000D01*
X161000000Y-71500000D02*
X163250000Y-73750000D01*
X160000000Y-70500000D02*
X161000000Y-71500000D01*
X158500000Y-70500000D02*
X160000000Y-70500000D01*
%TO.N,Net-(U4-SCL)*%
X147770000Y-62000000D02*
X148000000Y-62230000D01*
X144169340Y-62000000D02*
X147770000Y-62000000D01*
X143919340Y-61750000D02*
X144169340Y-62000000D01*
X142665552Y-61750000D02*
X143919340Y-61750000D01*
X140434448Y-61550000D02*
X142465552Y-61550000D01*
X140175000Y-61825000D02*
X140175000Y-61809448D01*
X140175000Y-61809448D02*
X140434448Y-61550000D01*
X139842224Y-62157776D02*
X140175000Y-61825000D01*
X140434448Y-62750000D02*
X139842224Y-62157776D01*
X140780000Y-62750000D02*
X140434448Y-62750000D01*
X142465552Y-61550000D02*
X142665552Y-61750000D01*
%TO.N,Net-(U4-SDA)*%
X139000000Y-60565686D02*
X139875686Y-59690000D01*
X139000000Y-63214999D02*
X139000000Y-60565686D01*
X140475001Y-64690000D02*
X139000000Y-63214999D01*
X139875686Y-59690000D02*
X148000000Y-59690000D01*
X141450000Y-64690000D02*
X140475001Y-64690000D01*
%TO.N,VCC*%
X151230000Y-86730000D02*
X151925000Y-86730000D01*
X146700000Y-82200000D02*
X149000000Y-84500000D01*
X146600000Y-82200000D02*
X146700000Y-82200000D01*
%TO.N,Net-(U1-FB)*%
X179175000Y-80500000D02*
X178175000Y-81500000D01*
X181000000Y-80500000D02*
X179175000Y-80500000D01*
X181375000Y-80875000D02*
X181000000Y-80500000D01*
X181375000Y-81225000D02*
X181375000Y-80875000D01*
X183500000Y-81000000D02*
X183050000Y-80550000D01*
X183050000Y-77115256D02*
X180384744Y-74450000D01*
X182500000Y-82000000D02*
X183500000Y-81000000D01*
X183050000Y-80550000D02*
X183050000Y-77115256D01*
X182150000Y-82000000D02*
X182500000Y-82000000D01*
X180384744Y-74450000D02*
X179500000Y-74450000D01*
%TO.N,VOUT*%
X171950000Y-73550000D02*
X171950000Y-75240256D01*
X174000000Y-71500000D02*
X171950000Y-73550000D01*
X179500000Y-72500000D02*
X178500000Y-71500000D01*
X179500000Y-72550000D02*
X179500000Y-72500000D01*
X178500000Y-71500000D02*
X174000000Y-71500000D01*
%TO.N,Net-(U4-~{ALRT})*%
X150500000Y-60000000D02*
X149500000Y-59000000D01*
X150500000Y-67000000D02*
X150500000Y-60000000D01*
X153000000Y-69500000D02*
X150500000Y-67000000D01*
X155620000Y-69500000D02*
X153000000Y-69500000D01*
%TO.N,VOUT*%
X173900000Y-81500000D02*
X171950000Y-79550000D01*
X176525000Y-81500000D02*
X173900000Y-81500000D01*
X179425000Y-72475000D02*
X179500000Y-72550000D01*
X167600000Y-83550000D02*
X166050000Y-82000000D01*
X167000000Y-86850000D02*
X167600000Y-86250000D01*
X167600000Y-86250000D02*
X167600000Y-83550000D01*
%TO.N,Net-(U4-SCL)*%
X141450000Y-63420000D02*
X140780000Y-62750000D01*
%TO.N,Net-(D1-K)*%
X152275000Y-78425000D02*
X157265000Y-78425000D01*
X151500000Y-79200000D02*
X152275000Y-78425000D01*
X157265000Y-78425000D02*
X158040000Y-79200000D01*
%TO.N,VCC*%
X139650000Y-77000000D02*
X137650000Y-77000000D01*
%TO.N,Net-(D2-K)*%
X155230000Y-89045000D02*
X155250000Y-89025000D01*
X153537500Y-89045000D02*
X155230000Y-89045000D01*
%TO.N,Net-(U5-PA3)*%
X169750000Y-78250000D02*
X163250000Y-78250000D01*
%TO.N,Net-(D3-K)*%
X177500000Y-78000000D02*
X177500000Y-75800000D01*
%TO.N,Net-(J1-D+)*%
X171500000Y-86850000D02*
X169500000Y-86850000D01*
%TO.N,Net-(U1-FB)*%
X182150000Y-82000000D02*
X181375000Y-81225000D01*
%TO.N,Net-(Q1-D1{slash}D2-Pad5)*%
X145325000Y-77000000D02*
X147150000Y-77000000D01*
%TO.N,BAT*%
X138100000Y-62134448D02*
X136845552Y-60880000D01*
X138100000Y-72095000D02*
X138100000Y-62134448D01*
X160025000Y-84554999D02*
X160025000Y-83500000D01*
X136845552Y-60880000D02*
X136500000Y-60880000D01*
X157849999Y-86730000D02*
X160025000Y-84554999D01*
X156875000Y-86730000D02*
X157849999Y-86730000D01*
%TO.N,CHRG*%
X158150000Y-83889999D02*
X157849999Y-84190000D01*
X157849999Y-84190000D02*
X156875000Y-84190000D01*
X153075000Y-79200000D02*
X154770552Y-79200000D01*
X154770552Y-79200000D02*
X158150000Y-82579448D01*
X158150000Y-82579448D02*
X158150000Y-83889999D01*
%TO.N,cc1*%
X143250000Y-83250000D02*
X145700000Y-85700000D01*
X142045000Y-83250000D02*
X143250000Y-83250000D01*
X145700000Y-85700000D02*
X146725000Y-85700000D01*
%TO.N,cc2*%
X142045000Y-86250000D02*
X143775000Y-86250000D01*
X143775000Y-86250000D02*
X146725000Y-89200000D01*
%TO.N,OC*%
X147150000Y-76050000D02*
X142350000Y-76050000D01*
%TO.N,OD*%
X147150000Y-77950000D02*
X142350000Y-77950000D01*
%TO.N,CS*%
X142350000Y-77000000D02*
X143675000Y-77000000D01*
%TO.N,Net-(U4-~{ALRT})*%
X135225000Y-60539448D02*
X135225000Y-61225000D01*
X137764448Y-58000000D02*
X135225000Y-60539448D01*
X156620000Y-70500000D02*
X155620000Y-69500000D01*
X149500000Y-59000000D02*
X149500000Y-58500000D01*
X149500000Y-58500000D02*
X149000000Y-58000000D01*
X149000000Y-58000000D02*
X137764448Y-58000000D01*
X135225000Y-61225000D02*
X136150000Y-62150000D01*
X136150000Y-62150000D02*
X136500000Y-62150000D01*
%TO.N,VOUT*%
X171950000Y-79550000D02*
X171950000Y-75240256D01*
%TO.N,Net-(U4-SCL)*%
X142459313Y-62750000D02*
X140780000Y-62750000D01*
X145600000Y-65890687D02*
X142459313Y-62750000D01*
X145600000Y-70665685D02*
X145600000Y-65890687D01*
X145834315Y-70900000D02*
X145600000Y-70665685D01*
X146675000Y-70900000D02*
X145834315Y-70900000D01*
X147775000Y-72000000D02*
X146675000Y-70900000D01*
%TO.N,GND*%
X156620000Y-71000000D02*
X153500000Y-71000000D01*
X153500000Y-71000000D02*
X152450000Y-72050000D01*
%TD*%
%TA.AperFunction,Conductor*%
%TO.N,GND*%
G36*
X185442539Y-55520185D02*
G01*
X185488294Y-55572989D01*
X185499500Y-55624500D01*
X185499500Y-98375500D01*
X185479815Y-98442539D01*
X185427011Y-98488294D01*
X185375500Y-98499500D01*
X134624500Y-98499500D01*
X134557461Y-98479815D01*
X134511706Y-98427011D01*
X134500500Y-98375500D01*
X134500500Y-94063389D01*
X162999500Y-94063389D01*
X162999500Y-95136611D01*
X163026598Y-95307701D01*
X163080127Y-95472445D01*
X163158768Y-95626788D01*
X163260586Y-95766928D01*
X163383072Y-95889414D01*
X163523212Y-95991232D01*
X163677555Y-96069873D01*
X163842299Y-96123402D01*
X164013389Y-96150500D01*
X164013390Y-96150500D01*
X164186610Y-96150500D01*
X164186611Y-96150500D01*
X164357701Y-96123402D01*
X164522445Y-96069873D01*
X164676788Y-95991232D01*
X164816928Y-95889414D01*
X164939414Y-95766928D01*
X165041232Y-95626788D01*
X165119873Y-95472445D01*
X165173402Y-95307701D01*
X165200500Y-95136611D01*
X165200500Y-94063389D01*
X175799500Y-94063389D01*
X175799500Y-95136611D01*
X175826598Y-95307701D01*
X175880127Y-95472445D01*
X175958768Y-95626788D01*
X176060586Y-95766928D01*
X176183072Y-95889414D01*
X176323212Y-95991232D01*
X176477555Y-96069873D01*
X176642299Y-96123402D01*
X176813389Y-96150500D01*
X176813390Y-96150500D01*
X176986610Y-96150500D01*
X176986611Y-96150500D01*
X177157701Y-96123402D01*
X177322445Y-96069873D01*
X177476788Y-95991232D01*
X177616928Y-95889414D01*
X177739414Y-95766928D01*
X177841232Y-95626788D01*
X177919873Y-95472445D01*
X177973402Y-95307701D01*
X178000500Y-95136611D01*
X178000500Y-94063389D01*
X177973402Y-93892299D01*
X177919873Y-93727555D01*
X177841232Y-93573212D01*
X177739414Y-93433072D01*
X177616928Y-93310586D01*
X177476788Y-93208768D01*
X177322445Y-93130127D01*
X177157701Y-93076598D01*
X177157699Y-93076597D01*
X177157698Y-93076597D01*
X177026271Y-93055781D01*
X176986611Y-93049500D01*
X176813389Y-93049500D01*
X176773728Y-93055781D01*
X176642302Y-93076597D01*
X176477552Y-93130128D01*
X176323211Y-93208768D01*
X176243256Y-93266859D01*
X176183072Y-93310586D01*
X176183070Y-93310588D01*
X176183069Y-93310588D01*
X176060588Y-93433069D01*
X176060588Y-93433070D01*
X176060586Y-93433072D01*
X176016859Y-93493256D01*
X175958768Y-93573211D01*
X175880128Y-93727552D01*
X175826597Y-93892302D01*
X175799500Y-94063389D01*
X165200500Y-94063389D01*
X165173402Y-93892299D01*
X165119873Y-93727555D01*
X165041232Y-93573212D01*
X164939414Y-93433072D01*
X164816928Y-93310586D01*
X164676788Y-93208768D01*
X164522445Y-93130127D01*
X164357701Y-93076598D01*
X164357699Y-93076597D01*
X164357698Y-93076597D01*
X164226271Y-93055781D01*
X164186611Y-93049500D01*
X164013389Y-93049500D01*
X163973728Y-93055781D01*
X163842302Y-93076597D01*
X163677552Y-93130128D01*
X163523211Y-93208768D01*
X163443256Y-93266859D01*
X163383072Y-93310586D01*
X163383070Y-93310588D01*
X163383069Y-93310588D01*
X163260588Y-93433069D01*
X163260588Y-93433070D01*
X163260586Y-93433072D01*
X163216859Y-93493256D01*
X163158768Y-93573211D01*
X163080128Y-93727552D01*
X163026597Y-93892302D01*
X162999500Y-94063389D01*
X134500500Y-94063389D01*
X134500500Y-88918543D01*
X135649499Y-88918543D01*
X135687947Y-89111829D01*
X135687950Y-89111839D01*
X135763364Y-89293907D01*
X135763371Y-89293920D01*
X135872860Y-89457781D01*
X135872863Y-89457785D01*
X136012214Y-89597136D01*
X136012218Y-89597139D01*
X136176079Y-89706628D01*
X136176092Y-89706635D01*
X136337132Y-89773339D01*
X136358165Y-89782051D01*
X136358169Y-89782051D01*
X136358170Y-89782052D01*
X136551456Y-89820500D01*
X136551459Y-89820500D01*
X137348543Y-89820500D01*
X137478582Y-89794632D01*
X137541835Y-89782051D01*
X137723914Y-89706632D01*
X137887782Y-89597139D01*
X138027139Y-89457782D01*
X138136632Y-89293914D01*
X138212051Y-89111835D01*
X138236764Y-88987596D01*
X138250500Y-88918543D01*
X138250500Y-88721456D01*
X138212052Y-88528170D01*
X138212051Y-88528169D01*
X138212051Y-88528165D01*
X138196166Y-88489815D01*
X138136635Y-88346092D01*
X138136628Y-88346079D01*
X138027139Y-88182218D01*
X138027136Y-88182214D01*
X137887785Y-88042863D01*
X137887781Y-88042860D01*
X137723920Y-87933371D01*
X137723907Y-87933364D01*
X137541839Y-87857950D01*
X137541829Y-87857947D01*
X137348543Y-87819500D01*
X137348541Y-87819500D01*
X136551459Y-87819500D01*
X136551457Y-87819500D01*
X136358170Y-87857947D01*
X136358160Y-87857950D01*
X136176092Y-87933364D01*
X136176079Y-87933371D01*
X136012218Y-88042860D01*
X136012214Y-88042863D01*
X135872863Y-88182214D01*
X135872860Y-88182218D01*
X135763371Y-88346079D01*
X135763364Y-88346092D01*
X135687950Y-88528160D01*
X135687947Y-88528170D01*
X135649500Y-88721456D01*
X135649500Y-88721459D01*
X135649500Y-88918541D01*
X135649500Y-88918543D01*
X135649499Y-88918543D01*
X134500500Y-88918543D01*
X134500500Y-61633904D01*
X134520185Y-61566865D01*
X134572989Y-61521110D01*
X134642147Y-61511166D01*
X134705703Y-61540191D01*
X134716271Y-61550513D01*
X134725228Y-61560370D01*
X134744480Y-61593716D01*
X134856284Y-61705520D01*
X134856286Y-61705521D01*
X134865454Y-61714689D01*
X134988497Y-61837732D01*
X135021982Y-61899055D01*
X135024213Y-61931852D01*
X135024596Y-61931868D01*
X135024500Y-61934313D01*
X135024500Y-62365701D01*
X135027401Y-62402567D01*
X135027402Y-62402573D01*
X135073254Y-62560393D01*
X135073255Y-62560396D01*
X135156917Y-62701862D01*
X135161702Y-62708031D01*
X135159256Y-62709927D01*
X135185857Y-62758642D01*
X135180873Y-62828334D01*
X135160069Y-62860703D01*
X135161702Y-62861969D01*
X135156917Y-62868137D01*
X135073255Y-63009603D01*
X135073254Y-63009606D01*
X135027402Y-63167426D01*
X135027401Y-63167432D01*
X135024500Y-63204298D01*
X135024500Y-63635701D01*
X135027401Y-63672567D01*
X135027402Y-63672573D01*
X135073254Y-63830393D01*
X135073255Y-63830396D01*
X135156917Y-63971862D01*
X135161702Y-63978031D01*
X135159256Y-63979927D01*
X135185857Y-64028642D01*
X135180873Y-64098334D01*
X135160069Y-64130703D01*
X135161702Y-64131969D01*
X135156917Y-64138137D01*
X135073255Y-64279603D01*
X135073254Y-64279606D01*
X135027402Y-64437426D01*
X135027401Y-64437432D01*
X135024500Y-64474298D01*
X135024500Y-64905701D01*
X135027401Y-64942567D01*
X135027402Y-64942573D01*
X135073254Y-65100393D01*
X135073255Y-65100396D01*
X135156917Y-65241862D01*
X135161702Y-65248031D01*
X135159256Y-65249927D01*
X135185857Y-65298642D01*
X135180873Y-65368334D01*
X135160069Y-65400703D01*
X135161702Y-65401969D01*
X135156917Y-65408137D01*
X135073255Y-65549603D01*
X135073254Y-65549606D01*
X135027402Y-65707426D01*
X135027401Y-65707432D01*
X135024500Y-65744298D01*
X135024500Y-66175701D01*
X135027401Y-66212567D01*
X135027402Y-66212573D01*
X135073254Y-66370393D01*
X135073255Y-66370396D01*
X135156917Y-66511862D01*
X135161702Y-66518031D01*
X135159256Y-66519927D01*
X135185857Y-66568642D01*
X135180873Y-66638334D01*
X135160069Y-66670703D01*
X135161702Y-66671969D01*
X135156917Y-66678137D01*
X135073255Y-66819603D01*
X135073254Y-66819606D01*
X135027402Y-66977426D01*
X135027401Y-66977432D01*
X135024500Y-67014298D01*
X135024500Y-67445701D01*
X135027401Y-67482567D01*
X135027402Y-67482573D01*
X135073254Y-67640393D01*
X135073255Y-67640396D01*
X135156917Y-67781862D01*
X135161702Y-67788031D01*
X135159256Y-67789927D01*
X135185857Y-67838642D01*
X135180873Y-67908334D01*
X135160069Y-67940703D01*
X135161702Y-67941969D01*
X135156917Y-67948137D01*
X135073255Y-68089603D01*
X135073254Y-68089606D01*
X135027402Y-68247426D01*
X135027401Y-68247432D01*
X135024500Y-68284298D01*
X135024500Y-68715701D01*
X135027401Y-68752567D01*
X135027402Y-68752573D01*
X135073254Y-68910393D01*
X135073255Y-68910396D01*
X135156917Y-69051862D01*
X135156923Y-69051870D01*
X135273129Y-69168076D01*
X135273133Y-69168079D01*
X135273135Y-69168081D01*
X135414602Y-69251744D01*
X135456224Y-69263836D01*
X135572426Y-69297597D01*
X135572429Y-69297597D01*
X135572431Y-69297598D01*
X135609306Y-69300500D01*
X135609314Y-69300500D01*
X137375500Y-69300500D01*
X137442539Y-69320185D01*
X137488294Y-69372989D01*
X137499500Y-69424500D01*
X137499500Y-70885201D01*
X137479815Y-70952240D01*
X137440598Y-70990739D01*
X137381344Y-71027287D01*
X137257289Y-71151342D01*
X137165187Y-71300663D01*
X137165186Y-71300666D01*
X137110001Y-71467203D01*
X137110001Y-71467204D01*
X137110000Y-71467204D01*
X137099500Y-71569983D01*
X137099500Y-72620001D01*
X137099501Y-72620019D01*
X137110000Y-72722796D01*
X137110001Y-72722799D01*
X137165185Y-72889331D01*
X137165187Y-72889336D01*
X137186249Y-72923483D01*
X137257288Y-73038656D01*
X137381344Y-73162712D01*
X137440596Y-73199258D01*
X137487321Y-73251204D01*
X137499500Y-73304797D01*
X137499500Y-74599903D01*
X137479815Y-74666942D01*
X137463181Y-74687584D01*
X136162584Y-75988181D01*
X136101261Y-76021666D01*
X136074903Y-76024500D01*
X135743384Y-76024500D01*
X135724145Y-76026248D01*
X135672807Y-76030913D01*
X135510393Y-76081522D01*
X135364811Y-76169530D01*
X135244530Y-76289811D01*
X135156522Y-76435393D01*
X135105913Y-76597807D01*
X135099500Y-76668386D01*
X135099500Y-77331613D01*
X135105913Y-77402192D01*
X135105913Y-77402194D01*
X135105914Y-77402196D01*
X135156522Y-77564606D01*
X135207842Y-77649500D01*
X135244530Y-77710188D01*
X135364811Y-77830469D01*
X135364813Y-77830470D01*
X135364815Y-77830472D01*
X135510394Y-77918478D01*
X135672804Y-77969086D01*
X135743384Y-77975500D01*
X135743387Y-77975500D01*
X136256613Y-77975500D01*
X136256616Y-77975500D01*
X136327196Y-77969086D01*
X136489606Y-77918478D01*
X136635185Y-77830472D01*
X136635189Y-77830468D01*
X136737319Y-77728339D01*
X136798642Y-77694854D01*
X136868334Y-77699838D01*
X136912681Y-77728339D01*
X137014811Y-77830469D01*
X137014813Y-77830470D01*
X137014815Y-77830472D01*
X137160394Y-77918478D01*
X137322804Y-77969086D01*
X137336720Y-77970350D01*
X137401702Y-77996019D01*
X137442492Y-78052746D01*
X137449500Y-78093841D01*
X137449500Y-79055500D01*
X137429815Y-79122539D01*
X137377011Y-79168294D01*
X137325500Y-79179500D01*
X136551457Y-79179500D01*
X136358170Y-79217947D01*
X136358160Y-79217950D01*
X136176092Y-79293364D01*
X136176079Y-79293371D01*
X136012218Y-79402860D01*
X136012214Y-79402863D01*
X135872863Y-79542214D01*
X135872860Y-79542218D01*
X135763371Y-79706079D01*
X135763364Y-79706092D01*
X135687950Y-79888160D01*
X135687947Y-79888170D01*
X135649500Y-80081456D01*
X135649500Y-80081459D01*
X135649500Y-80278541D01*
X135649500Y-80278543D01*
X135649499Y-80278543D01*
X135687947Y-80471829D01*
X135687950Y-80471839D01*
X135763364Y-80653907D01*
X135763371Y-80653920D01*
X135872860Y-80817781D01*
X135872863Y-80817785D01*
X136012214Y-80957136D01*
X136012218Y-80957139D01*
X136176079Y-81066628D01*
X136176092Y-81066635D01*
X136358160Y-81142049D01*
X136358165Y-81142051D01*
X136358169Y-81142051D01*
X136358170Y-81142052D01*
X136551456Y-81180500D01*
X137325500Y-81180500D01*
X137334185Y-81183050D01*
X137343147Y-81181762D01*
X137367187Y-81192740D01*
X137392539Y-81200185D01*
X137398466Y-81207025D01*
X137406703Y-81210787D01*
X137420992Y-81233021D01*
X137438294Y-81252989D01*
X137440581Y-81263503D01*
X137444477Y-81269565D01*
X137449500Y-81304500D01*
X137449500Y-81333331D01*
X137449499Y-81333349D01*
X137449499Y-81499055D01*
X137449498Y-81499055D01*
X137490423Y-81651786D01*
X137500006Y-81668384D01*
X137569477Y-81788713D01*
X137569481Y-81788718D01*
X137688349Y-81907586D01*
X137688355Y-81907591D01*
X139363181Y-83582417D01*
X139396666Y-83643740D01*
X139399500Y-83670098D01*
X139399500Y-86079056D01*
X139440423Y-86231783D01*
X139440426Y-86231790D01*
X139519475Y-86368709D01*
X139519479Y-86368714D01*
X139519480Y-86368716D01*
X139631284Y-86480520D01*
X139631286Y-86480521D01*
X139631290Y-86480524D01*
X139722034Y-86532914D01*
X139768216Y-86559577D01*
X139920943Y-86600500D01*
X140069904Y-86600500D01*
X140099344Y-86609144D01*
X140129331Y-86615668D01*
X140134346Y-86619422D01*
X140136943Y-86620185D01*
X140157585Y-86636819D01*
X140261865Y-86741099D01*
X140295350Y-86802422D01*
X140290366Y-86872114D01*
X140252276Y-86923632D01*
X140252382Y-86923738D01*
X140251678Y-86924441D01*
X140249673Y-86927154D01*
X140246633Y-86929486D01*
X140139487Y-87036632D01*
X140139485Y-87036635D01*
X140063719Y-87167863D01*
X140024500Y-87314234D01*
X140024500Y-87465765D01*
X140063719Y-87612136D01*
X140096352Y-87668657D01*
X140139485Y-87743365D01*
X140139488Y-87743368D01*
X140144188Y-87749493D01*
X140169383Y-87814662D01*
X140155346Y-87883107D01*
X140110510Y-87929023D01*
X140111151Y-87929983D01*
X140106612Y-87933015D01*
X140106533Y-87933097D01*
X140106296Y-87933226D01*
X139942218Y-88042860D01*
X139942214Y-88042863D01*
X139802863Y-88182214D01*
X139802860Y-88182218D01*
X139693371Y-88346079D01*
X139693364Y-88346092D01*
X139617950Y-88528160D01*
X139617947Y-88528170D01*
X139579500Y-88721456D01*
X139579500Y-88721459D01*
X139579500Y-88918541D01*
X139579500Y-88918543D01*
X139579499Y-88918543D01*
X139617947Y-89111829D01*
X139617950Y-89111839D01*
X139693364Y-89293907D01*
X139693371Y-89293920D01*
X139802860Y-89457781D01*
X139802863Y-89457785D01*
X139942214Y-89597136D01*
X139942218Y-89597139D01*
X140106079Y-89706628D01*
X140106092Y-89706635D01*
X140267132Y-89773339D01*
X140288165Y-89782051D01*
X140288169Y-89782051D01*
X140288170Y-89782052D01*
X140481456Y-89820500D01*
X140481459Y-89820500D01*
X141778543Y-89820500D01*
X141908582Y-89794632D01*
X141971835Y-89782051D01*
X142153914Y-89706632D01*
X142317782Y-89597139D01*
X142457139Y-89457782D01*
X142566632Y-89293914D01*
X142642051Y-89111835D01*
X142666764Y-88987596D01*
X142680500Y-88918543D01*
X142680500Y-88721456D01*
X142642052Y-88528170D01*
X142642051Y-88528169D01*
X142642051Y-88528165D01*
X142626166Y-88489815D01*
X142566635Y-88346092D01*
X142566628Y-88346079D01*
X142457139Y-88182218D01*
X142457136Y-88182214D01*
X142317785Y-88042863D01*
X142317781Y-88042860D01*
X142220116Y-87977602D01*
X142175311Y-87923990D01*
X142166604Y-87854665D01*
X142196759Y-87791637D01*
X142256202Y-87754918D01*
X142289007Y-87750500D01*
X142685686Y-87750500D01*
X142685694Y-87750500D01*
X142722569Y-87747598D01*
X142722571Y-87747597D01*
X142722573Y-87747597D01*
X142783430Y-87729916D01*
X142880398Y-87701744D01*
X143021865Y-87618081D01*
X143138081Y-87501865D01*
X143221744Y-87360398D01*
X143267598Y-87202569D01*
X143270500Y-87165694D01*
X143270500Y-86974500D01*
X143273050Y-86965814D01*
X143271762Y-86956853D01*
X143282740Y-86932812D01*
X143290185Y-86907461D01*
X143297025Y-86901533D01*
X143300787Y-86893297D01*
X143323021Y-86879007D01*
X143342989Y-86861706D01*
X143353503Y-86859418D01*
X143359565Y-86855523D01*
X143394500Y-86850500D01*
X143474903Y-86850500D01*
X143541942Y-86870185D01*
X143562584Y-86886819D01*
X145788181Y-89112416D01*
X145821666Y-89173739D01*
X145824500Y-89200097D01*
X145824500Y-89531613D01*
X145830913Y-89602192D01*
X145830913Y-89602194D01*
X145830914Y-89602196D01*
X145881522Y-89764606D01*
X145932709Y-89849280D01*
X145969530Y-89910188D01*
X146089811Y-90030469D01*
X146089813Y-90030470D01*
X146089815Y-90030472D01*
X146235394Y-90118478D01*
X146397804Y-90169086D01*
X146468384Y-90175500D01*
X146468387Y-90175500D01*
X146981613Y-90175500D01*
X146981616Y-90175500D01*
X147052196Y-90169086D01*
X147214606Y-90118478D01*
X147360185Y-90030472D01*
X147480472Y-89910185D01*
X147568478Y-89764606D01*
X147619086Y-89602196D01*
X147625500Y-89531616D01*
X147625500Y-88868384D01*
X147619086Y-88797804D01*
X147568478Y-88635394D01*
X147480472Y-88489815D01*
X147480470Y-88489813D01*
X147480469Y-88489811D01*
X147360188Y-88369530D01*
X147332288Y-88352664D01*
X147214606Y-88281522D01*
X147052196Y-88230914D01*
X147052194Y-88230913D01*
X147052192Y-88230913D01*
X147002778Y-88226423D01*
X146981616Y-88224500D01*
X146981613Y-88224500D01*
X146650097Y-88224500D01*
X146583058Y-88204815D01*
X146562416Y-88188181D01*
X144262590Y-85888355D01*
X144262588Y-85888352D01*
X144143717Y-85769481D01*
X144143709Y-85769475D01*
X144055789Y-85718715D01*
X144055788Y-85718715D01*
X144035077Y-85706757D01*
X144006785Y-85690423D01*
X143854057Y-85649499D01*
X143695943Y-85649499D01*
X143688347Y-85649499D01*
X143688331Y-85649500D01*
X143380854Y-85649500D01*
X143380289Y-85649334D01*
X143379722Y-85649495D01*
X143346779Y-85639494D01*
X143313815Y-85629815D01*
X143313429Y-85629370D01*
X143312865Y-85629199D01*
X143290551Y-85602967D01*
X143268060Y-85577011D01*
X143267848Y-85576278D01*
X143267594Y-85575979D01*
X143260231Y-85549892D01*
X143257960Y-85542026D01*
X143257940Y-85541878D01*
X143255687Y-85524764D01*
X143255615Y-85524591D01*
X143254531Y-85516526D01*
X143257689Y-85495901D01*
X143257689Y-85483698D01*
X143254626Y-85483295D01*
X143260270Y-85440423D01*
X143270500Y-85362720D01*
X143270500Y-85137280D01*
X143255687Y-85024764D01*
X143255686Y-85024763D01*
X143254626Y-85016705D01*
X143257689Y-85016301D01*
X143257689Y-84983698D01*
X143254626Y-84983295D01*
X143261964Y-84927555D01*
X143270500Y-84862720D01*
X143270500Y-84637280D01*
X143255687Y-84524764D01*
X143255686Y-84524762D01*
X143254944Y-84519123D01*
X143254890Y-84519008D01*
X143254901Y-84518797D01*
X143254626Y-84516705D01*
X143255018Y-84516653D01*
X143255765Y-84502979D01*
X143254499Y-84483716D01*
X143255591Y-84475465D01*
X143255687Y-84475236D01*
X143265961Y-84397196D01*
X143280187Y-84365108D01*
X143294213Y-84333402D01*
X143294256Y-84333373D01*
X143294278Y-84333325D01*
X143323370Y-84314169D01*
X143352537Y-84294930D01*
X143352589Y-84294929D01*
X143352633Y-84294901D01*
X143386770Y-84294522D01*
X143422402Y-84294098D01*
X143422450Y-84294126D01*
X143422499Y-84294126D01*
X143423187Y-84294557D01*
X143476567Y-84325802D01*
X145215139Y-86064374D01*
X145215149Y-86064385D01*
X145219479Y-86068715D01*
X145219480Y-86068716D01*
X145331284Y-86180520D01*
X145418095Y-86230639D01*
X145418097Y-86230641D01*
X145468213Y-86259576D01*
X145468215Y-86259577D01*
X145620942Y-86300500D01*
X145620943Y-86300500D01*
X145833285Y-86300500D01*
X145900324Y-86320185D01*
X145939401Y-86360349D01*
X145969528Y-86410185D01*
X145969530Y-86410188D01*
X146089811Y-86530469D01*
X146089813Y-86530470D01*
X146089815Y-86530472D01*
X146235394Y-86618478D01*
X146397804Y-86669086D01*
X146468384Y-86675500D01*
X146468387Y-86675500D01*
X146981613Y-86675500D01*
X146981616Y-86675500D01*
X147052196Y-86669086D01*
X147214606Y-86618478D01*
X147360185Y-86530472D01*
X147480472Y-86410185D01*
X147568478Y-86264606D01*
X147619086Y-86102196D01*
X147625500Y-86031616D01*
X147625500Y-85368384D01*
X147619086Y-85297804D01*
X147568478Y-85135394D01*
X147480472Y-84989815D01*
X147480470Y-84989813D01*
X147480469Y-84989811D01*
X147360188Y-84869530D01*
X147358841Y-84868716D01*
X147214606Y-84781522D01*
X147052196Y-84730914D01*
X147052194Y-84730913D01*
X147052192Y-84730913D01*
X147002778Y-84726423D01*
X146981616Y-84724500D01*
X146468384Y-84724500D01*
X146449145Y-84726248D01*
X146397807Y-84730913D01*
X146235393Y-84781522D01*
X146089813Y-84869529D01*
X145991969Y-84967373D01*
X145930646Y-85000857D01*
X145860954Y-84995873D01*
X145816607Y-84967372D01*
X144661416Y-83812181D01*
X144627931Y-83750858D01*
X144632915Y-83681166D01*
X144674787Y-83625233D01*
X144740251Y-83600816D01*
X144749097Y-83600500D01*
X145713331Y-83600500D01*
X145713347Y-83600501D01*
X145720943Y-83600501D01*
X145879054Y-83600501D01*
X145879057Y-83600501D01*
X146031785Y-83559577D01*
X146097010Y-83521919D01*
X146168716Y-83480520D01*
X146197054Y-83452180D01*
X146206258Y-83445812D01*
X146229226Y-83438207D01*
X146250460Y-83426612D01*
X146267063Y-83425678D01*
X146272586Y-83423850D01*
X146277433Y-83425095D01*
X146289428Y-83424421D01*
X146293538Y-83424840D01*
X146299991Y-83425500D01*
X146900008Y-83425499D01*
X147001312Y-83415150D01*
X147070001Y-83427919D01*
X147101592Y-83450827D01*
X150413181Y-86762416D01*
X150446666Y-86823739D01*
X150449500Y-86850097D01*
X150449500Y-86945701D01*
X150452401Y-86982567D01*
X150452402Y-86982573D01*
X150498254Y-87140393D01*
X150498255Y-87140396D01*
X150581917Y-87281862D01*
X150581923Y-87281870D01*
X150698129Y-87398076D01*
X150698133Y-87398079D01*
X150698135Y-87398081D01*
X150839602Y-87481744D01*
X150879367Y-87493297D01*
X150997426Y-87527597D01*
X150997429Y-87527597D01*
X150997431Y-87527598D01*
X151034306Y-87530500D01*
X151163000Y-87530500D01*
X151230039Y-87550185D01*
X151275794Y-87602989D01*
X151287000Y-87654500D01*
X151287000Y-88128480D01*
X151267315Y-88195519D01*
X151250681Y-88216161D01*
X151132031Y-88334810D01*
X151132030Y-88334811D01*
X151044022Y-88480393D01*
X150993413Y-88642807D01*
X150987000Y-88713386D01*
X150987000Y-89376613D01*
X150993413Y-89447192D01*
X150993413Y-89447194D01*
X150993414Y-89447196D01*
X151044022Y-89609606D01*
X151129482Y-89750974D01*
X151132030Y-89755188D01*
X151252311Y-89875469D01*
X151252313Y-89875470D01*
X151252315Y-89875472D01*
X151397894Y-89963478D01*
X151560304Y-90014086D01*
X151630884Y-90020500D01*
X151630887Y-90020500D01*
X152144113Y-90020500D01*
X152144116Y-90020500D01*
X152214696Y-90014086D01*
X152377106Y-89963478D01*
X152522685Y-89875472D01*
X152548877Y-89849280D01*
X152624819Y-89773339D01*
X152686142Y-89739854D01*
X152755834Y-89744838D01*
X152800181Y-89773339D01*
X152902311Y-89875469D01*
X152902313Y-89875470D01*
X152902315Y-89875472D01*
X153047894Y-89963478D01*
X153210304Y-90014086D01*
X153280884Y-90020500D01*
X153280887Y-90020500D01*
X153794113Y-90020500D01*
X153794116Y-90020500D01*
X153864696Y-90014086D01*
X154027106Y-89963478D01*
X154172685Y-89875472D01*
X154227657Y-89820500D01*
X154298276Y-89749882D01*
X154299368Y-89750974D01*
X154349165Y-89715372D01*
X154418949Y-89711917D01*
X154477623Y-89744795D01*
X154582108Y-89849280D01*
X154582112Y-89849283D01*
X154725204Y-89937544D01*
X154725207Y-89937545D01*
X154725213Y-89937549D01*
X154884815Y-89990436D01*
X154983326Y-90000500D01*
X154983331Y-90000500D01*
X155516669Y-90000500D01*
X155516674Y-90000500D01*
X155615185Y-89990436D01*
X155626203Y-89986784D01*
X155696028Y-89984381D01*
X155752887Y-90016808D01*
X156016598Y-90280520D01*
X156016600Y-90280521D01*
X156016604Y-90280524D01*
X156153523Y-90359573D01*
X156153530Y-90359577D01*
X156306257Y-90400501D01*
X156306259Y-90400501D01*
X156471968Y-90400501D01*
X156471984Y-90400500D01*
X158613331Y-90400500D01*
X158613347Y-90400501D01*
X158620943Y-90400501D01*
X158779054Y-90400501D01*
X158779057Y-90400501D01*
X158931785Y-90359577D01*
X158981904Y-90330639D01*
X159068716Y-90280520D01*
X159180520Y-90168716D01*
X159180520Y-90168714D01*
X159190728Y-90158507D01*
X159190729Y-90158504D01*
X162787821Y-86561413D01*
X162849142Y-86527930D01*
X162918834Y-86532914D01*
X162974767Y-86574786D01*
X162999184Y-86640250D01*
X162999500Y-86649096D01*
X162999500Y-86786611D01*
X163007677Y-86838239D01*
X163026463Y-86956853D01*
X163026598Y-86957701D01*
X163080127Y-87122445D01*
X163158768Y-87276788D01*
X163260586Y-87416928D01*
X163383072Y-87539414D01*
X163523212Y-87641232D01*
X163677555Y-87719873D01*
X163842299Y-87773402D01*
X164013389Y-87800500D01*
X164013390Y-87800500D01*
X164186610Y-87800500D01*
X164186611Y-87800500D01*
X164357701Y-87773402D01*
X164522445Y-87719873D01*
X164676788Y-87641232D01*
X164816928Y-87539414D01*
X164939414Y-87416928D01*
X165041232Y-87276788D01*
X165119873Y-87122445D01*
X165173402Y-86957701D01*
X165200500Y-86786611D01*
X165200500Y-85694746D01*
X165220185Y-85627707D01*
X165272989Y-85581952D01*
X165342147Y-85572008D01*
X165405703Y-85601033D01*
X165442429Y-85656426D01*
X165480127Y-85772445D01*
X165558768Y-85926788D01*
X165660586Y-86066928D01*
X165783072Y-86189414D01*
X165858513Y-86244225D01*
X165901178Y-86299555D01*
X165908985Y-86357145D01*
X165899500Y-86449981D01*
X165899500Y-87250001D01*
X165899501Y-87250019D01*
X165910000Y-87352796D01*
X165910001Y-87352799D01*
X165965185Y-87519331D01*
X165965187Y-87519336D01*
X165977571Y-87539414D01*
X166057288Y-87668656D01*
X166181344Y-87792712D01*
X166330666Y-87884814D01*
X166497203Y-87939999D01*
X166599991Y-87950500D01*
X167400008Y-87950499D01*
X167400016Y-87950498D01*
X167400019Y-87950498D01*
X167456302Y-87944748D01*
X167502797Y-87939999D01*
X167669334Y-87884814D01*
X167818656Y-87792712D01*
X167942712Y-87668656D01*
X168034814Y-87519334D01*
X168089999Y-87352797D01*
X168100500Y-87250009D01*
X168100499Y-86617334D01*
X168104648Y-86601846D01*
X168103994Y-86588103D01*
X168117111Y-86555337D01*
X168131467Y-86530472D01*
X168154780Y-86490094D01*
X168205347Y-86441878D01*
X168273954Y-86428656D01*
X168281565Y-86429621D01*
X168326418Y-86436725D01*
X168389553Y-86466654D01*
X168426485Y-86525965D01*
X168427597Y-86588138D01*
X168426597Y-86592304D01*
X168399500Y-86763389D01*
X168399500Y-86936610D01*
X168419819Y-87064904D01*
X168426598Y-87107701D01*
X168480127Y-87272445D01*
X168558768Y-87426788D01*
X168660586Y-87566928D01*
X168783072Y-87689414D01*
X168923212Y-87791232D01*
X169077555Y-87869873D01*
X169242299Y-87923402D01*
X169413389Y-87950500D01*
X169413390Y-87950500D01*
X169586610Y-87950500D01*
X169586611Y-87950500D01*
X169757701Y-87923402D01*
X169922445Y-87869873D01*
X170076788Y-87791232D01*
X170216928Y-87689414D01*
X170339414Y-87566928D01*
X170386868Y-87501613D01*
X170391199Y-87498273D01*
X170393472Y-87493297D01*
X170418571Y-87477166D01*
X170442197Y-87458949D01*
X170448868Y-87457696D01*
X170452250Y-87455523D01*
X170487185Y-87450500D01*
X170512815Y-87450500D01*
X170579854Y-87470185D01*
X170613131Y-87501612D01*
X170660586Y-87566928D01*
X170783072Y-87689414D01*
X170923212Y-87791232D01*
X171077555Y-87869873D01*
X171242299Y-87923402D01*
X171413389Y-87950500D01*
X171413390Y-87950500D01*
X171586610Y-87950500D01*
X171586611Y-87950500D01*
X171757701Y-87923402D01*
X171922445Y-87869873D01*
X172076788Y-87791232D01*
X172216928Y-87689414D01*
X172339414Y-87566928D01*
X172441232Y-87426788D01*
X172519873Y-87272445D01*
X172573402Y-87107701D01*
X172600500Y-86936611D01*
X172600500Y-86763389D01*
X172573402Y-86592299D01*
X172572406Y-86588151D01*
X172575893Y-86518369D01*
X172616554Y-86461549D01*
X172673579Y-86436725D01*
X172757701Y-86423402D01*
X172922445Y-86369873D01*
X173076788Y-86291232D01*
X173216928Y-86189414D01*
X173339414Y-86066928D01*
X173399682Y-85983975D01*
X173455012Y-85941311D01*
X173524626Y-85935332D01*
X173586421Y-85967938D01*
X173600315Y-85983973D01*
X173660586Y-86066928D01*
X173783072Y-86189414D01*
X173923212Y-86291232D01*
X174077555Y-86369873D01*
X174242299Y-86423402D01*
X174413389Y-86450500D01*
X174413390Y-86450500D01*
X174586610Y-86450500D01*
X174586611Y-86450500D01*
X174757701Y-86423402D01*
X174922445Y-86369873D01*
X175076788Y-86291232D01*
X175216928Y-86189414D01*
X175339414Y-86066928D01*
X175441232Y-85926788D01*
X175519873Y-85772445D01*
X175557569Y-85656426D01*
X175597007Y-85598752D01*
X175661365Y-85571554D01*
X175730212Y-85583469D01*
X175781687Y-85630713D01*
X175799500Y-85694746D01*
X175799500Y-86786611D01*
X175807677Y-86838239D01*
X175826463Y-86956853D01*
X175826598Y-86957701D01*
X175880127Y-87122445D01*
X175958768Y-87276788D01*
X176060586Y-87416928D01*
X176183072Y-87539414D01*
X176323212Y-87641232D01*
X176477555Y-87719873D01*
X176642299Y-87773402D01*
X176813389Y-87800500D01*
X176813390Y-87800500D01*
X176986610Y-87800500D01*
X176986611Y-87800500D01*
X177157701Y-87773402D01*
X177322445Y-87719873D01*
X177476788Y-87641232D01*
X177616928Y-87539414D01*
X177739414Y-87416928D01*
X177841232Y-87276788D01*
X177919873Y-87122445D01*
X177973402Y-86957701D01*
X178000500Y-86786611D01*
X178000500Y-85413389D01*
X177973402Y-85242299D01*
X177919873Y-85077555D01*
X177841232Y-84923212D01*
X177739414Y-84783072D01*
X177616928Y-84660586D01*
X177476788Y-84558768D01*
X177322445Y-84480127D01*
X177157701Y-84426598D01*
X177157699Y-84426597D01*
X177157698Y-84426597D01*
X177025718Y-84405694D01*
X176986611Y-84399500D01*
X176813389Y-84399500D01*
X176774282Y-84405694D01*
X176642302Y-84426597D01*
X176477552Y-84480128D01*
X176323211Y-84558768D01*
X176265920Y-84600393D01*
X176183072Y-84660586D01*
X176183070Y-84660588D01*
X176183069Y-84660588D01*
X176060588Y-84783069D01*
X176060588Y-84783070D01*
X176060586Y-84783072D01*
X176016859Y-84843256D01*
X175958768Y-84923211D01*
X175880128Y-85077550D01*
X175831955Y-85225812D01*
X175792517Y-85283487D01*
X175728158Y-85310685D01*
X175659312Y-85298770D01*
X175607836Y-85251526D01*
X175591551Y-85206892D01*
X175580227Y-85135393D01*
X175573403Y-85092303D01*
X175573402Y-85092302D01*
X175573402Y-85092299D01*
X175519873Y-84927555D01*
X175441232Y-84773212D01*
X175339414Y-84633072D01*
X175216928Y-84510586D01*
X175076788Y-84408768D01*
X174928816Y-84333373D01*
X174922447Y-84330128D01*
X174922446Y-84330127D01*
X174922445Y-84330127D01*
X174757701Y-84276598D01*
X174757699Y-84276597D01*
X174757698Y-84276597D01*
X174626271Y-84255781D01*
X174586611Y-84249500D01*
X174413389Y-84249500D01*
X174373728Y-84255781D01*
X174242302Y-84276597D01*
X174077552Y-84330128D01*
X173923211Y-84408768D01*
X173867043Y-84449577D01*
X173783072Y-84510586D01*
X173783070Y-84510588D01*
X173783069Y-84510588D01*
X173660588Y-84633069D01*
X173660581Y-84633078D01*
X173600317Y-84716023D01*
X173544987Y-84758689D01*
X173475374Y-84764667D01*
X173413579Y-84732061D01*
X173399683Y-84716023D01*
X173349305Y-84646686D01*
X173339414Y-84633072D01*
X173216928Y-84510586D01*
X173076788Y-84408768D01*
X172928816Y-84333373D01*
X172922447Y-84330128D01*
X172922446Y-84330127D01*
X172922445Y-84330127D01*
X172757701Y-84276598D01*
X172757699Y-84276597D01*
X172757698Y-84276597D01*
X172626271Y-84255781D01*
X172586611Y-84249500D01*
X172413389Y-84249500D01*
X172373728Y-84255781D01*
X172242302Y-84276597D01*
X172077552Y-84330128D01*
X171923211Y-84408768D01*
X171867043Y-84449577D01*
X171783072Y-84510586D01*
X171783070Y-84510588D01*
X171783069Y-84510588D01*
X171660588Y-84633069D01*
X171660581Y-84633078D01*
X171600317Y-84716023D01*
X171544987Y-84758689D01*
X171475374Y-84764667D01*
X171413579Y-84732061D01*
X171399683Y-84716023D01*
X171349305Y-84646686D01*
X171339414Y-84633072D01*
X171216928Y-84510586D01*
X171076788Y-84408768D01*
X170928816Y-84333373D01*
X170922447Y-84330128D01*
X170922446Y-84330127D01*
X170922445Y-84330127D01*
X170757701Y-84276598D01*
X170757699Y-84276597D01*
X170757698Y-84276597D01*
X170626271Y-84255781D01*
X170586611Y-84249500D01*
X170413389Y-84249500D01*
X170373728Y-84255781D01*
X170242302Y-84276597D01*
X170077552Y-84330128D01*
X169923211Y-84408768D01*
X169867043Y-84449577D01*
X169783072Y-84510586D01*
X169783070Y-84510588D01*
X169783069Y-84510588D01*
X169660588Y-84633069D01*
X169660581Y-84633078D01*
X169600317Y-84716023D01*
X169544987Y-84758689D01*
X169475374Y-84764667D01*
X169413579Y-84732061D01*
X169399683Y-84716023D01*
X169349305Y-84646686D01*
X169339414Y-84633072D01*
X169216928Y-84510586D01*
X169076788Y-84408768D01*
X168928816Y-84333373D01*
X168922447Y-84330128D01*
X168922446Y-84330127D01*
X168922445Y-84330127D01*
X168757701Y-84276598D01*
X168757699Y-84276597D01*
X168757698Y-84276597D01*
X168626271Y-84255781D01*
X168586611Y-84249500D01*
X168413389Y-84249500D01*
X168343897Y-84260506D01*
X168274604Y-84251551D01*
X168221152Y-84206555D01*
X168200513Y-84139803D01*
X168200500Y-84138033D01*
X168200500Y-83639059D01*
X168200501Y-83639046D01*
X168200501Y-83470945D01*
X168200501Y-83470943D01*
X168159577Y-83318215D01*
X168109676Y-83231784D01*
X168080520Y-83181284D01*
X167968716Y-83069480D01*
X167968715Y-83069479D01*
X167964385Y-83065149D01*
X167964374Y-83065139D01*
X167086818Y-82187583D01*
X167072114Y-82160655D01*
X167055522Y-82134837D01*
X167054630Y-82128636D01*
X167053333Y-82126260D01*
X167050499Y-82099902D01*
X167050499Y-81900097D01*
X167070184Y-81833058D01*
X167086818Y-81812416D01*
X167762416Y-81136819D01*
X167823739Y-81103334D01*
X167850097Y-81100500D01*
X170913331Y-81100500D01*
X170913347Y-81100501D01*
X170920943Y-81100501D01*
X171079054Y-81100501D01*
X171079057Y-81100501D01*
X171231785Y-81059577D01*
X171282113Y-81030520D01*
X171282114Y-81030520D01*
X171368709Y-80980524D01*
X171368708Y-80980524D01*
X171368716Y-80980520D01*
X171480520Y-80868716D01*
X171480520Y-80868714D01*
X171490724Y-80858511D01*
X171490727Y-80858506D01*
X171862321Y-80486912D01*
X171923641Y-80453430D01*
X171993333Y-80458414D01*
X172037680Y-80486915D01*
X173415139Y-81864374D01*
X173415149Y-81864385D01*
X173419479Y-81868715D01*
X173419480Y-81868716D01*
X173531284Y-81980520D01*
X173531286Y-81980521D01*
X173531290Y-81980524D01*
X173668209Y-82059573D01*
X173668216Y-82059577D01*
X173780019Y-82089534D01*
X173820942Y-82100500D01*
X173820943Y-82100500D01*
X175633285Y-82100500D01*
X175700324Y-82120185D01*
X175739402Y-82160350D01*
X175769530Y-82210188D01*
X175889811Y-82330469D01*
X175889813Y-82330470D01*
X175889815Y-82330472D01*
X176035394Y-82418478D01*
X176197804Y-82469086D01*
X176268384Y-82475500D01*
X176268387Y-82475500D01*
X176781613Y-82475500D01*
X176781616Y-82475500D01*
X176852196Y-82469086D01*
X177014606Y-82418478D01*
X177160185Y-82330472D01*
X177208872Y-82281785D01*
X177262319Y-82228339D01*
X177323642Y-82194854D01*
X177393334Y-82199838D01*
X177437681Y-82228339D01*
X177539811Y-82330469D01*
X177539813Y-82330470D01*
X177539815Y-82330472D01*
X177685394Y-82418478D01*
X177847804Y-82469086D01*
X177918384Y-82475500D01*
X177918387Y-82475500D01*
X178431613Y-82475500D01*
X178431616Y-82475500D01*
X178502196Y-82469086D01*
X178664606Y-82418478D01*
X178810185Y-82330472D01*
X178930472Y-82210185D01*
X179018478Y-82064606D01*
X179069086Y-81902196D01*
X179075500Y-81831616D01*
X179075500Y-81500097D01*
X179095185Y-81433058D01*
X179111819Y-81412416D01*
X179387417Y-81136819D01*
X179448740Y-81103334D01*
X179475098Y-81100500D01*
X180650499Y-81100500D01*
X180717538Y-81120185D01*
X180763293Y-81172989D01*
X180774499Y-81224500D01*
X180774499Y-81304054D01*
X180774498Y-81304054D01*
X180815423Y-81456785D01*
X180829126Y-81480519D01*
X180894477Y-81593712D01*
X180894481Y-81593717D01*
X181013349Y-81712585D01*
X181013355Y-81712590D01*
X181213181Y-81912416D01*
X181246666Y-81973739D01*
X181249500Y-82000097D01*
X181249500Y-82331616D01*
X181250493Y-82342539D01*
X181255913Y-82402192D01*
X181255913Y-82402194D01*
X181255914Y-82402196D01*
X181306522Y-82564606D01*
X181344722Y-82627797D01*
X181394530Y-82710188D01*
X181514811Y-82830469D01*
X181514813Y-82830470D01*
X181514815Y-82830472D01*
X181660394Y-82918478D01*
X181822804Y-82969086D01*
X181893384Y-82975500D01*
X181893387Y-82975500D01*
X182406613Y-82975500D01*
X182406616Y-82975500D01*
X182477196Y-82969086D01*
X182639606Y-82918478D01*
X182785185Y-82830472D01*
X182905472Y-82710185D01*
X182993478Y-82564606D01*
X183044086Y-82402196D01*
X183049723Y-82340158D01*
X183075394Y-82275177D01*
X183085525Y-82263709D01*
X183980520Y-81368716D01*
X184000939Y-81333349D01*
X184033373Y-81277172D01*
X184033373Y-81277170D01*
X184038544Y-81268215D01*
X184059577Y-81231785D01*
X184081629Y-81149485D01*
X184100501Y-81079057D01*
X184100501Y-80920942D01*
X184059577Y-80768215D01*
X183980520Y-80631284D01*
X183868716Y-80519480D01*
X183868715Y-80519479D01*
X183864385Y-80515149D01*
X183864374Y-80515139D01*
X183686819Y-80337584D01*
X183653334Y-80276261D01*
X183650500Y-80249903D01*
X183650500Y-77036201D01*
X183650500Y-77036199D01*
X183624837Y-76940423D01*
X183609577Y-76883471D01*
X183553560Y-76786447D01*
X183530520Y-76746540D01*
X183418716Y-76634736D01*
X183418713Y-76634734D01*
X182212159Y-75428180D01*
X182178674Y-75366857D01*
X182183658Y-75297165D01*
X182225530Y-75241232D01*
X182290994Y-75216815D01*
X182299840Y-75216499D01*
X182383871Y-75216499D01*
X182383872Y-75216499D01*
X182443483Y-75210091D01*
X182578331Y-75159796D01*
X182693546Y-75073546D01*
X182779796Y-74958331D01*
X182830091Y-74823483D01*
X182836500Y-74763873D01*
X182836499Y-74136128D01*
X182830091Y-74076517D01*
X182808388Y-74018331D01*
X182803405Y-73948641D01*
X182808384Y-73931679D01*
X182830091Y-73873483D01*
X182836500Y-73813873D01*
X182836499Y-73186128D01*
X182830091Y-73126517D01*
X182808388Y-73068331D01*
X182803405Y-72998641D01*
X182808384Y-72981679D01*
X182830091Y-72923483D01*
X182836500Y-72863873D01*
X182836499Y-72236128D01*
X182830091Y-72176517D01*
X182828775Y-72172989D01*
X182779797Y-72041671D01*
X182779793Y-72041664D01*
X182693547Y-71926455D01*
X182693544Y-71926452D01*
X182578335Y-71840206D01*
X182578328Y-71840202D01*
X182443482Y-71789908D01*
X182443483Y-71789908D01*
X182383883Y-71783501D01*
X182383881Y-71783500D01*
X182383873Y-71783500D01*
X182383864Y-71783500D01*
X181216129Y-71783500D01*
X181216123Y-71783501D01*
X181156516Y-71789908D01*
X181110732Y-71806985D01*
X181041040Y-71811969D01*
X180979719Y-71778484D01*
X178899590Y-69698355D01*
X178899588Y-69698352D01*
X178780717Y-69579481D01*
X178780716Y-69579480D01*
X178693904Y-69529360D01*
X178693904Y-69529359D01*
X178693900Y-69529358D01*
X178643785Y-69500423D01*
X178491057Y-69459499D01*
X178332943Y-69459499D01*
X178325347Y-69459499D01*
X178325331Y-69459500D01*
X173400579Y-69459500D01*
X173242464Y-69459500D01*
X173089737Y-69500423D01*
X173089736Y-69500423D01*
X173089734Y-69500424D01*
X173089731Y-69500425D01*
X173039618Y-69529359D01*
X173039617Y-69529360D01*
X172996211Y-69554420D01*
X172952807Y-69579479D01*
X172952804Y-69579481D01*
X170569481Y-71962804D01*
X170569475Y-71962812D01*
X170530158Y-72030913D01*
X170530158Y-72030914D01*
X170490423Y-72099737D01*
X170449499Y-72252465D01*
X170449499Y-72252467D01*
X170449499Y-72420568D01*
X170449500Y-72420581D01*
X170449500Y-76728890D01*
X170429815Y-76795929D01*
X170377011Y-76841684D01*
X170307853Y-76851628D01*
X170287182Y-76846821D01*
X170101372Y-76786447D01*
X170101369Y-76786447D01*
X169868097Y-76749500D01*
X169868092Y-76749500D01*
X169631908Y-76749500D01*
X169631903Y-76749500D01*
X169398631Y-76786446D01*
X169174003Y-76859433D01*
X168963566Y-76966657D01*
X168875466Y-77030666D01*
X168772490Y-77105483D01*
X168772488Y-77105485D01*
X168772487Y-77105485D01*
X168605485Y-77272487D01*
X168605485Y-77272488D01*
X168605483Y-77272490D01*
X168562525Y-77331616D01*
X168466657Y-77463566D01*
X168406417Y-77581795D01*
X168358442Y-77632591D01*
X168295932Y-77649500D01*
X164704068Y-77649500D01*
X164637029Y-77629815D01*
X164593583Y-77581795D01*
X164584825Y-77564606D01*
X164533343Y-77463567D01*
X164394517Y-77272490D01*
X164227510Y-77105483D01*
X164036433Y-76966657D01*
X163825996Y-76859433D01*
X163601368Y-76786446D01*
X163368097Y-76749500D01*
X163368092Y-76749500D01*
X163131908Y-76749500D01*
X163131903Y-76749500D01*
X162898628Y-76786447D01*
X162772433Y-76827450D01*
X162702592Y-76829445D01*
X162646435Y-76797200D01*
X159941791Y-74092556D01*
X159909697Y-74036969D01*
X159884577Y-73943216D01*
X159844317Y-73873483D01*
X159805524Y-73806290D01*
X159805518Y-73806282D01*
X159693717Y-73694481D01*
X159693709Y-73694475D01*
X159556790Y-73615426D01*
X159556786Y-73615424D01*
X159556784Y-73615423D01*
X159404057Y-73574500D01*
X159404056Y-73574500D01*
X156574063Y-73574500D01*
X156507024Y-73554815D01*
X156461269Y-73502011D01*
X156451325Y-73432853D01*
X156475690Y-73375010D01*
X156480517Y-73368718D01*
X156480520Y-73368716D01*
X156480521Y-73368712D01*
X156480524Y-73368710D01*
X156522789Y-73295503D01*
X156559577Y-73231784D01*
X156600501Y-73079057D01*
X156600501Y-72920942D01*
X156600501Y-72920095D01*
X156609145Y-72890654D01*
X156615669Y-72860668D01*
X156619423Y-72855652D01*
X156620186Y-72853056D01*
X156636816Y-72832418D01*
X156792416Y-72676817D01*
X156853739Y-72643333D01*
X156877071Y-72640824D01*
X156877064Y-72640676D01*
X156879825Y-72640528D01*
X156880097Y-72640499D01*
X156880371Y-72640499D01*
X156880372Y-72640499D01*
X156939983Y-72634091D01*
X157074831Y-72583796D01*
X157190046Y-72497546D01*
X157236574Y-72435393D01*
X157262929Y-72400188D01*
X157318862Y-72358317D01*
X157362195Y-72350499D01*
X158007871Y-72350499D01*
X158007872Y-72350499D01*
X158067483Y-72344091D01*
X158202331Y-72293796D01*
X158317546Y-72207546D01*
X158330541Y-72190187D01*
X158386475Y-72148317D01*
X158429807Y-72140499D01*
X158760371Y-72140499D01*
X158760372Y-72140499D01*
X158819983Y-72134091D01*
X158954831Y-72083796D01*
X159070046Y-71997546D01*
X159156296Y-71882331D01*
X159206591Y-71747483D01*
X159213000Y-71687873D01*
X159212999Y-71312128D01*
X159207745Y-71263252D01*
X159207745Y-71236746D01*
X159213000Y-71187873D01*
X159212999Y-70812128D01*
X159206591Y-70752517D01*
X159206421Y-70752062D01*
X159156297Y-70617671D01*
X159156293Y-70617664D01*
X159070047Y-70502455D01*
X159070044Y-70502452D01*
X158954835Y-70416206D01*
X158954828Y-70416202D01*
X158819982Y-70365908D01*
X158819983Y-70365908D01*
X158760383Y-70359501D01*
X158760381Y-70359500D01*
X158760373Y-70359500D01*
X158760365Y-70359500D01*
X158429806Y-70359500D01*
X158362767Y-70339815D01*
X158330540Y-70309812D01*
X158317546Y-70292454D01*
X158317542Y-70292451D01*
X158202335Y-70206206D01*
X158202328Y-70206202D01*
X158067482Y-70155908D01*
X158067483Y-70155908D01*
X158007883Y-70149501D01*
X158007881Y-70149500D01*
X158007873Y-70149500D01*
X158007865Y-70149500D01*
X157362194Y-70149500D01*
X157295155Y-70129815D01*
X157262927Y-70099811D01*
X157190046Y-70002454D01*
X157160746Y-69980520D01*
X157074835Y-69916206D01*
X157074828Y-69916202D01*
X156939982Y-69865908D01*
X156939983Y-69865908D01*
X156880383Y-69859501D01*
X156880381Y-69859500D01*
X156880373Y-69859500D01*
X156880365Y-69859500D01*
X156880097Y-69859500D01*
X156880037Y-69859482D01*
X156877048Y-69859322D01*
X156877085Y-69858615D01*
X156813058Y-69839815D01*
X156792416Y-69823181D01*
X156107590Y-69138355D01*
X156107588Y-69138352D01*
X155988717Y-69019481D01*
X155988716Y-69019480D01*
X155901904Y-68969360D01*
X155901904Y-68969359D01*
X155901900Y-68969358D01*
X155851785Y-68940423D01*
X155699057Y-68899499D01*
X155540943Y-68899499D01*
X155533347Y-68899499D01*
X155533331Y-68899500D01*
X153300097Y-68899500D01*
X153233058Y-68879815D01*
X153212416Y-68863181D01*
X151136819Y-66787584D01*
X151103334Y-66726261D01*
X151100500Y-66699903D01*
X151100500Y-60089060D01*
X151100501Y-60089047D01*
X151100501Y-59920944D01*
X151059576Y-59768214D01*
X151059573Y-59768209D01*
X150980524Y-59631290D01*
X150980518Y-59631282D01*
X150136819Y-58787583D01*
X150122115Y-58760655D01*
X150105523Y-58734837D01*
X150104631Y-58728636D01*
X150103334Y-58726260D01*
X150100500Y-58699902D01*
X150100500Y-58589060D01*
X150100501Y-58589047D01*
X150100501Y-58420944D01*
X150059576Y-58268214D01*
X150059573Y-58268209D01*
X149980524Y-58131290D01*
X149980518Y-58131282D01*
X149368717Y-57519481D01*
X149368716Y-57519480D01*
X149281904Y-57469360D01*
X149281904Y-57469359D01*
X149281900Y-57469358D01*
X149231785Y-57440423D01*
X149079057Y-57399499D01*
X148920943Y-57399499D01*
X148913347Y-57399499D01*
X148913331Y-57399500D01*
X137851118Y-57399500D01*
X137851102Y-57399499D01*
X137843506Y-57399499D01*
X137685391Y-57399499D01*
X137532663Y-57440423D01*
X137532661Y-57440423D01*
X137532661Y-57440424D01*
X137395729Y-57519482D01*
X134744481Y-60170730D01*
X134744477Y-60170735D01*
X134731887Y-60192543D01*
X134681320Y-60240759D01*
X134612713Y-60253982D01*
X134547848Y-60228014D01*
X134507320Y-60171099D01*
X134500500Y-60130543D01*
X134500500Y-55624500D01*
X134520185Y-55557461D01*
X134572989Y-55511706D01*
X134624500Y-55500500D01*
X185375500Y-55500500D01*
X185442539Y-55520185D01*
G37*
%TD.AperFunction*%
%TA.AperFunction,Conductor*%
G36*
X142498763Y-72930000D02*
G01*
X142519912Y-72929652D01*
X142533478Y-72937551D01*
X142546365Y-72940354D01*
X142574620Y-72961504D01*
X142588352Y-72975235D01*
X144152491Y-74539374D01*
X144152501Y-74539385D01*
X144156831Y-74543715D01*
X144156832Y-74543716D01*
X144268636Y-74655520D01*
X144334794Y-74693716D01*
X144405567Y-74734577D01*
X144558295Y-74775500D01*
X144716409Y-74775500D01*
X158874902Y-74775500D01*
X158904303Y-74784133D01*
X158934258Y-74790629D01*
X158939318Y-74794415D01*
X158941941Y-74795185D01*
X158944404Y-74797168D01*
X158944454Y-74797095D01*
X158944457Y-74797097D01*
X158952312Y-74803537D01*
X158962526Y-74811762D01*
X158963298Y-74812533D01*
X158963299Y-74812535D01*
X158963349Y-74812585D01*
X158963355Y-74812590D01*
X161797200Y-77646435D01*
X161830685Y-77707758D01*
X161827450Y-77772433D01*
X161786447Y-77898628D01*
X161749500Y-78131902D01*
X161749500Y-78368097D01*
X161786446Y-78601368D01*
X161859433Y-78825996D01*
X161908854Y-78922989D01*
X161966657Y-79036433D01*
X162105483Y-79227510D01*
X162272490Y-79394517D01*
X162463567Y-79533343D01*
X162562991Y-79584002D01*
X162674003Y-79640566D01*
X162674005Y-79640566D01*
X162674008Y-79640568D01*
X162794412Y-79679689D01*
X162898631Y-79713553D01*
X163131903Y-79750500D01*
X163131908Y-79750500D01*
X163368097Y-79750500D01*
X163601368Y-79713553D01*
X163825992Y-79640568D01*
X164036433Y-79533343D01*
X164227510Y-79394517D01*
X164394517Y-79227510D01*
X164533343Y-79036433D01*
X164593583Y-78918204D01*
X164641558Y-78867409D01*
X164704068Y-78850500D01*
X165516628Y-78850500D01*
X165583667Y-78870185D01*
X165629422Y-78922989D01*
X165639366Y-78992147D01*
X165610341Y-79055703D01*
X165602060Y-79063506D01*
X165602287Y-79063733D01*
X163519481Y-81146538D01*
X163519477Y-81146543D01*
X163495420Y-81188214D01*
X163495419Y-81188216D01*
X163440423Y-81283471D01*
X163399499Y-81436199D01*
X163399499Y-81436201D01*
X163399499Y-81604302D01*
X163399500Y-81604315D01*
X163399500Y-84027109D01*
X163379815Y-84094148D01*
X163363181Y-84114790D01*
X162824214Y-84653756D01*
X162824215Y-84653757D01*
X162719478Y-84758494D01*
X162719475Y-84758498D01*
X162684463Y-84819142D01*
X162684461Y-84819146D01*
X162679524Y-84827698D01*
X162640423Y-84895423D01*
X162605306Y-85026478D01*
X162603028Y-85032446D01*
X162590266Y-85049223D01*
X162574864Y-85075900D01*
X158487584Y-89163181D01*
X158426261Y-89196666D01*
X158399903Y-89199500D01*
X157887000Y-89199500D01*
X157819961Y-89179815D01*
X157774206Y-89127011D01*
X157763000Y-89075500D01*
X157763000Y-88987596D01*
X157782685Y-88920557D01*
X157799314Y-88899920D01*
X160858506Y-85840727D01*
X160858511Y-85840724D01*
X160868714Y-85830520D01*
X160868716Y-85830520D01*
X160980520Y-85718716D01*
X161036969Y-85620942D01*
X161059577Y-85581785D01*
X161100501Y-85429057D01*
X161100501Y-85270943D01*
X161100501Y-85263348D01*
X161100500Y-85263330D01*
X161100500Y-84834841D01*
X161109143Y-84805404D01*
X161115667Y-84775415D01*
X161119422Y-84770398D01*
X161120185Y-84767802D01*
X161136818Y-84747161D01*
X161183503Y-84700475D01*
X161183508Y-84700471D01*
X161193714Y-84690264D01*
X161193716Y-84690264D01*
X161305520Y-84578460D01*
X161379931Y-84449576D01*
X161384577Y-84441529D01*
X161425500Y-84288802D01*
X161425500Y-84130687D01*
X161425500Y-82711199D01*
X161425229Y-82710185D01*
X161384577Y-82558471D01*
X161351044Y-82500390D01*
X161305520Y-82421540D01*
X161193716Y-82309736D01*
X161193715Y-82309735D01*
X161189385Y-82305405D01*
X161189374Y-82305395D01*
X160997334Y-82113355D01*
X160997332Y-82113352D01*
X160878461Y-81994481D01*
X160878460Y-81994480D01*
X160791648Y-81944360D01*
X160791648Y-81944359D01*
X160791644Y-81944358D01*
X160741529Y-81915423D01*
X160588801Y-81874499D01*
X160430687Y-81874499D01*
X160423091Y-81874499D01*
X160423075Y-81874500D01*
X159619313Y-81874500D01*
X159461198Y-81874500D01*
X159308471Y-81915423D01*
X159308470Y-81915423D01*
X159308468Y-81915424D01*
X159308465Y-81915425D01*
X159258352Y-81944359D01*
X159258351Y-81944360D01*
X159225435Y-81963364D01*
X159171541Y-81994479D01*
X159171538Y-81994481D01*
X159059734Y-82106286D01*
X158863660Y-82302359D01*
X158802337Y-82335844D01*
X158732645Y-82330860D01*
X158676712Y-82288988D01*
X158668604Y-82276696D01*
X158630520Y-82210732D01*
X158518716Y-82098928D01*
X158518715Y-82098927D01*
X158514385Y-82094597D01*
X158514374Y-82094587D01*
X158231968Y-81812181D01*
X158221355Y-81792744D01*
X158206855Y-81776011D01*
X158204938Y-81762679D01*
X158198483Y-81750858D01*
X158200062Y-81728771D01*
X158196911Y-81706853D01*
X158202506Y-81694601D01*
X158203467Y-81681166D01*
X158216737Y-81663439D01*
X158225936Y-81643297D01*
X158237267Y-81636014D01*
X158245339Y-81625233D01*
X158266084Y-81617495D01*
X158284714Y-81605523D01*
X158306632Y-81602371D01*
X158310803Y-81600816D01*
X158319649Y-81600500D01*
X158413331Y-81600500D01*
X158413347Y-81600501D01*
X158420943Y-81600501D01*
X158579054Y-81600501D01*
X158579057Y-81600501D01*
X158731785Y-81559577D01*
X158801233Y-81519481D01*
X158868716Y-81480520D01*
X158980520Y-81368716D01*
X158980520Y-81368714D01*
X158990724Y-81358511D01*
X158990727Y-81358506D01*
X160980519Y-79368716D01*
X161059577Y-79231785D01*
X161100500Y-79079057D01*
X161100500Y-78920943D01*
X161099767Y-78918205D01*
X161096367Y-78905519D01*
X161096366Y-78905516D01*
X161075058Y-78825993D01*
X161075058Y-78825992D01*
X161059577Y-78768215D01*
X160980519Y-78631284D01*
X160868716Y-78519481D01*
X159487590Y-77138355D01*
X159487588Y-77138352D01*
X159368717Y-77019481D01*
X159368716Y-77019480D01*
X159277223Y-76966657D01*
X159231785Y-76940423D01*
X159079057Y-76899499D01*
X158920943Y-76899499D01*
X158913347Y-76899499D01*
X158913331Y-76899500D01*
X151586670Y-76899500D01*
X151586654Y-76899499D01*
X151579058Y-76899499D01*
X151420943Y-76899499D01*
X151344579Y-76919961D01*
X151268214Y-76940423D01*
X151268209Y-76940426D01*
X151131290Y-77019475D01*
X151131281Y-77019482D01*
X151112178Y-77038585D01*
X151050855Y-77072069D01*
X150981163Y-77067083D01*
X150925230Y-77025210D01*
X150900815Y-76959746D01*
X150900499Y-76950902D01*
X150900499Y-76652129D01*
X150900498Y-76652123D01*
X150894091Y-76592516D01*
X150843797Y-76457671D01*
X150843793Y-76457664D01*
X150757547Y-76342455D01*
X150757544Y-76342452D01*
X150642335Y-76256206D01*
X150642328Y-76256202D01*
X150507482Y-76205908D01*
X150507483Y-76205908D01*
X150447883Y-76199501D01*
X150447881Y-76199500D01*
X150447873Y-76199500D01*
X150447864Y-76199500D01*
X149252129Y-76199500D01*
X149252123Y-76199501D01*
X149192516Y-76205908D01*
X149057671Y-76256202D01*
X149057664Y-76256206D01*
X148942455Y-76342452D01*
X148942452Y-76342455D01*
X148856206Y-76457664D01*
X148856202Y-76457671D01*
X148805910Y-76592513D01*
X148805909Y-76592517D01*
X148799500Y-76652127D01*
X148799500Y-76652134D01*
X148799500Y-76652135D01*
X148799500Y-77347870D01*
X148799501Y-77347876D01*
X148805909Y-77407484D01*
X148814929Y-77431670D01*
X148819911Y-77501361D01*
X148814929Y-77518330D01*
X148805910Y-77542512D01*
X148805909Y-77542515D01*
X148805909Y-77542517D01*
X148799500Y-77602127D01*
X148799500Y-77602134D01*
X148799500Y-77602135D01*
X148799500Y-78297870D01*
X148799501Y-78297876D01*
X148805908Y-78357483D01*
X148856202Y-78492328D01*
X148856206Y-78492335D01*
X148942452Y-78607544D01*
X148942455Y-78607547D01*
X149057664Y-78693793D01*
X149057671Y-78693797D01*
X149074351Y-78700018D01*
X149192517Y-78744091D01*
X149252127Y-78750500D01*
X149350903Y-78750499D01*
X149417940Y-78770183D01*
X149463696Y-78822986D01*
X149473640Y-78892145D01*
X149444616Y-78955701D01*
X149438583Y-78962180D01*
X149131286Y-79269478D01*
X149019481Y-79381282D01*
X149019479Y-79381285D01*
X148969361Y-79468094D01*
X148969359Y-79468096D01*
X148940425Y-79518209D01*
X148940424Y-79518210D01*
X148936369Y-79533343D01*
X148899499Y-79670943D01*
X148899499Y-79670945D01*
X148899499Y-79839046D01*
X148899500Y-79839059D01*
X148899500Y-79913330D01*
X148899499Y-79913348D01*
X148899499Y-80079054D01*
X148899498Y-80079054D01*
X148922996Y-80166749D01*
X148940423Y-80231785D01*
X148956045Y-80258842D01*
X148975850Y-80293145D01*
X149019479Y-80368715D01*
X149138349Y-80487585D01*
X149138354Y-80487589D01*
X149813084Y-81162319D01*
X149846568Y-81223641D01*
X149841584Y-81293333D01*
X149813083Y-81337680D01*
X149634697Y-81516066D01*
X149634691Y-81516072D01*
X149631286Y-81519478D01*
X149631284Y-81519480D01*
X149519480Y-81631284D01*
X149490613Y-81681284D01*
X149484895Y-81691187D01*
X149484893Y-81691190D01*
X149450444Y-81750858D01*
X149440423Y-81768215D01*
X149399499Y-81920943D01*
X149399499Y-81920945D01*
X149399499Y-82089046D01*
X149399500Y-82089059D01*
X149399500Y-83199901D01*
X149379815Y-83266940D01*
X149363181Y-83287582D01*
X149087680Y-83563083D01*
X149026357Y-83596568D01*
X148956665Y-83591584D01*
X148912318Y-83563083D01*
X147636818Y-82287583D01*
X147603333Y-82226260D01*
X147600499Y-82199902D01*
X147600499Y-81674998D01*
X147600498Y-81674981D01*
X147589999Y-81572203D01*
X147589998Y-81572200D01*
X147574911Y-81526671D01*
X147534814Y-81405666D01*
X147442712Y-81256344D01*
X147318656Y-81132288D01*
X147169334Y-81040186D01*
X147002797Y-80985001D01*
X147002795Y-80985000D01*
X146900010Y-80974500D01*
X146299998Y-80974500D01*
X146299980Y-80974501D01*
X146197203Y-80985000D01*
X146197200Y-80985001D01*
X146030668Y-81040185D01*
X146030663Y-81040187D01*
X145881342Y-81132289D01*
X145757289Y-81256342D01*
X145665187Y-81405663D01*
X145665185Y-81405668D01*
X145650914Y-81448735D01*
X145610001Y-81572203D01*
X145610001Y-81572204D01*
X145610000Y-81572204D01*
X145599500Y-81674983D01*
X145599500Y-82275500D01*
X145579815Y-82342539D01*
X145527011Y-82388294D01*
X145475500Y-82399500D01*
X144300097Y-82399500D01*
X144233058Y-82379815D01*
X144212416Y-82363181D01*
X143687590Y-81838355D01*
X143687588Y-81838352D01*
X143568717Y-81719481D01*
X143568716Y-81719480D01*
X143480214Y-81668384D01*
X143480213Y-81668383D01*
X143431783Y-81640422D01*
X143375096Y-81625233D01*
X143279057Y-81599499D01*
X143279054Y-81599499D01*
X143268756Y-81599499D01*
X143201717Y-81579814D01*
X143162024Y-81538620D01*
X143138083Y-81498138D01*
X143138076Y-81498129D01*
X143021870Y-81381923D01*
X143021862Y-81381917D01*
X142880396Y-81298255D01*
X142880393Y-81298254D01*
X142722573Y-81252402D01*
X142722567Y-81252401D01*
X142685701Y-81249500D01*
X142685694Y-81249500D01*
X142289007Y-81249500D01*
X142221968Y-81229815D01*
X142176213Y-81177011D01*
X142166269Y-81107853D01*
X142195294Y-81044297D01*
X142220116Y-81022398D01*
X142270872Y-80988483D01*
X142317782Y-80957139D01*
X142457139Y-80817782D01*
X142566632Y-80653914D01*
X142642051Y-80471835D01*
X142654632Y-80408582D01*
X142680500Y-80278543D01*
X142680500Y-80081456D01*
X142642052Y-79888170D01*
X142642051Y-79888169D01*
X142642051Y-79888165D01*
X142636598Y-79874999D01*
X142566635Y-79706092D01*
X142566628Y-79706079D01*
X142457139Y-79542218D01*
X142457136Y-79542214D01*
X142317785Y-79402863D01*
X142317781Y-79402860D01*
X142153920Y-79293371D01*
X142153907Y-79293364D01*
X141971839Y-79217950D01*
X141971829Y-79217947D01*
X141778543Y-79179500D01*
X141778541Y-79179500D01*
X140481459Y-79179500D01*
X140481457Y-79179500D01*
X140288170Y-79217947D01*
X140288160Y-79217950D01*
X140106092Y-79293364D01*
X140106079Y-79293371D01*
X139942218Y-79402860D01*
X139942214Y-79402863D01*
X139802863Y-79542214D01*
X139802860Y-79542218D01*
X139693371Y-79706079D01*
X139693364Y-79706092D01*
X139617950Y-79888160D01*
X139617947Y-79888170D01*
X139579500Y-80081456D01*
X139579500Y-80081459D01*
X139579500Y-80278541D01*
X139579500Y-80278543D01*
X139579499Y-80278543D01*
X139617947Y-80471829D01*
X139617950Y-80471839D01*
X139693364Y-80653907D01*
X139693371Y-80653920D01*
X139802860Y-80817781D01*
X139802863Y-80817785D01*
X139942214Y-80957136D01*
X139942218Y-80957139D01*
X140111151Y-81070017D01*
X140110180Y-81071470D01*
X140154109Y-81114619D01*
X140169571Y-81182757D01*
X140145741Y-81248437D01*
X140144190Y-81250502D01*
X140139489Y-81256627D01*
X140063719Y-81387863D01*
X140034172Y-81498138D01*
X140024500Y-81534234D01*
X140024500Y-81685766D01*
X140033533Y-81719479D01*
X140063719Y-81832136D01*
X140101602Y-81897750D01*
X140139485Y-81963365D01*
X140246635Y-82070515D01*
X140246638Y-82070517D01*
X140249671Y-82072844D01*
X140251584Y-82075464D01*
X140252382Y-82076262D01*
X140252257Y-82076386D01*
X140259758Y-82086659D01*
X140273450Y-82096909D01*
X140279932Y-82114289D01*
X140290873Y-82129273D01*
X140291889Y-82146348D01*
X140297867Y-82162373D01*
X140293923Y-82180498D01*
X140295027Y-82199019D01*
X140286575Y-82214279D01*
X140283015Y-82230646D01*
X140261864Y-82258900D01*
X140087680Y-82433084D01*
X140026357Y-82466569D01*
X139956665Y-82461585D01*
X139912318Y-82433084D01*
X138686819Y-81207585D01*
X138653334Y-81146262D01*
X138650500Y-81119904D01*
X138650500Y-78786431D01*
X138670185Y-78719392D01*
X138722989Y-78673637D01*
X138792147Y-78663693D01*
X138848813Y-78687166D01*
X138857669Y-78693796D01*
X138857670Y-78693796D01*
X138857671Y-78693797D01*
X138992517Y-78744091D01*
X138992516Y-78744091D01*
X138999444Y-78744835D01*
X139052127Y-78750500D01*
X140247872Y-78750499D01*
X140307483Y-78744091D01*
X140442331Y-78693796D01*
X140557546Y-78607546D01*
X140643796Y-78492331D01*
X140694091Y-78357483D01*
X140700500Y-78297873D01*
X140700499Y-77602128D01*
X140694091Y-77542517D01*
X140685070Y-77518333D01*
X140680085Y-77448644D01*
X140685066Y-77431677D01*
X140694091Y-77407483D01*
X140700500Y-77347873D01*
X140700499Y-76652128D01*
X140694091Y-76592517D01*
X140685070Y-76568333D01*
X140680085Y-76498644D01*
X140685066Y-76481677D01*
X140694091Y-76457483D01*
X140700500Y-76397873D01*
X140700499Y-75702128D01*
X140700499Y-75702127D01*
X141299500Y-75702127D01*
X141299500Y-75702134D01*
X141299500Y-75702135D01*
X141299500Y-76397870D01*
X141299501Y-76397876D01*
X141305909Y-76457484D01*
X141314929Y-76481670D01*
X141319911Y-76551361D01*
X141314929Y-76568330D01*
X141305910Y-76592512D01*
X141305910Y-76592513D01*
X141305909Y-76592517D01*
X141299500Y-76652127D01*
X141299500Y-76652134D01*
X141299500Y-76652135D01*
X141299500Y-77347870D01*
X141299501Y-77347876D01*
X141305909Y-77407484D01*
X141314929Y-77431670D01*
X141319911Y-77501361D01*
X141314929Y-77518330D01*
X141305910Y-77542512D01*
X141305909Y-77542515D01*
X141305909Y-77542517D01*
X141299500Y-77602127D01*
X141299500Y-77602134D01*
X141299500Y-77602135D01*
X141299500Y-78297870D01*
X141299501Y-78297876D01*
X141305908Y-78357483D01*
X141356202Y-78492328D01*
X141356206Y-78492335D01*
X141442452Y-78607544D01*
X141442455Y-78607547D01*
X141557664Y-78693793D01*
X141557671Y-78693797D01*
X141692517Y-78744091D01*
X141692516Y-78744091D01*
X141699444Y-78744835D01*
X141752127Y-78750500D01*
X142947872Y-78750499D01*
X143007483Y-78744091D01*
X143142331Y-78693796D01*
X143257546Y-78607546D01*
X143263052Y-78600191D01*
X143318985Y-78558319D01*
X143362320Y-78550500D01*
X146137680Y-78550500D01*
X146204719Y-78570185D01*
X146236948Y-78600191D01*
X146242454Y-78607546D01*
X146242457Y-78607548D01*
X146357664Y-78693793D01*
X146357671Y-78693797D01*
X146492517Y-78744091D01*
X146492516Y-78744091D01*
X146499444Y-78744835D01*
X146552127Y-78750500D01*
X147747872Y-78750499D01*
X147807483Y-78744091D01*
X147942331Y-78693796D01*
X148057546Y-78607546D01*
X148143796Y-78492331D01*
X148194091Y-78357483D01*
X148200500Y-78297873D01*
X148200499Y-77602128D01*
X148194091Y-77542517D01*
X148185070Y-77518333D01*
X148180085Y-77448644D01*
X148185066Y-77431677D01*
X148194091Y-77407483D01*
X148200500Y-77347873D01*
X148200499Y-76652128D01*
X148194091Y-76592517D01*
X148185070Y-76568333D01*
X148180085Y-76498644D01*
X148185066Y-76481677D01*
X148194091Y-76457483D01*
X148200500Y-76397873D01*
X148200499Y-75702128D01*
X148194091Y-75642517D01*
X148191773Y-75636303D01*
X148143797Y-75507671D01*
X148143793Y-75507664D01*
X148057547Y-75392455D01*
X148057544Y-75392452D01*
X147942335Y-75306206D01*
X147942328Y-75306202D01*
X147807482Y-75255908D01*
X147807483Y-75255908D01*
X147747883Y-75249501D01*
X147747881Y-75249500D01*
X147747873Y-75249500D01*
X147747864Y-75249500D01*
X146552129Y-75249500D01*
X146552123Y-75249501D01*
X146492516Y-75255908D01*
X146357671Y-75306202D01*
X146357664Y-75306206D01*
X146242457Y-75392451D01*
X146242451Y-75392457D01*
X146236948Y-75399809D01*
X146181015Y-75441681D01*
X146137680Y-75449500D01*
X143362320Y-75449500D01*
X143295281Y-75429815D01*
X143263052Y-75399809D01*
X143257548Y-75392457D01*
X143257546Y-75392454D01*
X143241484Y-75380430D01*
X143142335Y-75306206D01*
X143142328Y-75306202D01*
X143007482Y-75255908D01*
X143007483Y-75255908D01*
X142947883Y-75249501D01*
X142947881Y-75249500D01*
X142947873Y-75249500D01*
X142947864Y-75249500D01*
X141752129Y-75249500D01*
X141752123Y-75249501D01*
X141692516Y-75255908D01*
X141557671Y-75306202D01*
X141557664Y-75306206D01*
X141442455Y-75392452D01*
X141442452Y-75392455D01*
X141356206Y-75507664D01*
X141356202Y-75507671D01*
X141305911Y-75642511D01*
X141305909Y-75642517D01*
X141299500Y-75702127D01*
X140700499Y-75702127D01*
X140694091Y-75642517D01*
X140691773Y-75636303D01*
X140643797Y-75507671D01*
X140643793Y-75507664D01*
X140557547Y-75392455D01*
X140557544Y-75392452D01*
X140442335Y-75306206D01*
X140442328Y-75306202D01*
X140307482Y-75255908D01*
X140307483Y-75255908D01*
X140247883Y-75249501D01*
X140247881Y-75249500D01*
X140247873Y-75249500D01*
X140247865Y-75249500D01*
X139865602Y-75249500D01*
X139798563Y-75229815D01*
X139752808Y-75177011D01*
X139742864Y-75107853D01*
X139771889Y-75044297D01*
X139803597Y-75018116D01*
X139820297Y-75008473D01*
X139820301Y-75008473D01*
X139868709Y-74980524D01*
X139868708Y-74980524D01*
X139868716Y-74980520D01*
X139980520Y-74868716D01*
X139980520Y-74868714D01*
X139990724Y-74858511D01*
X139990727Y-74858506D01*
X141837416Y-73011819D01*
X141898739Y-72978334D01*
X141925097Y-72975500D01*
X142256613Y-72975500D01*
X142256616Y-72975500D01*
X142327196Y-72969086D01*
X142450052Y-72930802D01*
X142464525Y-72930564D01*
X142478091Y-72925504D01*
X142498763Y-72930000D01*
G37*
%TD.AperFunction*%
%TA.AperFunction,Conductor*%
G36*
X150368834Y-84082915D02*
G01*
X150424767Y-84124787D01*
X150449184Y-84190251D01*
X150449500Y-84199097D01*
X150449500Y-84405701D01*
X150452401Y-84442567D01*
X150452402Y-84442573D01*
X150498254Y-84600393D01*
X150498255Y-84600396D01*
X150498256Y-84600398D01*
X150517578Y-84633070D01*
X150581917Y-84741862D01*
X150581923Y-84741870D01*
X150698129Y-84858076D01*
X150698133Y-84858079D01*
X150698135Y-84858081D01*
X150839602Y-84941744D01*
X150881224Y-84953836D01*
X150997426Y-84987597D01*
X150997429Y-84987597D01*
X150997431Y-84987598D01*
X151034306Y-84990500D01*
X152570501Y-84990500D01*
X152637540Y-85010185D01*
X152683295Y-85062989D01*
X152694501Y-85114500D01*
X152694501Y-85805500D01*
X152674816Y-85872539D01*
X152622012Y-85918294D01*
X152570501Y-85929500D01*
X151330097Y-85929500D01*
X151263058Y-85909815D01*
X151242416Y-85893181D01*
X149936916Y-84587681D01*
X149903431Y-84526358D01*
X149908415Y-84456666D01*
X149936916Y-84412319D01*
X150237819Y-84111416D01*
X150299142Y-84077931D01*
X150368834Y-84082915D01*
G37*
%TD.AperFunction*%
%TA.AperFunction,Conductor*%
G36*
X154721942Y-81620185D02*
G01*
X154742584Y-81636819D01*
X155442345Y-82336580D01*
X155450955Y-82352348D01*
X155463634Y-82365086D01*
X155467354Y-82382380D01*
X155475830Y-82397903D01*
X155474548Y-82415825D01*
X155478327Y-82433393D01*
X155470866Y-82467311D01*
X155470846Y-82467595D01*
X155470768Y-82467758D01*
X155470745Y-82467863D01*
X155466924Y-82478034D01*
X155448256Y-82509602D01*
X155425001Y-82589645D01*
X155423327Y-82594102D01*
X155405066Y-82618378D01*
X155388715Y-82643981D01*
X155384268Y-82646026D01*
X155381326Y-82649939D01*
X155352835Y-82660490D01*
X155325242Y-82673187D01*
X155320395Y-82672504D01*
X155315806Y-82674204D01*
X155307246Y-82674500D01*
X153147129Y-82674500D01*
X153147123Y-82674501D01*
X153087516Y-82680908D01*
X152952671Y-82731202D01*
X152952664Y-82731206D01*
X152837455Y-82817452D01*
X152837452Y-82817455D01*
X152751206Y-82932664D01*
X152751202Y-82932671D01*
X152700908Y-83067517D01*
X152694501Y-83127116D01*
X152694500Y-83127135D01*
X152694500Y-83265500D01*
X152674815Y-83332539D01*
X152622011Y-83378294D01*
X152570500Y-83389500D01*
X151034298Y-83389500D01*
X150997432Y-83392401D01*
X150997426Y-83392402D01*
X150839606Y-83438254D01*
X150839605Y-83438254D01*
X150787620Y-83468998D01*
X150719896Y-83486180D01*
X150653634Y-83464019D01*
X150609871Y-83409553D01*
X150600500Y-83362265D01*
X150600500Y-82300097D01*
X150620185Y-82233058D01*
X150636819Y-82212416D01*
X151212417Y-81636819D01*
X151273740Y-81603334D01*
X151300098Y-81600500D01*
X154654903Y-81600500D01*
X154721942Y-81620185D01*
G37*
%TD.AperFunction*%
%TA.AperFunction,Conductor*%
G36*
X177817941Y-72120185D02*
G01*
X177863696Y-72172989D01*
X177873640Y-72242147D01*
X177844615Y-72305703D01*
X177838583Y-72312181D01*
X177519481Y-72631282D01*
X177519475Y-72631290D01*
X177482405Y-72695499D01*
X177482405Y-72695500D01*
X177440423Y-72768215D01*
X177399499Y-72920943D01*
X177399499Y-72920945D01*
X177399499Y-73089046D01*
X177399500Y-73089059D01*
X177399500Y-74413330D01*
X177399499Y-74413348D01*
X177399499Y-74579054D01*
X177399498Y-74579054D01*
X177440423Y-74731786D01*
X177456559Y-74759732D01*
X177456560Y-74759737D01*
X177456562Y-74759737D01*
X177513588Y-74858511D01*
X177519479Y-74868714D01*
X177519481Y-74868717D01*
X177638349Y-74987585D01*
X177638355Y-74987590D01*
X177638584Y-74987819D01*
X177672069Y-75049142D01*
X177667085Y-75118834D01*
X177625213Y-75174767D01*
X177559749Y-75199184D01*
X177550903Y-75199500D01*
X176650097Y-75199500D01*
X176583058Y-75179815D01*
X176562416Y-75163181D01*
X175586818Y-74187583D01*
X175553333Y-74126260D01*
X175550499Y-74099902D01*
X175550499Y-73474998D01*
X175550498Y-73474981D01*
X175539999Y-73372203D01*
X175539998Y-73372200D01*
X175527263Y-73333769D01*
X175484814Y-73205666D01*
X175392712Y-73056344D01*
X175268656Y-72932288D01*
X175119334Y-72840186D01*
X174952797Y-72785001D01*
X174952795Y-72785000D01*
X174850010Y-72774500D01*
X174249998Y-72774500D01*
X174249980Y-72774501D01*
X174147203Y-72785000D01*
X174147200Y-72785001D01*
X173980668Y-72840185D01*
X173980663Y-72840187D01*
X173831342Y-72932289D01*
X173707289Y-73056342D01*
X173615187Y-73205663D01*
X173615186Y-73205666D01*
X173560001Y-73372203D01*
X173560001Y-73372204D01*
X173560000Y-73372204D01*
X173549500Y-73474983D01*
X173549500Y-74525001D01*
X173549501Y-74525019D01*
X173560000Y-74627796D01*
X173560001Y-74627799D01*
X173615185Y-74794331D01*
X173615187Y-74794336D01*
X173626411Y-74812533D01*
X173707288Y-74943656D01*
X173831344Y-75067712D01*
X173980666Y-75159814D01*
X174147203Y-75214999D01*
X174249991Y-75225500D01*
X174850008Y-75225499D01*
X174860576Y-75224419D01*
X174929268Y-75237187D01*
X174960861Y-75260096D01*
X175865139Y-76164374D01*
X175865149Y-76164385D01*
X175869479Y-76168715D01*
X175869480Y-76168716D01*
X175981284Y-76280520D01*
X175981286Y-76280521D01*
X175981290Y-76280524D01*
X176118209Y-76359573D01*
X176118216Y-76359577D01*
X176230019Y-76389534D01*
X176262606Y-76398266D01*
X176322263Y-76434632D01*
X176352791Y-76497479D01*
X176344494Y-76566855D01*
X176300007Y-76620731D01*
X176269512Y-76635745D01*
X176180666Y-76665186D01*
X176180663Y-76665187D01*
X176031342Y-76757289D01*
X175907289Y-76881342D01*
X175815187Y-77030663D01*
X175815185Y-77030668D01*
X175790394Y-77105483D01*
X175760001Y-77197203D01*
X175760001Y-77197204D01*
X175760000Y-77197204D01*
X175749500Y-77299983D01*
X175749500Y-78700001D01*
X175749501Y-78700018D01*
X175760000Y-78802796D01*
X175760001Y-78802799D01*
X175815185Y-78969331D01*
X175815187Y-78969336D01*
X175828194Y-78990423D01*
X175907288Y-79118656D01*
X176031344Y-79242712D01*
X176180666Y-79334814D01*
X176347203Y-79389999D01*
X176449991Y-79400500D01*
X178550008Y-79400499D01*
X178652797Y-79389999D01*
X178819334Y-79334814D01*
X178968656Y-79242712D01*
X179092712Y-79118656D01*
X179184814Y-78969334D01*
X179239999Y-78802797D01*
X179250500Y-78700009D01*
X179250499Y-77299992D01*
X179247689Y-77272488D01*
X179239999Y-77197203D01*
X179239998Y-77197200D01*
X179220507Y-77138380D01*
X179184814Y-77030666D01*
X179092712Y-76881344D01*
X178968656Y-76757288D01*
X178819334Y-76665186D01*
X178652797Y-76610001D01*
X178652795Y-76610000D01*
X178550016Y-76599500D01*
X178550009Y-76599500D01*
X178224500Y-76599500D01*
X178157461Y-76579815D01*
X178111706Y-76527011D01*
X178100500Y-76475500D01*
X178100500Y-75749097D01*
X178120185Y-75682058D01*
X178172989Y-75636303D01*
X178242147Y-75626359D01*
X178305703Y-75655384D01*
X178312181Y-75661416D01*
X179727822Y-77077057D01*
X179761307Y-77138380D01*
X179761394Y-77190692D01*
X179760001Y-77197196D01*
X179749500Y-77299983D01*
X179749500Y-78700001D01*
X179749501Y-78700018D01*
X179760000Y-78802796D01*
X179760001Y-78802799D01*
X179815185Y-78969331D01*
X179815187Y-78969336D01*
X179828194Y-78990423D01*
X179907288Y-79118656D01*
X180031344Y-79242712D01*
X180180666Y-79334814D01*
X180347203Y-79389999D01*
X180449991Y-79400500D01*
X182325500Y-79400499D01*
X182392539Y-79420184D01*
X182438294Y-79472987D01*
X182449500Y-79524499D01*
X182449500Y-80463330D01*
X182449499Y-80463348D01*
X182449499Y-80629054D01*
X182449498Y-80629054D01*
X182490424Y-80781789D01*
X182490425Y-80781790D01*
X182511205Y-80817781D01*
X182511208Y-80817785D01*
X182523365Y-80838843D01*
X182539835Y-80906744D01*
X182516981Y-80972770D01*
X182462059Y-81015959D01*
X182409457Y-81023645D01*
X182409426Y-81024332D01*
X182409426Y-81024500D01*
X182409419Y-81024500D01*
X182409413Y-81024627D01*
X182406617Y-81024500D01*
X182406616Y-81024500D01*
X182099500Y-81024500D01*
X182032461Y-81004815D01*
X181986706Y-80952011D01*
X181975500Y-80900500D01*
X181975500Y-80795945D01*
X181975500Y-80795943D01*
X181941627Y-80669528D01*
X181934577Y-80643215D01*
X181886288Y-80559577D01*
X181855520Y-80506284D01*
X181743716Y-80394480D01*
X181743715Y-80394479D01*
X181739385Y-80390149D01*
X181739374Y-80390139D01*
X181487590Y-80138355D01*
X181487588Y-80138352D01*
X181368717Y-80019481D01*
X181368716Y-80019480D01*
X181281904Y-79969360D01*
X181281904Y-79969359D01*
X181281900Y-79969358D01*
X181231785Y-79940423D01*
X181079057Y-79899499D01*
X180920943Y-79899499D01*
X180913347Y-79899499D01*
X180913331Y-79899500D01*
X179261670Y-79899500D01*
X179261654Y-79899499D01*
X179254058Y-79899499D01*
X179095943Y-79899499D01*
X179019579Y-79919961D01*
X178943214Y-79940423D01*
X178943209Y-79940426D01*
X178806290Y-80019475D01*
X178806282Y-80019481D01*
X178337583Y-80488181D01*
X178276260Y-80521666D01*
X178249902Y-80524500D01*
X177918384Y-80524500D01*
X177899145Y-80526248D01*
X177847807Y-80530913D01*
X177685393Y-80581522D01*
X177539811Y-80669530D01*
X177539810Y-80669531D01*
X177437681Y-80771661D01*
X177376358Y-80805146D01*
X177306666Y-80800162D01*
X177262319Y-80771661D01*
X177160188Y-80669530D01*
X177014606Y-80581522D01*
X176975374Y-80569297D01*
X176852196Y-80530914D01*
X176852194Y-80530913D01*
X176852192Y-80530913D01*
X176802778Y-80526423D01*
X176781616Y-80524500D01*
X176268384Y-80524500D01*
X176249145Y-80526248D01*
X176197807Y-80530913D01*
X176035393Y-80581522D01*
X175889811Y-80669530D01*
X175769530Y-80789811D01*
X175769528Y-80789815D01*
X175739890Y-80838843D01*
X175739402Y-80839650D01*
X175687874Y-80886838D01*
X175633285Y-80899500D01*
X174200097Y-80899500D01*
X174133058Y-80879815D01*
X174112416Y-80863181D01*
X172586819Y-79337584D01*
X172553334Y-79276261D01*
X172550500Y-79249903D01*
X172550500Y-73850097D01*
X172570185Y-73783058D01*
X172586819Y-73762416D01*
X174212417Y-72136819D01*
X174273740Y-72103334D01*
X174300098Y-72100500D01*
X177750902Y-72100500D01*
X177817941Y-72120185D01*
G37*
%TD.AperFunction*%
%TA.AperFunction,Conductor*%
G36*
X138905703Y-64610936D02*
G01*
X138912178Y-64616965D01*
X139462496Y-65167284D01*
X139938821Y-65643609D01*
X139972306Y-65704932D01*
X139974759Y-65741002D01*
X139974501Y-65744283D01*
X139974500Y-65744313D01*
X139974500Y-66175701D01*
X139977401Y-66212567D01*
X139977402Y-66212573D01*
X140023254Y-66370393D01*
X140023255Y-66370396D01*
X140106917Y-66511862D01*
X140111702Y-66518031D01*
X140109256Y-66519927D01*
X140135857Y-66568642D01*
X140130873Y-66638334D01*
X140110069Y-66670703D01*
X140111702Y-66671969D01*
X140106917Y-66678137D01*
X140023255Y-66819603D01*
X140023254Y-66819606D01*
X139977402Y-66977426D01*
X139977401Y-66977432D01*
X139974500Y-67014298D01*
X139974500Y-67445701D01*
X139977401Y-67482567D01*
X139977402Y-67482573D01*
X140023254Y-67640393D01*
X140023255Y-67640396D01*
X140106917Y-67781862D01*
X140111702Y-67788031D01*
X140109256Y-67789927D01*
X140135857Y-67838642D01*
X140130873Y-67908334D01*
X140110069Y-67940703D01*
X140111702Y-67941969D01*
X140106917Y-67948137D01*
X140023255Y-68089603D01*
X140023254Y-68089606D01*
X139977402Y-68247426D01*
X139977401Y-68247432D01*
X139974500Y-68284298D01*
X139974500Y-68715701D01*
X139977401Y-68752567D01*
X139977402Y-68752573D01*
X140023254Y-68910393D01*
X140023255Y-68910396D01*
X140106917Y-69051862D01*
X140106923Y-69051870D01*
X140223129Y-69168076D01*
X140223133Y-69168079D01*
X140223135Y-69168081D01*
X140364602Y-69251744D01*
X140406224Y-69263836D01*
X140522426Y-69297597D01*
X140522429Y-69297597D01*
X140522431Y-69297598D01*
X140559306Y-69300500D01*
X140559314Y-69300500D01*
X142225500Y-69300500D01*
X142292539Y-69320185D01*
X142338294Y-69372989D01*
X142349500Y-69424500D01*
X142349500Y-70900500D01*
X142329815Y-70967539D01*
X142277011Y-71013294D01*
X142225500Y-71024500D01*
X141743384Y-71024500D01*
X141724145Y-71026248D01*
X141672807Y-71030913D01*
X141510393Y-71081522D01*
X141364811Y-71169530D01*
X141244530Y-71289811D01*
X141156522Y-71435393D01*
X141105913Y-71597807D01*
X141099500Y-71668386D01*
X141099500Y-71999903D01*
X141079815Y-72066942D01*
X141063181Y-72087584D01*
X139287584Y-73863181D01*
X139226261Y-73896666D01*
X139199903Y-73899500D01*
X138824500Y-73899500D01*
X138757461Y-73879815D01*
X138711706Y-73827011D01*
X138700500Y-73775500D01*
X138700500Y-73304797D01*
X138720185Y-73237758D01*
X138759403Y-73199258D01*
X138818656Y-73162712D01*
X138942712Y-73038656D01*
X139034814Y-72889334D01*
X139089999Y-72722797D01*
X139100500Y-72620009D01*
X139100499Y-71569992D01*
X139089999Y-71467203D01*
X139034814Y-71300666D01*
X138942712Y-71151344D01*
X138818656Y-71027288D01*
X138818655Y-71027287D01*
X138759402Y-70990739D01*
X138712678Y-70938791D01*
X138700500Y-70885201D01*
X138700500Y-64704649D01*
X138720185Y-64637610D01*
X138772989Y-64591855D01*
X138842147Y-64581911D01*
X138905703Y-64610936D01*
G37*
%TD.AperFunction*%
%TA.AperFunction,Conductor*%
G36*
X178739466Y-73270843D02*
G01*
X178742147Y-73270458D01*
X178767833Y-73277014D01*
X178856517Y-73310091D01*
X178856516Y-73310091D01*
X178863444Y-73310835D01*
X178916127Y-73316500D01*
X180083872Y-73316499D01*
X180143483Y-73310091D01*
X180165827Y-73301757D01*
X180182596Y-73295503D01*
X180213198Y-73293313D01*
X180243577Y-73288946D01*
X180247732Y-73290843D01*
X180252287Y-73290518D01*
X180279216Y-73305221D01*
X180307133Y-73317971D01*
X180309602Y-73321813D01*
X180313611Y-73324002D01*
X180328318Y-73350935D01*
X180344907Y-73376749D01*
X180345798Y-73382948D01*
X180347096Y-73385325D01*
X180349930Y-73411684D01*
X180349930Y-73588315D01*
X180330245Y-73655354D01*
X180277441Y-73701109D01*
X180208283Y-73711053D01*
X180182598Y-73704497D01*
X180143485Y-73689909D01*
X180143483Y-73689908D01*
X180083883Y-73683501D01*
X180083881Y-73683500D01*
X180083873Y-73683500D01*
X180083864Y-73683500D01*
X178916129Y-73683500D01*
X178916123Y-73683501D01*
X178856515Y-73689909D01*
X178767832Y-73722985D01*
X178698141Y-73727969D01*
X178636818Y-73694483D01*
X178603333Y-73633160D01*
X178600500Y-73606803D01*
X178600500Y-73393196D01*
X178609144Y-73363755D01*
X178615668Y-73333769D01*
X178618898Y-73330538D01*
X178620185Y-73326157D01*
X178643369Y-73306067D01*
X178665073Y-73284364D01*
X178669537Y-73283392D01*
X178672989Y-73280402D01*
X178703360Y-73276034D01*
X178733346Y-73269512D01*
X178739466Y-73270843D01*
G37*
%TD.AperFunction*%
%TA.AperFunction,Conductor*%
G36*
X149852151Y-65514477D02*
G01*
X149892680Y-65571390D01*
X149899500Y-65611948D01*
X149899500Y-66913330D01*
X149899499Y-66913348D01*
X149899499Y-67079054D01*
X149899498Y-67079054D01*
X149940423Y-67231785D01*
X149969358Y-67281900D01*
X149969359Y-67281904D01*
X149969360Y-67281904D01*
X150019479Y-67368714D01*
X150019481Y-67368717D01*
X150138349Y-67487585D01*
X150138355Y-67487590D01*
X152515139Y-69864374D01*
X152515149Y-69864385D01*
X152519479Y-69868715D01*
X152519480Y-69868716D01*
X152631284Y-69980520D01*
X152669276Y-70002454D01*
X152718095Y-70030639D01*
X152718097Y-70030641D01*
X152756151Y-70052611D01*
X152768215Y-70059577D01*
X152920943Y-70100501D01*
X152920946Y-70100501D01*
X153086653Y-70100501D01*
X153086669Y-70100500D01*
X155319903Y-70100500D01*
X155386942Y-70120185D01*
X155407584Y-70136819D01*
X155870681Y-70599917D01*
X155904166Y-70661240D01*
X155904537Y-70663008D01*
X155907000Y-70675185D01*
X155907001Y-70687872D01*
X155913409Y-70747483D01*
X155931373Y-70795647D01*
X155933313Y-70805235D01*
X155931119Y-70830693D01*
X155932942Y-70856184D01*
X155928169Y-70864924D01*
X155927314Y-70874847D01*
X155911704Y-70895077D01*
X155899457Y-70917507D01*
X155887056Y-70927022D01*
X155884632Y-70930164D01*
X155881511Y-70931276D01*
X155873776Y-70937212D01*
X155731287Y-71019477D01*
X155731282Y-71019481D01*
X155669242Y-71081522D01*
X155619480Y-71131284D01*
X155619478Y-71131286D01*
X154960856Y-71789909D01*
X154312584Y-72438181D01*
X154251261Y-72471666D01*
X154224903Y-72474500D01*
X152374500Y-72474500D01*
X152307461Y-72454815D01*
X152261706Y-72402011D01*
X152250500Y-72350500D01*
X152250500Y-71429316D01*
X152250501Y-71429303D01*
X152250501Y-71261200D01*
X152250501Y-71261199D01*
X152209577Y-71108472D01*
X152166813Y-71034402D01*
X152130524Y-70971546D01*
X152130518Y-70971538D01*
X151678461Y-70519481D01*
X151678460Y-70519480D01*
X151591648Y-70469360D01*
X151591648Y-70469359D01*
X151591644Y-70469358D01*
X151541529Y-70440423D01*
X151388801Y-70399499D01*
X151230687Y-70399499D01*
X151223091Y-70399499D01*
X151223075Y-70399500D01*
X148861670Y-70399500D01*
X148861654Y-70399499D01*
X148854058Y-70399499D01*
X148695943Y-70399499D01*
X148633593Y-70416206D01*
X148543214Y-70440423D01*
X148543209Y-70440426D01*
X148406290Y-70519475D01*
X148406282Y-70519481D01*
X147862680Y-71063083D01*
X147801357Y-71096568D01*
X147731665Y-71091584D01*
X147687318Y-71063083D01*
X147162590Y-70538355D01*
X147162588Y-70538352D01*
X147043717Y-70419481D01*
X147043716Y-70419480D01*
X146956904Y-70369360D01*
X146956904Y-70369359D01*
X146956900Y-70369358D01*
X146906785Y-70340423D01*
X146754057Y-70299499D01*
X146595943Y-70299499D01*
X146588347Y-70299499D01*
X146588331Y-70299500D01*
X146324500Y-70299500D01*
X146257461Y-70279815D01*
X146211706Y-70227011D01*
X146200500Y-70175500D01*
X146200500Y-65811632D01*
X146200500Y-65811630D01*
X146186474Y-65759283D01*
X146188137Y-65689435D01*
X146227300Y-65631573D01*
X146291528Y-65604069D01*
X146360430Y-65615656D01*
X146393930Y-65639511D01*
X147038793Y-66284374D01*
X147038803Y-66284385D01*
X147043133Y-66288715D01*
X147043134Y-66288716D01*
X147154938Y-66400520D01*
X147154940Y-66400521D01*
X147154944Y-66400524D01*
X147210157Y-66432401D01*
X147210162Y-66432403D01*
X147291863Y-66479574D01*
X147291864Y-66479574D01*
X147291869Y-66479577D01*
X147444597Y-66520500D01*
X148389677Y-66520500D01*
X148389693Y-66520501D01*
X148397289Y-66520501D01*
X148555400Y-66520501D01*
X148555403Y-66520501D01*
X148708131Y-66479577D01*
X148789840Y-66432402D01*
X148845062Y-66400520D01*
X148956866Y-66288716D01*
X148956866Y-66288714D01*
X148967070Y-66278511D01*
X148967073Y-66278506D01*
X149630520Y-65615062D01*
X149668113Y-65549947D01*
X149718679Y-65501733D01*
X149787286Y-65488509D01*
X149852151Y-65514477D01*
G37*
%TD.AperFunction*%
%TA.AperFunction,Conductor*%
G36*
X146728883Y-60294787D02*
G01*
X146744088Y-60294136D01*
X146761726Y-60304431D01*
X146781320Y-60310185D01*
X146792216Y-60322228D01*
X146804430Y-60329358D01*
X146824765Y-60358205D01*
X146844947Y-60397814D01*
X146844948Y-60397815D01*
X146969890Y-60569786D01*
X147120213Y-60720109D01*
X147292182Y-60845050D01*
X147300946Y-60849516D01*
X147351742Y-60897491D01*
X147368536Y-60965312D01*
X147345998Y-61031447D01*
X147300946Y-61070484D01*
X147292182Y-61074949D01*
X147120213Y-61199890D01*
X146969897Y-61350206D01*
X146966730Y-61353915D01*
X146965459Y-61352829D01*
X146915884Y-61391054D01*
X146870902Y-61399500D01*
X144469438Y-61399500D01*
X144402399Y-61379815D01*
X144381757Y-61363181D01*
X144288057Y-61269481D01*
X144288052Y-61269477D01*
X144183211Y-61208948D01*
X144183209Y-61208947D01*
X144151127Y-61190424D01*
X144151126Y-61190423D01*
X144151125Y-61190423D01*
X143998397Y-61149499D01*
X143840283Y-61149499D01*
X143832687Y-61149499D01*
X143832671Y-61149500D01*
X142965650Y-61149500D01*
X142898611Y-61129815D01*
X142893922Y-61126649D01*
X142885378Y-61120590D01*
X142834268Y-61069480D01*
X142726475Y-61007246D01*
X142721465Y-61004353D01*
X142721463Y-61004352D01*
X142697339Y-60990424D01*
X142697338Y-60990423D01*
X142697337Y-60990423D01*
X142544609Y-60949499D01*
X142386495Y-60949499D01*
X142378899Y-60949499D01*
X142378883Y-60949500D01*
X140521117Y-60949500D01*
X140521101Y-60949499D01*
X140513505Y-60949499D01*
X140355391Y-60949499D01*
X140202663Y-60990423D01*
X140202662Y-60990423D01*
X140202660Y-60990424D01*
X140173527Y-61007245D01*
X140173525Y-61007246D01*
X140065735Y-61069477D01*
X140065730Y-61069481D01*
X139812181Y-61323031D01*
X139750858Y-61356516D01*
X139681166Y-61351532D01*
X139625233Y-61309660D01*
X139600816Y-61244196D01*
X139600500Y-61235350D01*
X139600500Y-60865783D01*
X139620185Y-60798744D01*
X139636819Y-60778102D01*
X140088102Y-60326819D01*
X140149425Y-60293334D01*
X140175783Y-60290500D01*
X146714281Y-60290500D01*
X146728883Y-60294787D01*
G37*
%TD.AperFunction*%
%TD*%
M02*
