%TF.GenerationSoftware,KiCad,Pcbnew,10.0.2*%
%TF.CreationDate,2026-07-30T19:15:13-06:00*%
%TF.ProjectId,powerblink,706f7765-7262-46c6-996e-6b2e6b696361,rev?*%
%TF.SameCoordinates,Original*%
%TF.FileFunction,Paste,Top*%
%TF.FilePolarity,Positive*%
%FSLAX46Y46*%
G04 Gerber Fmt 4.6, Leading zero omitted, Abs format (unit mm)*
G04 Created by KiCad (PCBNEW 10.0.2) date 2026-07-30 19:15:13*
%MOMM*%
%LPD*%
G01*
G04 APERTURE LIST*
G04 Aperture macros list*
%AMRoundRect*
0 Rectangle with rounded corners*
0 $1 Rounding radius*
0 $2 $3 $4 $5 $6 $7 $8 $9 X,Y pos of 4 corners*
0 Add a 4 corners polygon primitive as box body*
4,1,4,$2,$3,$4,$5,$6,$7,$8,$9,$2,$3,0*
0 Add four circle primitives for the rounded corners*
1,1,$1+$1,$2,$3*
1,1,$1+$1,$4,$5*
1,1,$1+$1,$6,$7*
1,1,$1+$1,$8,$9*
0 Add four rect primitives between the rounded corners*
20,1,$1+$1,$2,$3,$4,$5,0*
20,1,$1+$1,$4,$5,$6,$7,0*
20,1,$1+$1,$6,$7,$8,$9,0*
20,1,$1+$1,$8,$9,$2,$3,0*%
G04 Aperture macros list end*
%ADD10RoundRect,0.250000X-0.250000X-0.475000X0.250000X-0.475000X0.250000X0.475000X-0.250000X0.475000X0*%
%ADD11RoundRect,0.200000X-0.200000X-0.275000X0.200000X-0.275000X0.200000X0.275000X-0.200000X0.275000X0*%
%ADD12RoundRect,0.218750X-0.218750X-0.256250X0.218750X-0.256250X0.218750X0.256250X-0.218750X0.256250X0*%
%ADD13R,1.100000X0.600000*%
%ADD14R,0.425000X0.280000*%
%ADD15R,0.800000X1.200000*%
%ADD16RoundRect,0.150000X-0.825000X-0.150000X0.825000X-0.150000X0.825000X0.150000X-0.825000X0.150000X0*%
%ADD17RoundRect,0.250000X-1.000000X-0.650000X1.000000X-0.650000X1.000000X0.650000X-1.000000X0.650000X0*%
%ADD18R,1.072000X0.532000*%
%ADD19RoundRect,0.200000X0.200000X0.275000X-0.200000X0.275000X-0.200000X-0.275000X0.200000X-0.275000X0*%
%ADD20RoundRect,0.250000X-0.255000X-0.440000X0.255000X-0.440000X0.255000X0.440000X-0.255000X0.440000X0*%
%ADD21RoundRect,0.150000X-0.575000X0.150000X-0.575000X-0.150000X0.575000X-0.150000X0.575000X0.150000X0*%
%ADD22RoundRect,0.075000X-0.650000X0.075000X-0.650000X-0.075000X0.650000X-0.075000X0.650000X0.075000X0*%
G04 APERTURE END LIST*
D10*
%TO.C,C3*%
X160050000Y-83000000D03*
X161950000Y-83000000D03*
%TD*%
D11*
%TO.C,R10*%
X140125000Y-73000000D03*
X141775000Y-73000000D03*
%TD*%
D12*
%TO.C,D1*%
X145500000Y-80200000D03*
X147075000Y-80200000D03*
%TD*%
D10*
%TO.C,C1*%
X140600000Y-83200000D03*
X142500000Y-83200000D03*
%TD*%
D11*
%TO.C,R9*%
X136000000Y-73000000D03*
X137650000Y-73000000D03*
%TD*%
%TO.C,R4*%
X145887500Y-90045000D03*
X147537500Y-90045000D03*
%TD*%
D13*
%TO.C,U3*%
X136350000Y-78950000D03*
X136350000Y-78000000D03*
X136350000Y-77050000D03*
X133650000Y-77050000D03*
X133650000Y-78000000D03*
X133650000Y-78950000D03*
%TD*%
D10*
%TO.C,C2*%
X154025000Y-84500000D03*
X155925000Y-84500000D03*
%TD*%
D14*
%TO.C,MAX1704*%
X152500000Y-73000000D03*
X152500000Y-72500000D03*
X152500000Y-72000000D03*
X152500000Y-71500000D03*
X150620000Y-71500000D03*
X150620000Y-72000000D03*
X150620000Y-72500000D03*
X150620000Y-73000000D03*
D15*
X151560000Y-72250000D03*
%TD*%
D16*
%TO.C,ATtiny1614-SS*%
X134000000Y-61880000D03*
X134000000Y-63150000D03*
X134000000Y-64420000D03*
X134000000Y-65690000D03*
X134000000Y-66960000D03*
X134000000Y-68230000D03*
X134000000Y-69500000D03*
X138950000Y-69500000D03*
X138950000Y-68230000D03*
X138950000Y-66960000D03*
X138950000Y-65690000D03*
X138950000Y-64420000D03*
X138950000Y-63150000D03*
X138950000Y-61880000D03*
%TD*%
D17*
%TO.C,D3*%
X177000000Y-88500000D03*
X181000000Y-88500000D03*
%TD*%
D12*
%TO.C,D2*%
X149250000Y-90025000D03*
X150825000Y-90025000D03*
%TD*%
D11*
%TO.C,R2*%
X140725000Y-86700000D03*
X142375000Y-86700000D03*
%TD*%
D10*
%TO.C,C5*%
X144550000Y-73050000D03*
X146450000Y-73050000D03*
%TD*%
%TO.C,C4*%
X132100000Y-73095000D03*
X134000000Y-73095000D03*
%TD*%
D11*
%TO.C,R1*%
X140725000Y-90200000D03*
X142375000Y-90200000D03*
%TD*%
D10*
%TO.C,C6*%
X174700000Y-84000000D03*
X176600000Y-84000000D03*
%TD*%
D11*
%TO.C,R3*%
X150390000Y-80200000D03*
X152040000Y-80200000D03*
%TD*%
D18*
%TO.C,MT3608*%
X179000000Y-83050000D03*
X179000000Y-84000000D03*
X179000000Y-84950000D03*
X181300000Y-84950000D03*
X181300000Y-84000000D03*
X181300000Y-83050000D03*
%TD*%
D11*
%TO.C,R8*%
X176025000Y-92000000D03*
X177675000Y-92000000D03*
%TD*%
D19*
%TO.C,R5*%
X131650000Y-78000000D03*
X130000000Y-78000000D03*
%TD*%
D11*
%TO.C,R7*%
X179175000Y-92000000D03*
X180825000Y-92000000D03*
%TD*%
D20*
%TO.C,TP4056*%
X147800000Y-85000000D03*
X147800000Y-86650000D03*
X149000000Y-85000000D03*
X149000000Y-86650000D03*
D16*
X145925000Y-83920000D03*
X145925000Y-85190000D03*
X145925000Y-86460000D03*
X145925000Y-87730000D03*
X150875000Y-87730000D03*
X150875000Y-86460000D03*
X150875000Y-85190000D03*
X150875000Y-83920000D03*
%TD*%
D19*
%TO.C,R6*%
X139325000Y-78000000D03*
X137675000Y-78000000D03*
%TD*%
D13*
%TO.C,FS8205A*%
X143850000Y-78950000D03*
X143850000Y-78000000D03*
X143850000Y-77050000D03*
X141150000Y-77050000D03*
X141150000Y-78000000D03*
X141150000Y-78950000D03*
%TD*%
D21*
%TO.C,USB C*%
X138545000Y-82250000D03*
X138545000Y-83050000D03*
D22*
X138545000Y-84250000D03*
X138545000Y-85250000D03*
X138545000Y-85750000D03*
X138545000Y-86750000D03*
D21*
X138545000Y-87950000D03*
X138545000Y-88750000D03*
X138545000Y-88750000D03*
X138545000Y-87950000D03*
D22*
X138545000Y-87250000D03*
X138545000Y-86250000D03*
X138545000Y-84750000D03*
X138545000Y-83750000D03*
D21*
X138545000Y-83050000D03*
X138545000Y-82250000D03*
%TD*%
M02*
