%TF.GenerationSoftware,KiCad,Pcbnew,10.0.2*%
%TF.CreationDate,2026-07-30T19:15:13-06:00*%
%TF.ProjectId,powerblink,706f7765-7262-46c6-996e-6b2e6b696361,rev?*%
%TF.SameCoordinates,Original*%
%TF.FileFunction,Copper,L1,Top*%
%TF.FilePolarity,Positive*%
%FSLAX46Y46*%
G04 Gerber Fmt 4.6, Leading zero omitted, Abs format (unit mm)*
G04 Created by KiCad (PCBNEW 10.0.2) date 2026-07-30 19:15:13*
%MOMM*%
%LPD*%
G01*
G04 APERTURE LIST*
G04 Aperture macros list*
%AMRoundRect*
0 Rectangle with rounded corners*
0 $1 Rounding radius*
0 $2 $3 $4 $5 $6 $7 $8 $9 X,Y pos of 4 corners*
0 Add a 4 corners polygon primitive as box body*
4,1,4,$2,$3,$4,$5,$6,$7,$8,$9,$2,$3,0*
0 Add four circle primitives for the rounded corners*
1,1,$1+$1,$2,$3*
1,1,$1+$1,$4,$5*
1,1,$1+$1,$6,$7*
1,1,$1+$1,$8,$9*
0 Add four rect primitives between the rounded corners*
20,1,$1+$1,$2,$3,$4,$5,0*
20,1,$1+$1,$4,$5,$6,$7,0*
20,1,$1+$1,$6,$7,$8,$9,0*
20,1,$1+$1,$8,$9,$2,$3,0*%
G04 Aperture macros list end*
%TA.AperFunction,SMDPad,CuDef*%
%ADD10RoundRect,0.250000X-0.250000X-0.475000X0.250000X-0.475000X0.250000X0.475000X-0.250000X0.475000X0*%
%TD*%
%TA.AperFunction,SMDPad,CuDef*%
%ADD11RoundRect,0.200000X-0.200000X-0.275000X0.200000X-0.275000X0.200000X0.275000X-0.200000X0.275000X0*%
%TD*%
%TA.AperFunction,SMDPad,CuDef*%
%ADD12RoundRect,0.218750X-0.218750X-0.256250X0.218750X-0.256250X0.218750X0.256250X-0.218750X0.256250X0*%
%TD*%
%TA.AperFunction,ComponentPad*%
%ADD13C,2.000000*%
%TD*%
%TA.AperFunction,SMDPad,CuDef*%
%ADD14R,1.100000X0.600000*%
%TD*%
%TA.AperFunction,SMDPad,CuDef*%
%ADD15R,0.425000X0.280000*%
%TD*%
%TA.AperFunction,SMDPad,CuDef*%
%ADD16R,0.800000X1.200000*%
%TD*%
%TA.AperFunction,SMDPad,CuDef*%
%ADD17RoundRect,0.150000X-0.825000X-0.150000X0.825000X-0.150000X0.825000X0.150000X-0.825000X0.150000X0*%
%TD*%
%TA.AperFunction,SMDPad,CuDef*%
%ADD18RoundRect,0.250000X-1.000000X-0.650000X1.000000X-0.650000X1.000000X0.650000X-1.000000X0.650000X0*%
%TD*%
%TA.AperFunction,ComponentPad*%
%ADD19RoundRect,0.250000X-0.350000X-0.350000X0.350000X-0.350000X0.350000X0.350000X-0.350000X0.350000X0*%
%TD*%
%TA.AperFunction,ComponentPad*%
%ADD20C,1.200000*%
%TD*%
%TA.AperFunction,ComponentPad*%
%ADD21O,1.200000X2.400000*%
%TD*%
%TA.AperFunction,ComponentPad*%
%ADD22O,1.200000X2.100000*%
%TD*%
%TA.AperFunction,SMDPad,CuDef*%
%ADD23R,1.072000X0.532000*%
%TD*%
%TA.AperFunction,SMDPad,CuDef*%
%ADD24RoundRect,0.200000X0.200000X0.275000X-0.200000X0.275000X-0.200000X-0.275000X0.200000X-0.275000X0*%
%TD*%
%TA.AperFunction,HeatsinkPad*%
%ADD25C,0.500000*%
%TD*%
%TA.AperFunction,HeatsinkPad*%
%ADD26R,2.410000X3.300000*%
%TD*%
%TA.AperFunction,SMDPad,CuDef*%
%ADD27RoundRect,0.150000X-0.575000X0.150000X-0.575000X-0.150000X0.575000X-0.150000X0.575000X0.150000X0*%
%TD*%
%TA.AperFunction,SMDPad,CuDef*%
%ADD28RoundRect,0.075000X-0.650000X0.075000X-0.650000X-0.075000X0.650000X-0.075000X0.650000X0.075000X0*%
%TD*%
%TA.AperFunction,ComponentPad*%
%ADD29O,2.100000X1.000000*%
%TD*%
%TA.AperFunction,ComponentPad*%
%ADD30O,1.600000X1.000000*%
%TD*%
%TA.AperFunction,ComponentPad*%
%ADD31RoundRect,0.170000X0.680000X-0.680000X0.680000X0.680000X-0.680000X0.680000X-0.680000X-0.680000X0*%
%TD*%
%TA.AperFunction,ComponentPad*%
%ADD32C,1.700000*%
%TD*%
%TA.AperFunction,Conductor*%
%ADD33C,0.200000*%
%TD*%
G04 APERTURE END LIST*
D10*
%TO.P,C3,1*%
%TO.N,VOUT*%
X160050000Y-83000000D03*
%TO.P,C3,2*%
%TO.N,GND*%
X161950000Y-83000000D03*
%TD*%
D11*
%TO.P,R10,1*%
%TO.N,+BATT*%
X140125000Y-73000000D03*
%TO.P,R10,2*%
%TO.N,Net-(U4-SCL)*%
X141775000Y-73000000D03*
%TD*%
D12*
%TO.P,D1,1,K_1*%
%TO.N,Net-(D1-K)*%
X145500000Y-80200000D03*
%TO.P,D1,2,A_2*%
%TO.N,Net-(D1-A)*%
X147075000Y-80200000D03*
%TD*%
D10*
%TO.P,C1,1*%
%TO.N,Net-(U8-V_{CC})*%
X140600000Y-83200000D03*
%TO.P,C1,2*%
%TO.N,GND*%
X142500000Y-83200000D03*
%TD*%
D11*
%TO.P,R9,1*%
%TO.N,+BATT*%
X136000000Y-73000000D03*
%TO.P,R9,2*%
%TO.N,Net-(U4-SDA)*%
X137650000Y-73000000D03*
%TD*%
%TO.P,R4,1*%
%TO.N,VCC*%
X145887500Y-90045000D03*
%TO.P,R4,2*%
%TO.N,Net-(D2-K)*%
X147537500Y-90045000D03*
%TD*%
D13*
%TO.P,SW1,1,1_1*%
%TO.N,GND*%
X175250000Y-74250000D03*
X181750000Y-74250000D03*
%TO.P,SW1,2,2_2*%
%TO.N,Net-(U5-PA3)*%
X175250000Y-78750000D03*
X181750000Y-78750000D03*
%TD*%
D14*
%TO.P,U3,1,OD_1*%
%TO.N,Net-(Q1-G1)*%
X136350000Y-78950000D03*
%TO.P,U3,2,CS_2*%
%TO.N,Net-(U3-CS)*%
X136350000Y-78000000D03*
%TO.P,U3,3,OC_3*%
%TO.N,Net-(Q1-G2)*%
X136350000Y-77050000D03*
%TO.P,U3,4,TD_4*%
%TO.N,unconnected-(U3-TD-Pad4)*%
X133650000Y-77050000D03*
%TO.P,U3,5,VCC_5*%
%TO.N,Net-(U3-VCC)*%
X133650000Y-78000000D03*
%TO.P,U3,6,GND_6*%
%TO.N,-BATT*%
X133650000Y-78950000D03*
%TD*%
D10*
%TO.P,C2,1*%
%TO.N,+BATT*%
X154025000Y-84500000D03*
%TO.P,C2,2*%
%TO.N,GND*%
X155925000Y-84500000D03*
%TD*%
D15*
%TO.P,MAX1704,1,CTG_1*%
%TO.N,GND*%
X152500000Y-73000000D03*
%TO.P,MAX1704,2,CELL_2*%
%TO.N,unconnected-(U4-CELL-Pad2)*%
X152500000Y-72500000D03*
%TO.P,MAX1704,3,VDD_3*%
%TO.N,+BATT*%
X152500000Y-72000000D03*
%TO.P,MAX1704,4,GND_4*%
%TO.N,GND*%
X152500000Y-71500000D03*
%TO.P,MAX1704,5,~{ALRT}_5*%
%TO.N,Net-(U4-~{ALRT})*%
X150620000Y-71500000D03*
%TO.P,MAX1704,6,QSTRT_6*%
%TO.N,GND*%
X150620000Y-72000000D03*
%TO.P,MAX1704,7,SCL_7*%
%TO.N,Net-(U4-SCL)*%
X150620000Y-72500000D03*
%TO.P,MAX1704,8,SDA_8*%
%TO.N,Net-(U4-SDA)*%
X150620000Y-73000000D03*
D16*
%TO.P,MAX1704,9,EP_9*%
%TO.N,unconnected-(U4-EP-Pad9)*%
X151560000Y-72250000D03*
%TD*%
D17*
%TO.P,ATtiny1614-SS,1,VCC_1*%
%TO.N,+BATT*%
X134000000Y-61880000D03*
%TO.P,ATtiny1614-SS,2,PA4_2*%
%TO.N,Net-(U4-~{ALRT})*%
X134000000Y-63150000D03*
%TO.P,ATtiny1614-SS,3,PA5_3*%
%TO.N,unconnected-(U5-PA5-Pad3)*%
X134000000Y-64420000D03*
%TO.P,ATtiny1614-SS,4,PA6_4*%
%TO.N,unconnected-(U5-PA6-Pad4)*%
X134000000Y-65690000D03*
%TO.P,ATtiny1614-SS,5,PA7_5*%
%TO.N,unconnected-(U5-PA7-Pad5)*%
X134000000Y-66960000D03*
%TO.P,ATtiny1614-SS,6,PB3_6*%
%TO.N,unconnected-(U5-PB3-Pad6)*%
X134000000Y-68230000D03*
%TO.P,ATtiny1614-SS,7,PB2_7*%
%TO.N,unconnected-(U5-PB2-Pad7)*%
X134000000Y-69500000D03*
%TO.P,ATtiny1614-SS,8,PB1_8*%
%TO.N,unconnected-(U5-PB1-Pad8)*%
X138950000Y-69500000D03*
%TO.P,ATtiny1614-SS,9,PB0_9*%
%TO.N,unconnected-(U5-PB0-Pad9)*%
X138950000Y-68230000D03*
%TO.P,ATtiny1614-SS,10,~{RESET}/PA0_10*%
%TO.N,Net-(J2-Pin_1)*%
X138950000Y-66960000D03*
%TO.P,ATtiny1614-SS,11,PA1_11*%
%TO.N,Net-(U4-SDA)*%
X138950000Y-65690000D03*
%TO.P,ATtiny1614-SS,12,PA2_12*%
%TO.N,Net-(U4-SCL)*%
X138950000Y-64420000D03*
%TO.P,ATtiny1614-SS,13,PA3_13*%
%TO.N,Net-(U5-PA3)*%
X138950000Y-63150000D03*
%TO.P,ATtiny1614-SS,14,GND_14*%
%TO.N,GND*%
X138950000Y-61880000D03*
%TD*%
D18*
%TO.P,D3,1,K_1*%
%TO.N,Net-(D3-K)*%
X177000000Y-88500000D03*
%TO.P,D3,2,A_2*%
%TO.N,VOUT*%
X181000000Y-88500000D03*
%TD*%
D12*
%TO.P,D2,1,K_1*%
%TO.N,Net-(D2-K)*%
X149250000Y-90025000D03*
%TO.P,D2,2,A_2*%
%TO.N,Net-(D2-A)*%
X150825000Y-90025000D03*
%TD*%
D11*
%TO.P,R2,1*%
%TO.N,Net-(J3-CC1)*%
X140725000Y-86700000D03*
%TO.P,R2,2*%
%TO.N,GND*%
X142375000Y-86700000D03*
%TD*%
D10*
%TO.P,C5,1*%
%TO.N,+BATT*%
X144550000Y-73050000D03*
%TO.P,C5,2*%
%TO.N,GND*%
X146450000Y-73050000D03*
%TD*%
%TO.P,C4,1*%
%TO.N,+BATT*%
X132100000Y-73095000D03*
%TO.P,C4,2*%
%TO.N,GND*%
X134000000Y-73095000D03*
%TD*%
D19*
%TO.P,USB A,1,VBUS_1*%
%TO.N,VOUT*%
X161000000Y-87850000D03*
D20*
%TO.P,USB A,2,D-_2*%
%TO.N,Net-(J1-D+)*%
X163500000Y-87850000D03*
%TO.P,USB A,3,D+_3*%
X165500000Y-87850000D03*
%TO.P,USB A,4,GND_4*%
%TO.N,GND*%
X168000000Y-87850000D03*
%TO.P,USB A,5*%
%TO.N,N/C*%
X168500000Y-86350000D03*
%TO.P,USB A,6*%
X166500000Y-86350000D03*
%TO.P,USB A,7*%
X164500000Y-86350000D03*
%TO.P,USB A,8*%
X162500000Y-86350000D03*
%TO.P,USB A,9*%
X160500000Y-86350000D03*
D21*
%TO.P,USB A,SH,Shield_SH*%
%TO.N,unconnected-(J1-Shield-PadSH)*%
X158100000Y-87100000D03*
D22*
%TO.N,unconnected-(J1-Shield-PadSH)_1*%
X158100000Y-95600000D03*
D21*
%TO.N,unconnected-(J1-Shield-PadSH)_2*%
X170900000Y-87100000D03*
D22*
%TO.N,unconnected-(J1-Shield-PadSH)_3*%
X170900000Y-95600000D03*
%TD*%
D11*
%TO.P,R1,1*%
%TO.N,Net-(J3-CC2)*%
X140725000Y-90200000D03*
%TO.P,R1,2*%
%TO.N,GND*%
X142375000Y-90200000D03*
%TD*%
D10*
%TO.P,C6,1*%
%TO.N,Net-(D3-K)*%
X174700000Y-84000000D03*
%TO.P,C6,2*%
%TO.N,GND*%
X176600000Y-84000000D03*
%TD*%
D11*
%TO.P,R3,1*%
%TO.N,VCC*%
X150390000Y-80200000D03*
%TO.P,R3,2*%
%TO.N,Net-(D1-K)*%
X152040000Y-80200000D03*
%TD*%
D23*
%TO.P,MT3608,1,SW_1*%
%TO.N,VOUT*%
X179000000Y-83050000D03*
%TO.P,MT3608,2,GND_2*%
%TO.N,GND*%
X179000000Y-84000000D03*
%TO.P,MT3608,3,FB_3*%
%TO.N,Net-(U1-FB)*%
X179000000Y-84950000D03*
%TO.P,MT3608,4,EN_4*%
%TO.N,+BATT*%
X181300000Y-84950000D03*
%TO.P,MT3608,5,IN_5*%
%TO.N,unconnected-(U1-IN-Pad5)*%
X181300000Y-84000000D03*
%TO.P,MT3608,6,NC_6*%
%TO.N,unconnected-(U1-NC-Pad6)*%
X181300000Y-83050000D03*
%TD*%
D11*
%TO.P,R8,1*%
%TO.N,VOUT*%
X176025000Y-92000000D03*
%TO.P,R8,2*%
%TO.N,Net-(U1-FB)*%
X177675000Y-92000000D03*
%TD*%
D24*
%TO.P,R5,1*%
%TO.N,Net-(U3-VCC)*%
X131650000Y-78000000D03*
%TO.P,R5,2*%
%TO.N,+BATT*%
X130000000Y-78000000D03*
%TD*%
D11*
%TO.P,R7,1*%
%TO.N,GND*%
X179175000Y-92000000D03*
%TO.P,R7,2*%
%TO.N,Net-(U1-FB)*%
X180825000Y-92000000D03*
%TD*%
D17*
%TO.P,TP4056,1,TEMP_1*%
%TO.N,GND*%
X145925000Y-83920000D03*
%TO.P,TP4056,2,PROG_2*%
%TO.N,2.4k*%
X145925000Y-85190000D03*
%TO.P,TP4056,3,GND_3*%
%TO.N,GND*%
X145925000Y-86460000D03*
%TO.P,TP4056,4,V_{CC}_4*%
%TO.N,Net-(U8-V_{CC})*%
X145925000Y-87730000D03*
%TO.P,TP4056,5,BAT_5*%
%TO.N,+BATT*%
X150875000Y-87730000D03*
%TO.P,TP4056,6,~{STDBY}_6*%
%TO.N,Net-(D2-A)*%
X150875000Y-86460000D03*
%TO.P,TP4056,7,~{CHRG}_7*%
%TO.N,Net-(D1-A)*%
X150875000Y-85190000D03*
%TO.P,TP4056,8,CE_8*%
%TO.N,VCC*%
X150875000Y-83920000D03*
D25*
%TO.P,TP4056,9,EPAD_9*%
%TO.N,unconnected-(U8-EPAD-Pad9)*%
X147700000Y-84625000D03*
%TO.N,unconnected-(U8-EPAD-Pad9)_5*%
X147700000Y-85825000D03*
%TO.N,unconnected-(U8-EPAD-Pad9)_2*%
X147700000Y-87025000D03*
D26*
%TO.N,unconnected-(U8-EPAD-Pad9)_7*%
X148400000Y-85825000D03*
D25*
%TO.N,unconnected-(U8-EPAD-Pad9)_3*%
X149100000Y-84625000D03*
%TO.N,unconnected-(U8-EPAD-Pad9)_1*%
X149100000Y-85825000D03*
%TO.N,unconnected-(U8-EPAD-Pad9)_4*%
X149100000Y-87025000D03*
%TD*%
D24*
%TO.P,R6,1*%
%TO.N,Net-(Q1-D1{slash}D2-Pad5)*%
X139325000Y-78000000D03*
%TO.P,R6,2*%
%TO.N,Net-(U3-CS)*%
X137675000Y-78000000D03*
%TD*%
D14*
%TO.P,FS8205A,1,S1_1*%
%TO.N,unconnected-(Q1-S1-Pad1)*%
X143850000Y-78950000D03*
%TO.P,FS8205A,2,D1/D2_2*%
%TO.N,unconnected-(Q1-D1{slash}D2-Pad2)*%
X143850000Y-78000000D03*
%TO.P,FS8205A,3,S2_3*%
%TO.N,GND*%
X143850000Y-77050000D03*
%TO.P,FS8205A,4,G2_4*%
%TO.N,Net-(Q1-G2)*%
X141150000Y-77050000D03*
%TO.P,FS8205A,5,D1/D2_5*%
%TO.N,Net-(Q1-D1{slash}D2-Pad5)*%
X141150000Y-78000000D03*
%TO.P,FS8205A,6,G1_6*%
%TO.N,Net-(Q1-G1)*%
X141150000Y-78950000D03*
%TD*%
D27*
%TO.P,USB C,A1,GND_A1*%
%TO.N,GND*%
X138545000Y-82250000D03*
%TO.P,USB C,A4,VBUS_A4*%
%TO.N,Net-(U8-V_{CC})*%
X138545000Y-83050000D03*
D28*
%TO.P,USB C,A5,CC1_A5*%
%TO.N,Net-(J3-CC1)*%
X138545000Y-84250000D03*
%TO.P,USB C,A6,D+_A6*%
%TO.N,unconnected-(J3-D+-PadA6)*%
X138545000Y-85250000D03*
%TO.P,USB C,A7,D-_A7*%
%TO.N,unconnected-(J3-D--PadA7)*%
X138545000Y-85750000D03*
%TO.P,USB C,A8*%
%TO.N,N/C*%
X138545000Y-86750000D03*
D27*
%TO.P,USB C,A9,VBUS_A9*%
%TO.N,Net-(U8-V_{CC})*%
X138545000Y-87950000D03*
%TO.P,USB C,A12,GND_A12*%
%TO.N,GND*%
X138545000Y-88750000D03*
%TO.P,USB C,B1,GND_B1*%
X138545000Y-88750000D03*
%TO.P,USB C,B4,VBUS_B4*%
%TO.N,Net-(U8-V_{CC})*%
X138545000Y-87950000D03*
D28*
%TO.P,USB C,B5,CC2_B5*%
%TO.N,Net-(J3-CC2)*%
X138545000Y-87250000D03*
%TO.P,USB C,B6,D+_B6*%
%TO.N,unconnected-(J3-D+-PadB6)*%
X138545000Y-86250000D03*
%TO.P,USB C,B7,D-_B7*%
%TO.N,unconnected-(J3-D--PadB7)*%
X138545000Y-84750000D03*
%TO.P,USB C,B8*%
%TO.N,N/C*%
X138545000Y-83750000D03*
D27*
%TO.P,USB C,B9,VBUS_B9*%
%TO.N,Net-(U8-V_{CC})*%
X138545000Y-83050000D03*
%TO.P,USB C,B12,GND_B12*%
%TO.N,GND*%
X138545000Y-82250000D03*
D29*
%TO.P,USB C,SH,SHIELD_SH*%
%TO.N,unconnected-(J3-SHIELD-PadSH)_3*%
X137630000Y-81180000D03*
D30*
%TO.N,unconnected-(J3-SHIELD-PadSH)*%
X133450000Y-81180000D03*
D29*
%TO.N,unconnected-(J3-SHIELD-PadSH)_1*%
X137630000Y-89820000D03*
D30*
%TO.N,unconnected-(J3-SHIELD-PadSH)_2*%
X133450000Y-89820000D03*
%TD*%
D31*
%TO.P,OLEDM0.91,1,GND_1*%
%TO.N,GND*%
X145500000Y-68310000D03*
D32*
%TO.P,OLEDM0.91,2,VCC_2*%
%TO.N,+BATT*%
X145500000Y-65770000D03*
%TO.P,OLEDM0.91,3,SCL_3*%
%TO.N,Net-(U4-SCL)*%
X145500000Y-63230000D03*
%TO.P,OLEDM0.91,4,SDA_4*%
%TO.N,Net-(U4-SDA)*%
X145500000Y-60690000D03*
%TD*%
%TO.N,*%
D33*
X141000000Y-87500000D02*
X141112648Y-87500000D01*
X141425000Y-87187648D02*
X141425000Y-86700000D01*
X141112648Y-87500000D02*
X141425000Y-87187648D01*
%TO.N,VOUT*%
X166000000Y-92000000D02*
X161850000Y-87850000D01*
X161850000Y-87850000D02*
X161000000Y-87850000D01*
X160050000Y-83000000D02*
X161400000Y-84350000D01*
X176025000Y-92000000D02*
X166000000Y-92000000D01*
X161400000Y-84350000D02*
X161400000Y-87450000D01*
X176725000Y-93175000D02*
X176025000Y-92475000D01*
X181000000Y-88500000D02*
X179836000Y-87336000D01*
X161400000Y-87450000D02*
X161000000Y-87850000D01*
X181525000Y-89025000D02*
X181525000Y-92487648D01*
X179836000Y-87336000D02*
X179836000Y-83150000D01*
X179836000Y-83150000D02*
X179736000Y-83050000D01*
X181000000Y-88500000D02*
X181525000Y-89025000D01*
X176025000Y-92475000D02*
X176025000Y-92000000D01*
X180837648Y-93175000D02*
X176725000Y-93175000D01*
X179736000Y-83050000D02*
X179000000Y-83050000D01*
X181525000Y-92487648D02*
X180837648Y-93175000D01*
%TO.N,GND*%
X158450000Y-81975000D02*
X160925000Y-81975000D01*
X145925000Y-83920000D02*
X144700000Y-82695000D01*
X134680000Y-73775000D02*
X134000000Y-73095000D01*
X183050000Y-78211522D02*
X183050000Y-79288478D01*
X183050000Y-79288478D02*
X179854478Y-82484000D01*
X144950001Y-86460000D02*
X144650000Y-86159999D01*
X144700000Y-81000000D02*
X142500000Y-83200000D01*
X141125000Y-88950000D02*
X138445000Y-88950000D01*
X138604448Y-61880000D02*
X136700000Y-63784448D01*
X173147793Y-82975000D02*
X168272793Y-87850000D01*
X175575000Y-82975000D02*
X173147793Y-82975000D01*
X155925000Y-82897352D02*
X155925000Y-84500000D01*
X142375000Y-90200000D02*
X141125000Y-88950000D01*
X178164000Y-85516000D02*
X178600000Y-85952000D01*
X145925000Y-86460000D02*
X144950001Y-86460000D01*
X144762500Y-82757500D02*
X144762500Y-79722814D01*
X168272793Y-87850000D02*
X168000000Y-87850000D01*
X140228334Y-88950000D02*
X138445000Y-88950000D01*
X178400000Y-92775000D02*
X179175000Y-92000000D01*
X142375000Y-86803334D02*
X140228334Y-88950000D01*
X144762500Y-79722814D02*
X145860314Y-78625000D01*
X178600000Y-89887352D02*
X176975000Y-91512352D01*
X138445000Y-82450000D02*
X138720000Y-82175000D01*
X141475000Y-82175000D02*
X142500000Y-83200000D01*
X144700000Y-77150000D02*
X144700000Y-81000000D01*
X179088478Y-74250000D02*
X183050000Y-78211522D01*
X176975000Y-92487648D02*
X177262352Y-92775000D01*
X152952500Y-71500000D02*
X153012500Y-71560000D01*
X145925000Y-83920000D02*
X144762500Y-82757500D01*
X167400000Y-87250000D02*
X168000000Y-87850000D01*
X175250000Y-74250000D02*
X179088478Y-74250000D01*
X136700000Y-73487648D02*
X136412648Y-73775000D01*
X153012500Y-71560000D02*
X153012500Y-72940000D01*
X179854478Y-82484000D02*
X178116000Y-82484000D01*
X138720000Y-82175000D02*
X141475000Y-82175000D01*
X176975000Y-91512352D02*
X176975000Y-92487648D01*
X152952500Y-73000000D02*
X152500000Y-73000000D01*
X152500000Y-71500000D02*
X152952500Y-71500000D01*
X178600000Y-85952000D02*
X178600000Y-89887352D01*
X177262352Y-92775000D02*
X178400000Y-92775000D01*
X164422793Y-83000000D02*
X167400000Y-85977207D01*
X138950000Y-61880000D02*
X138604448Y-61880000D01*
X144600000Y-77050000D02*
X144700000Y-77150000D01*
X178116000Y-82484000D02*
X176600000Y-84000000D01*
X143850000Y-77050000D02*
X144600000Y-77050000D01*
X153012500Y-72940000D02*
X152952500Y-73000000D01*
X136700000Y-63784448D02*
X136700000Y-73487648D01*
X176600000Y-84000000D02*
X175575000Y-82975000D01*
X176600000Y-84000000D02*
X179000000Y-84000000D01*
X161950000Y-83000000D02*
X164422793Y-83000000D01*
X160925000Y-81975000D02*
X161950000Y-83000000D01*
X167400000Y-85977207D02*
X167400000Y-87250000D01*
X143850000Y-75650000D02*
X146450000Y-73050000D01*
X144700000Y-82695000D02*
X144700000Y-81000000D01*
X151652648Y-78625000D02*
X155925000Y-82897352D01*
X136412648Y-73775000D02*
X134680000Y-73775000D01*
X144650000Y-84849448D02*
X145579448Y-83920000D01*
X145860314Y-78625000D02*
X151652648Y-78625000D01*
X144650000Y-86159999D02*
X144650000Y-84849448D01*
X178548000Y-84000000D02*
X178164000Y-84384000D01*
X155925000Y-84500000D02*
X158450000Y-81975000D01*
X145579448Y-83920000D02*
X145925000Y-83920000D01*
X178164000Y-84384000D02*
X178164000Y-85516000D01*
X179000000Y-84000000D02*
X178548000Y-84000000D01*
X175250000Y-74250000D02*
X181750000Y-74250000D01*
X143850000Y-77050000D02*
X143850000Y-75650000D01*
X142375000Y-86700000D02*
X142375000Y-86803334D01*
%TO.N,+BATT*%
X136180000Y-90351371D02*
X136803629Y-90975000D01*
X136000000Y-64804448D02*
X136000000Y-73000000D01*
X142787648Y-90975000D02*
X145432648Y-88330000D01*
X136803629Y-90975000D02*
X142787648Y-90975000D01*
X135015552Y-63820000D02*
X136000000Y-64804448D01*
X143000000Y-79550000D02*
X137678629Y-79550000D01*
X132725000Y-62180001D02*
X132725000Y-63560552D01*
X132984448Y-63820000D02*
X135015552Y-63820000D01*
X154025000Y-84500000D02*
X154025000Y-86259314D01*
X136180000Y-81048629D02*
X136180000Y-90351371D01*
X144550000Y-73050000D02*
X143000000Y-74600000D01*
X152554314Y-87730000D02*
X150875000Y-87730000D01*
X130000000Y-75195000D02*
X132100000Y-73095000D01*
X150275000Y-88330000D02*
X150875000Y-87730000D01*
X154025000Y-86259314D02*
X152554314Y-87730000D01*
X143000000Y-74600000D02*
X143000000Y-79550000D01*
X145432648Y-88330000D02*
X150275000Y-88330000D01*
X137678629Y-79550000D02*
X136180000Y-81048629D01*
X132725000Y-63560552D02*
X132984448Y-63820000D01*
X134000000Y-61880000D02*
X133025001Y-61880000D01*
X130000000Y-78000000D02*
X130000000Y-75195000D01*
X133025001Y-61880000D02*
X132725000Y-62180001D01*
%TO.N,Net-(U4-SCL)*%
X146650000Y-60213654D02*
X145976346Y-59540000D01*
X140110000Y-64420000D02*
X138950000Y-64420000D01*
X144990000Y-59540000D02*
X140110000Y-64420000D01*
X146650000Y-62080000D02*
X146650000Y-60213654D01*
X145500000Y-63230000D02*
X146650000Y-62080000D01*
X145976346Y-59540000D02*
X144990000Y-59540000D01*
%TO.N,Net-(D1-K)*%
X146675000Y-79025000D02*
X145500000Y-80200000D01*
X150968333Y-79025000D02*
X146675000Y-79025000D01*
X152040000Y-80096667D02*
X150968333Y-79025000D01*
X152040000Y-80200000D02*
X152040000Y-80096667D01*
%TO.N,Net-(D1-A)*%
X151090000Y-79712352D02*
X150802648Y-79425000D01*
X151220552Y-85190000D02*
X152150000Y-84260552D01*
X150875000Y-85190000D02*
X151220552Y-85190000D01*
X150802648Y-79425000D02*
X147850000Y-79425000D01*
X152150000Y-84260552D02*
X152150000Y-81747648D01*
X152150000Y-81747648D02*
X151090000Y-80687648D01*
X151090000Y-80687648D02*
X151090000Y-79712352D01*
X147850000Y-79425000D02*
X147075000Y-80200000D01*
%TO.N,Net-(U8-V_{CC})*%
X137420000Y-83717590D02*
X137887590Y-83250000D01*
X138445000Y-88150000D02*
X137720001Y-88150000D01*
X137887590Y-83250000D02*
X138445000Y-83250000D01*
X140550000Y-83250000D02*
X140600000Y-83200000D01*
X145130000Y-87730000D02*
X140600000Y-83200000D01*
X137420000Y-87849999D02*
X137420000Y-83717590D01*
X145925000Y-87730000D02*
X145130000Y-87730000D01*
X137720001Y-88150000D02*
X137420000Y-87849999D01*
X138445000Y-83250000D02*
X140550000Y-83250000D01*
%TO.N,Net-(U4-SDA)*%
X142725686Y-67160000D02*
X141043528Y-65477842D01*
X148565686Y-69346296D02*
X146379390Y-67160000D01*
X141043528Y-65477842D02*
X139162158Y-65477842D01*
X139162158Y-65477842D02*
X138950000Y-65690000D01*
X138950000Y-65690000D02*
X139545000Y-65095000D01*
X150620000Y-73000000D02*
X150207500Y-73000000D01*
X148565686Y-71358186D02*
X148565686Y-69346296D01*
X139545000Y-65095000D02*
X141095000Y-65095000D01*
X145500000Y-60690000D02*
X141095000Y-65095000D01*
X146379390Y-67160000D02*
X142725686Y-67160000D01*
X150207500Y-73000000D02*
X148565686Y-71358186D01*
%TO.N,VCC*%
X150390000Y-83435000D02*
X150875000Y-83920000D01*
X150390000Y-80200000D02*
X150390000Y-83435000D01*
%TO.N,Net-(D2-K)*%
X149230000Y-90045000D02*
X149250000Y-90025000D01*
X147537500Y-90045000D02*
X149230000Y-90045000D01*
%TO.N,Net-(U5-PA3)*%
X138950000Y-63150000D02*
X137975001Y-63150000D01*
X140710000Y-66290000D02*
X141000000Y-66000000D01*
X175250000Y-78750000D02*
X181750000Y-78750000D01*
X137675000Y-63450001D02*
X137675000Y-66030552D01*
X137934448Y-66290000D02*
X140710000Y-66290000D01*
X137975001Y-63150000D02*
X137675000Y-63450001D01*
X153750000Y-78750000D02*
X141000000Y-66000000D01*
X137675000Y-66030552D02*
X137934448Y-66290000D01*
X141000000Y-66000000D02*
X140877842Y-65877842D01*
X175250000Y-78750000D02*
X153750000Y-78750000D01*
%TO.N,Net-(U3-CS)*%
X137675000Y-78000000D02*
X136350000Y-78000000D01*
%TO.N,Net-(U3-VCC)*%
X131650000Y-78000000D02*
X133650000Y-78000000D01*
%TO.N,Net-(U4-~{ALRT})*%
X150620000Y-71500000D02*
X150620000Y-63617969D01*
X150620000Y-63617969D02*
X146142031Y-59140000D01*
X134974999Y-63150000D02*
X134000000Y-63150000D01*
X138984999Y-59140000D02*
X134974999Y-63150000D01*
X146142031Y-59140000D02*
X138984999Y-59140000D01*
%TO.N,Net-(D3-K)*%
X174700000Y-84000000D02*
X174700000Y-86200000D01*
X174700000Y-86200000D02*
X177000000Y-88500000D01*
%TO.N,Net-(D2-A)*%
X153225000Y-85209744D02*
X153225000Y-83790256D01*
X154509744Y-83475000D02*
X154825000Y-83790256D01*
X154825000Y-86025000D02*
X150825000Y-90025000D01*
X153540256Y-83475000D02*
X154509744Y-83475000D01*
X150875000Y-86460000D02*
X151974744Y-86460000D01*
X153225000Y-83790256D02*
X153540256Y-83475000D01*
X151974744Y-86460000D02*
X153225000Y-85209744D01*
X154825000Y-83790256D02*
X154825000Y-86025000D01*
%TO.N,Net-(J3-CC1)*%
X140725000Y-85972590D02*
X139202410Y-84450000D01*
X139202410Y-84450000D02*
X138445000Y-84450000D01*
X140725000Y-86700000D02*
X140725000Y-85972590D01*
%TO.N,Net-(U1-FB)*%
X179500000Y-90675000D02*
X179000000Y-90675000D01*
X179000000Y-90675000D02*
X179000000Y-84950000D01*
X180825000Y-92000000D02*
X179500000Y-90675000D01*
X177675000Y-92000000D02*
X179000000Y-90675000D01*
%TO.N,2.4k*%
X146235000Y-85500000D02*
X146500000Y-85500000D01*
%TO.N,Net-(Q1-D1{slash}D2-Pad5)*%
X139325000Y-78000000D02*
X141150000Y-78000000D01*
%TD*%
%TA.AperFunction,Conductor*%
%TO.N,GND*%
G36*
X142568039Y-86719685D02*
G01*
X142613794Y-86772489D01*
X142625000Y-86824000D01*
X142625000Y-87674999D01*
X142631581Y-87674999D01*
X142702102Y-87668591D01*
X142702107Y-87668590D01*
X142864396Y-87618018D01*
X143009877Y-87530072D01*
X143130072Y-87409877D01*
X143218019Y-87264395D01*
X143268590Y-87102106D01*
X143274999Y-87031575D01*
X143274999Y-87023607D01*
X143294677Y-86956566D01*
X143347477Y-86910806D01*
X143416635Y-86900857D01*
X143480193Y-86929876D01*
X143486680Y-86935915D01*
X144413261Y-87862496D01*
X144446746Y-87923819D01*
X144449226Y-87943273D01*
X144449309Y-87943267D01*
X144449443Y-87944981D01*
X144449484Y-87945296D01*
X144449499Y-87945685D01*
X144452401Y-87982567D01*
X144452402Y-87982573D01*
X144498254Y-88140393D01*
X144498255Y-88140396D01*
X144498256Y-88140398D01*
X144535024Y-88202569D01*
X144551400Y-88230260D01*
X144568583Y-88297984D01*
X144546423Y-88364247D01*
X144532349Y-88381062D01*
X143352461Y-89560949D01*
X143291138Y-89594434D01*
X143221446Y-89589450D01*
X143165513Y-89547578D01*
X143158663Y-89537417D01*
X143130074Y-89490125D01*
X143130071Y-89490121D01*
X143009877Y-89369927D01*
X142864395Y-89281980D01*
X142864396Y-89281980D01*
X142702105Y-89231409D01*
X142702106Y-89231409D01*
X142631572Y-89225000D01*
X142625000Y-89225000D01*
X142625000Y-90076000D01*
X142605315Y-90143039D01*
X142552511Y-90188794D01*
X142501000Y-90200000D01*
X142249000Y-90200000D01*
X142181961Y-90180315D01*
X142136206Y-90127511D01*
X142125000Y-90076000D01*
X142125000Y-89225000D01*
X142124999Y-89224999D01*
X142118436Y-89225000D01*
X142118417Y-89225001D01*
X142047897Y-89231408D01*
X142047892Y-89231409D01*
X141885603Y-89281981D01*
X141740122Y-89369927D01*
X141740121Y-89369928D01*
X141638035Y-89472015D01*
X141576712Y-89505500D01*
X141507020Y-89500516D01*
X141462673Y-89472015D01*
X141360188Y-89369530D01*
X141247739Y-89301552D01*
X141214606Y-89281522D01*
X141052196Y-89230914D01*
X141052194Y-89230913D01*
X141052192Y-89230913D01*
X141002778Y-89226423D01*
X140981616Y-89224500D01*
X140468384Y-89224500D01*
X140449145Y-89226248D01*
X140397807Y-89230913D01*
X140235393Y-89281522D01*
X140089811Y-89369530D01*
X139969530Y-89489811D01*
X139881522Y-89635393D01*
X139830913Y-89797807D01*
X139824500Y-89868386D01*
X139824500Y-90250500D01*
X139804815Y-90317539D01*
X139752011Y-90363294D01*
X139700500Y-90374500D01*
X139218831Y-90374500D01*
X139151792Y-90354815D01*
X139106037Y-90302011D01*
X139096093Y-90232853D01*
X139104270Y-90203048D01*
X139138840Y-90119586D01*
X139142051Y-90111835D01*
X139165097Y-89995978D01*
X139180500Y-89918543D01*
X139180500Y-89721458D01*
X139178217Y-89709982D01*
X139172193Y-89679698D01*
X139178419Y-89610109D01*
X139221281Y-89554931D01*
X139259215Y-89536430D01*
X139380198Y-89501281D01*
X139521552Y-89417685D01*
X139521561Y-89417678D01*
X139637678Y-89301561D01*
X139637685Y-89301552D01*
X139721281Y-89160198D01*
X139767100Y-89002486D01*
X139767295Y-89000001D01*
X139767295Y-89000000D01*
X138791251Y-89000000D01*
X138773106Y-88994672D01*
X138754200Y-88994335D01*
X138725976Y-88980833D01*
X138724212Y-88980315D01*
X138722402Y-88979130D01*
X138720115Y-88977602D01*
X138675311Y-88923992D01*
X138666602Y-88854667D01*
X138696756Y-88791639D01*
X138756198Y-88754919D01*
X138789006Y-88750500D01*
X139185686Y-88750500D01*
X139185694Y-88750500D01*
X139222569Y-88747598D01*
X139222571Y-88747597D01*
X139222573Y-88747597D01*
X139282105Y-88730301D01*
X139380398Y-88701744D01*
X139521865Y-88618081D01*
X139603628Y-88536317D01*
X139664949Y-88502834D01*
X139691308Y-88500000D01*
X139767295Y-88500000D01*
X139767295Y-88499998D01*
X139767100Y-88497508D01*
X139734555Y-88385491D01*
X139734555Y-88316302D01*
X139767598Y-88202569D01*
X139770500Y-88165694D01*
X139770500Y-87734306D01*
X139767598Y-87697431D01*
X139736894Y-87591750D01*
X139736953Y-87570773D01*
X139732157Y-87550351D01*
X139737073Y-87528753D01*
X139737093Y-87521882D01*
X139739089Y-87515744D01*
X139740162Y-87512714D01*
X139755687Y-87475236D01*
X139757015Y-87465147D01*
X139761369Y-87452859D01*
X139774502Y-87434698D01*
X139783566Y-87414202D01*
X139794580Y-87406934D01*
X139802312Y-87396243D01*
X139823175Y-87388066D01*
X139841884Y-87375722D01*
X139855079Y-87375563D01*
X139867364Y-87370749D01*
X139889338Y-87375150D01*
X139911749Y-87374881D01*
X139924112Y-87382116D01*
X139935873Y-87384472D01*
X139947713Y-87395927D01*
X139965931Y-87406589D01*
X140089811Y-87530469D01*
X140089813Y-87530470D01*
X140089815Y-87530472D01*
X140235394Y-87618478D01*
X140361474Y-87657765D01*
X140419622Y-87696503D01*
X140439146Y-87728700D01*
X140440422Y-87731780D01*
X140440423Y-87731784D01*
X140440424Y-87731787D01*
X140440426Y-87731790D01*
X140519475Y-87868709D01*
X140519478Y-87868713D01*
X140519480Y-87868716D01*
X140631284Y-87980520D01*
X140631286Y-87980521D01*
X140631290Y-87980524D01*
X140681614Y-88009578D01*
X140768216Y-88059577D01*
X140920943Y-88100500D01*
X141025979Y-88100500D01*
X141025995Y-88100501D01*
X141033591Y-88100501D01*
X141191702Y-88100501D01*
X141191705Y-88100501D01*
X141344433Y-88059577D01*
X141431035Y-88009577D01*
X141481364Y-87980520D01*
X141593168Y-87868716D01*
X141593168Y-87868714D01*
X141603372Y-87858511D01*
X141603376Y-87858506D01*
X141793713Y-87668169D01*
X141793716Y-87668168D01*
X141800785Y-87661098D01*
X141831093Y-87644553D01*
X141862095Y-87627624D01*
X141862102Y-87627624D01*
X141862109Y-87627621D01*
X141862239Y-87627630D01*
X141925347Y-87630403D01*
X142047898Y-87668591D01*
X142118408Y-87674998D01*
X142118426Y-87674999D01*
X142124999Y-87674998D01*
X142125000Y-87674998D01*
X142125000Y-86824000D01*
X142144685Y-86756961D01*
X142197489Y-86711206D01*
X142249000Y-86700000D01*
X142501000Y-86700000D01*
X142568039Y-86719685D01*
G37*
%TD.AperFunction*%
%TA.AperFunction,Conductor*%
G36*
X144506572Y-79770184D02*
G01*
X144552327Y-79822988D01*
X144562891Y-79887100D01*
X144562000Y-79895813D01*
X144562000Y-80504181D01*
X144572063Y-80602683D01*
X144624950Y-80762284D01*
X144624955Y-80762295D01*
X144713216Y-80905387D01*
X144713219Y-80905391D01*
X144832108Y-81024280D01*
X144832112Y-81024283D01*
X144975204Y-81112544D01*
X144975207Y-81112545D01*
X144975213Y-81112549D01*
X145134815Y-81165436D01*
X145233326Y-81175500D01*
X145233331Y-81175500D01*
X145766669Y-81175500D01*
X145766674Y-81175500D01*
X145865185Y-81165436D01*
X146024787Y-81112549D01*
X146167891Y-81024281D01*
X146199819Y-80992353D01*
X146261142Y-80958868D01*
X146330834Y-80963852D01*
X146375181Y-80992353D01*
X146407108Y-81024280D01*
X146407112Y-81024283D01*
X146550204Y-81112544D01*
X146550207Y-81112545D01*
X146550213Y-81112549D01*
X146709815Y-81165436D01*
X146808326Y-81175500D01*
X146808331Y-81175500D01*
X147341669Y-81175500D01*
X147341674Y-81175500D01*
X147440185Y-81165436D01*
X147599787Y-81112549D01*
X147742891Y-81024281D01*
X147861781Y-80905391D01*
X147950049Y-80762287D01*
X148002936Y-80602685D01*
X148013000Y-80504174D01*
X148013000Y-80162598D01*
X148021645Y-80133155D01*
X148028170Y-80103167D01*
X148031923Y-80098153D01*
X148032685Y-80095559D01*
X148049322Y-80074913D01*
X148062421Y-80061815D01*
X148123746Y-80028333D01*
X148150099Y-80025500D01*
X149365500Y-80025500D01*
X149432539Y-80045185D01*
X149478294Y-80097989D01*
X149489500Y-80149500D01*
X149489500Y-80531616D01*
X149491423Y-80552778D01*
X149495913Y-80602192D01*
X149495913Y-80602194D01*
X149495914Y-80602196D01*
X149546522Y-80764606D01*
X149634528Y-80910185D01*
X149753182Y-81028839D01*
X149786666Y-81090160D01*
X149789500Y-81116519D01*
X149789500Y-83097587D01*
X149769815Y-83164626D01*
X149728622Y-83204319D01*
X149648135Y-83251919D01*
X149648129Y-83251923D01*
X149531923Y-83368129D01*
X149531917Y-83368137D01*
X149468725Y-83474991D01*
X149448256Y-83509602D01*
X149426322Y-83585095D01*
X149388717Y-83643980D01*
X149325245Y-83673187D01*
X149307247Y-83674500D01*
X147492233Y-83674500D01*
X147425194Y-83654815D01*
X147379439Y-83602011D01*
X147373156Y-83585095D01*
X147351281Y-83509801D01*
X147267685Y-83368447D01*
X147267678Y-83368438D01*
X147151561Y-83252321D01*
X147151552Y-83252314D01*
X147010196Y-83168717D01*
X147010193Y-83168716D01*
X146852495Y-83122900D01*
X146852489Y-83122899D01*
X146815649Y-83120000D01*
X146175000Y-83120000D01*
X146175000Y-83796000D01*
X146155315Y-83863039D01*
X146102511Y-83908794D01*
X146051000Y-83920000D01*
X145925000Y-83920000D01*
X145925000Y-84046000D01*
X145905315Y-84113039D01*
X145852511Y-84158794D01*
X145801000Y-84170000D01*
X144452705Y-84170000D01*
X144452704Y-84170001D01*
X144452899Y-84172486D01*
X144498718Y-84330198D01*
X144582314Y-84471552D01*
X144587100Y-84477722D01*
X144584640Y-84479629D01*
X144611210Y-84528288D01*
X144606226Y-84597980D01*
X144585162Y-84630781D01*
X144586699Y-84631974D01*
X144581915Y-84638140D01*
X144498255Y-84779603D01*
X144498254Y-84779606D01*
X144452402Y-84937426D01*
X144452401Y-84937432D01*
X144449500Y-84974298D01*
X144449500Y-85405701D01*
X144452401Y-85442567D01*
X144452402Y-85442573D01*
X144498254Y-85600393D01*
X144498255Y-85600396D01*
X144498256Y-85600398D01*
X144517578Y-85633070D01*
X144581917Y-85741862D01*
X144586702Y-85748031D01*
X144584369Y-85749840D01*
X144611210Y-85798995D01*
X144606226Y-85868687D01*
X144595943Y-85889862D01*
X144505054Y-86039067D01*
X144479782Y-86062053D01*
X144454818Y-86085363D01*
X144453989Y-86085513D01*
X144453367Y-86086080D01*
X144419675Y-86091754D01*
X144386076Y-86097866D01*
X144385298Y-86097545D01*
X144384468Y-86097685D01*
X144353030Y-86084233D01*
X144321487Y-86071220D01*
X144320455Y-86070294D01*
X144320232Y-86070199D01*
X144320051Y-86069932D01*
X144311474Y-86062239D01*
X142865367Y-84616132D01*
X142831882Y-84554809D01*
X142836866Y-84485117D01*
X142878738Y-84429184D01*
X142914044Y-84410745D01*
X143069119Y-84359358D01*
X143069124Y-84359356D01*
X143218345Y-84267315D01*
X143342315Y-84143345D01*
X143434356Y-83994124D01*
X143434358Y-83994119D01*
X143489505Y-83827697D01*
X143489506Y-83827690D01*
X143499999Y-83724986D01*
X143500000Y-83724973D01*
X143500000Y-83669998D01*
X144452704Y-83669998D01*
X144452705Y-83670000D01*
X145675000Y-83670000D01*
X145675000Y-83120000D01*
X145034350Y-83120000D01*
X144997510Y-83122899D01*
X144997504Y-83122900D01*
X144839806Y-83168716D01*
X144839803Y-83168717D01*
X144698447Y-83252314D01*
X144698438Y-83252321D01*
X144582321Y-83368438D01*
X144582314Y-83368447D01*
X144498718Y-83509801D01*
X144452899Y-83667513D01*
X144452704Y-83669998D01*
X143500000Y-83669998D01*
X143500000Y-83450000D01*
X142624000Y-83450000D01*
X142556961Y-83430315D01*
X142511206Y-83377511D01*
X142500000Y-83326000D01*
X142500000Y-83200000D01*
X142374000Y-83200000D01*
X142306961Y-83180315D01*
X142261206Y-83127511D01*
X142250000Y-83076000D01*
X142250000Y-82950000D01*
X142750000Y-82950000D01*
X143499999Y-82950000D01*
X143499999Y-82675028D01*
X143499998Y-82675013D01*
X143489505Y-82572302D01*
X143434358Y-82405880D01*
X143434356Y-82405875D01*
X143342315Y-82256654D01*
X143218345Y-82132684D01*
X143069124Y-82040643D01*
X143069119Y-82040641D01*
X142902697Y-81985494D01*
X142902690Y-81985493D01*
X142799986Y-81975000D01*
X142750000Y-81975000D01*
X142750000Y-82950000D01*
X142250000Y-82950000D01*
X142250000Y-81975000D01*
X142249999Y-81974999D01*
X142200029Y-81975000D01*
X142200011Y-81975001D01*
X142097302Y-81985494D01*
X141930880Y-82040641D01*
X141930875Y-82040643D01*
X141781654Y-82132684D01*
X141657683Y-82256655D01*
X141657679Y-82256660D01*
X141655826Y-82259665D01*
X141654018Y-82261290D01*
X141653202Y-82262323D01*
X141653025Y-82262183D01*
X141603874Y-82306385D01*
X141534911Y-82317601D01*
X141470831Y-82289752D01*
X141444753Y-82259653D01*
X141444737Y-82259628D01*
X141442712Y-82256344D01*
X141318656Y-82132288D01*
X141195532Y-82056345D01*
X141169336Y-82040187D01*
X141169331Y-82040185D01*
X141112602Y-82021387D01*
X141002797Y-81985001D01*
X141002795Y-81985000D01*
X140900010Y-81974500D01*
X140299998Y-81974500D01*
X140299980Y-81974501D01*
X140197203Y-81985000D01*
X140197200Y-81985001D01*
X140030668Y-82040185D01*
X140030661Y-82040188D01*
X139955259Y-82086696D01*
X139887867Y-82105135D01*
X139821203Y-82084211D01*
X139776435Y-82030569D01*
X139768181Y-82003430D01*
X139767098Y-81997503D01*
X139721283Y-81839806D01*
X139721282Y-81839803D01*
X139637685Y-81698447D01*
X139637678Y-81698438D01*
X139521561Y-81582321D01*
X139521552Y-81582314D01*
X139380196Y-81498717D01*
X139380193Y-81498715D01*
X139259215Y-81463568D01*
X139200329Y-81425962D01*
X139171123Y-81362489D01*
X139172192Y-81320303D01*
X139180500Y-81278541D01*
X139180500Y-81081459D01*
X139180500Y-81081456D01*
X139142052Y-80888170D01*
X139142051Y-80888169D01*
X139142051Y-80888165D01*
X139112509Y-80816844D01*
X139066635Y-80706092D01*
X139066628Y-80706079D01*
X138957139Y-80542218D01*
X138957136Y-80542214D01*
X138817785Y-80402863D01*
X138817781Y-80402860D01*
X138779980Y-80377602D01*
X138735175Y-80323990D01*
X138726468Y-80254665D01*
X138756623Y-80191637D01*
X138816066Y-80154918D01*
X138848871Y-80150500D01*
X143079055Y-80150500D01*
X143079057Y-80150500D01*
X143231784Y-80109577D01*
X143368716Y-80030520D01*
X143480520Y-79918716D01*
X143483825Y-79912990D01*
X143541844Y-79812500D01*
X143592410Y-79764284D01*
X143649231Y-79750499D01*
X144439533Y-79750499D01*
X144506572Y-79770184D01*
G37*
%TD.AperFunction*%
%TA.AperFunction,Conductor*%
G36*
X184442539Y-57520184D02*
G01*
X184488294Y-57572988D01*
X184499500Y-57624499D01*
X184499500Y-97375499D01*
X184479815Y-97442538D01*
X184427011Y-97488293D01*
X184375500Y-97499499D01*
X129724748Y-97499499D01*
X129657709Y-97479814D01*
X129611954Y-97427010D01*
X129600748Y-97375499D01*
X129600748Y-95063389D01*
X156999500Y-95063389D01*
X156999500Y-96136611D01*
X157026598Y-96307701D01*
X157080127Y-96472445D01*
X157158768Y-96626788D01*
X157260586Y-96766928D01*
X157383072Y-96889414D01*
X157523212Y-96991232D01*
X157677555Y-97069873D01*
X157842299Y-97123402D01*
X158013389Y-97150500D01*
X158013390Y-97150500D01*
X158186610Y-97150500D01*
X158186611Y-97150500D01*
X158357701Y-97123402D01*
X158522445Y-97069873D01*
X158676788Y-96991232D01*
X158816928Y-96889414D01*
X158939414Y-96766928D01*
X159041232Y-96626788D01*
X159119873Y-96472445D01*
X159173402Y-96307701D01*
X159200500Y-96136611D01*
X159200500Y-95063389D01*
X169799500Y-95063389D01*
X169799500Y-96136611D01*
X169826598Y-96307701D01*
X169880127Y-96472445D01*
X169958768Y-96626788D01*
X170060586Y-96766928D01*
X170183072Y-96889414D01*
X170323212Y-96991232D01*
X170477555Y-97069873D01*
X170642299Y-97123402D01*
X170813389Y-97150500D01*
X170813390Y-97150500D01*
X170986610Y-97150500D01*
X170986611Y-97150500D01*
X171157701Y-97123402D01*
X171322445Y-97069873D01*
X171476788Y-96991232D01*
X171616928Y-96889414D01*
X171739414Y-96766928D01*
X171841232Y-96626788D01*
X171919873Y-96472445D01*
X171973402Y-96307701D01*
X172000500Y-96136611D01*
X172000500Y-95063389D01*
X171973402Y-94892299D01*
X171919873Y-94727555D01*
X171841232Y-94573212D01*
X171739414Y-94433072D01*
X171616928Y-94310586D01*
X171476788Y-94208768D01*
X171322445Y-94130127D01*
X171157701Y-94076598D01*
X171157699Y-94076597D01*
X171157698Y-94076597D01*
X171026271Y-94055781D01*
X170986611Y-94049500D01*
X170813389Y-94049500D01*
X170773728Y-94055781D01*
X170642302Y-94076597D01*
X170477552Y-94130128D01*
X170323211Y-94208768D01*
X170243256Y-94266859D01*
X170183072Y-94310586D01*
X170183070Y-94310588D01*
X170183069Y-94310588D01*
X170060588Y-94433069D01*
X170060588Y-94433070D01*
X170060586Y-94433072D01*
X170016859Y-94493256D01*
X169958768Y-94573211D01*
X169880128Y-94727552D01*
X169826597Y-94892302D01*
X169799500Y-95063389D01*
X159200500Y-95063389D01*
X159173402Y-94892299D01*
X159119873Y-94727555D01*
X159041232Y-94573212D01*
X158939414Y-94433072D01*
X158816928Y-94310586D01*
X158676788Y-94208768D01*
X158522445Y-94130127D01*
X158357701Y-94076598D01*
X158357699Y-94076597D01*
X158357698Y-94076597D01*
X158226271Y-94055781D01*
X158186611Y-94049500D01*
X158013389Y-94049500D01*
X157973728Y-94055781D01*
X157842302Y-94076597D01*
X157677552Y-94130128D01*
X157523211Y-94208768D01*
X157443256Y-94266859D01*
X157383072Y-94310586D01*
X157383070Y-94310588D01*
X157383069Y-94310588D01*
X157260588Y-94433069D01*
X157260588Y-94433070D01*
X157260586Y-94433072D01*
X157216859Y-94493256D01*
X157158768Y-94573211D01*
X157080128Y-94727552D01*
X157026597Y-94892302D01*
X156999500Y-95063389D01*
X129600748Y-95063389D01*
X129600748Y-89918543D01*
X132149499Y-89918543D01*
X132187947Y-90111829D01*
X132187950Y-90111839D01*
X132263364Y-90293907D01*
X132263371Y-90293920D01*
X132372860Y-90457781D01*
X132372863Y-90457785D01*
X132512214Y-90597136D01*
X132512218Y-90597139D01*
X132676079Y-90706628D01*
X132676092Y-90706635D01*
X132793304Y-90755185D01*
X132858165Y-90782051D01*
X132858169Y-90782051D01*
X132858170Y-90782052D01*
X133051456Y-90820500D01*
X133051459Y-90820500D01*
X133848543Y-90820500D01*
X134032700Y-90783868D01*
X134041835Y-90782051D01*
X134223914Y-90706632D01*
X134387782Y-90597139D01*
X134527139Y-90457782D01*
X134636632Y-90293914D01*
X134712051Y-90111835D01*
X134735097Y-89995978D01*
X134750500Y-89918543D01*
X134750500Y-89721456D01*
X134712052Y-89528170D01*
X134712051Y-89528169D01*
X134712051Y-89528165D01*
X134702663Y-89505500D01*
X134636635Y-89346092D01*
X134636628Y-89346079D01*
X134527139Y-89182218D01*
X134527136Y-89182214D01*
X134387785Y-89042863D01*
X134387781Y-89042860D01*
X134223920Y-88933371D01*
X134223907Y-88933364D01*
X134041839Y-88857950D01*
X134041829Y-88857947D01*
X133848543Y-88819500D01*
X133848541Y-88819500D01*
X133051459Y-88819500D01*
X133051457Y-88819500D01*
X132858170Y-88857947D01*
X132858160Y-88857950D01*
X132676092Y-88933364D01*
X132676079Y-88933371D01*
X132512218Y-89042860D01*
X132512214Y-89042863D01*
X132372863Y-89182214D01*
X132372860Y-89182218D01*
X132263371Y-89346079D01*
X132263364Y-89346092D01*
X132187950Y-89528160D01*
X132187947Y-89528170D01*
X132149500Y-89721456D01*
X132149500Y-89721458D01*
X132149500Y-89721459D01*
X132149500Y-89918541D01*
X132149500Y-89918543D01*
X132149499Y-89918543D01*
X129600748Y-89918543D01*
X129600748Y-81278543D01*
X132149499Y-81278543D01*
X132187947Y-81471829D01*
X132187950Y-81471839D01*
X132263364Y-81653907D01*
X132263371Y-81653920D01*
X132372860Y-81817781D01*
X132372863Y-81817785D01*
X132512214Y-81957136D01*
X132512218Y-81957139D01*
X132676079Y-82066628D01*
X132676092Y-82066635D01*
X132834595Y-82132288D01*
X132858165Y-82142051D01*
X132858169Y-82142051D01*
X132858170Y-82142052D01*
X133051456Y-82180500D01*
X133051459Y-82180500D01*
X133848543Y-82180500D01*
X133978582Y-82154632D01*
X134041835Y-82142051D01*
X134223914Y-82066632D01*
X134387782Y-81957139D01*
X134527139Y-81817782D01*
X134636632Y-81653914D01*
X134641140Y-81643032D01*
X134653721Y-81612655D01*
X134712051Y-81471835D01*
X134750500Y-81278541D01*
X134750500Y-81081459D01*
X134750500Y-81081456D01*
X134712052Y-80888170D01*
X134712051Y-80888169D01*
X134712051Y-80888165D01*
X134682509Y-80816844D01*
X134636635Y-80706092D01*
X134636628Y-80706079D01*
X134527139Y-80542218D01*
X134527136Y-80542214D01*
X134387785Y-80402863D01*
X134387781Y-80402860D01*
X134223920Y-80293371D01*
X134223907Y-80293364D01*
X134041839Y-80217950D01*
X134041829Y-80217947D01*
X133848543Y-80179500D01*
X133848541Y-80179500D01*
X133051459Y-80179500D01*
X133051457Y-80179500D01*
X132858170Y-80217947D01*
X132858160Y-80217950D01*
X132676092Y-80293364D01*
X132676079Y-80293371D01*
X132512218Y-80402860D01*
X132512214Y-80402863D01*
X132372863Y-80542214D01*
X132372860Y-80542218D01*
X132263371Y-80706079D01*
X132263364Y-80706092D01*
X132187950Y-80888160D01*
X132187947Y-80888170D01*
X132149500Y-81081456D01*
X132149500Y-81081459D01*
X132149500Y-81278541D01*
X132149500Y-81278543D01*
X132149499Y-81278543D01*
X129600748Y-81278543D01*
X129600748Y-79098316D01*
X129620433Y-79031277D01*
X129673237Y-78985522D01*
X129735976Y-78974826D01*
X129743384Y-78975500D01*
X129743391Y-78975500D01*
X130256613Y-78975500D01*
X130256616Y-78975500D01*
X130327196Y-78969086D01*
X130489606Y-78918478D01*
X130635185Y-78830472D01*
X130658985Y-78806672D01*
X130737319Y-78728339D01*
X130798642Y-78694854D01*
X130868334Y-78699838D01*
X130912681Y-78728339D01*
X131014811Y-78830469D01*
X131014813Y-78830470D01*
X131014815Y-78830472D01*
X131160394Y-78918478D01*
X131322804Y-78969086D01*
X131393384Y-78975500D01*
X131393387Y-78975500D01*
X131906613Y-78975500D01*
X131906616Y-78975500D01*
X131977196Y-78969086D01*
X132139606Y-78918478D01*
X132285185Y-78830472D01*
X132387820Y-78727836D01*
X132449141Y-78694353D01*
X132518833Y-78699337D01*
X132574767Y-78741208D01*
X132599184Y-78806672D01*
X132599500Y-78815519D01*
X132599500Y-79297870D01*
X132599501Y-79297876D01*
X132605908Y-79357483D01*
X132656202Y-79492328D01*
X132656206Y-79492335D01*
X132742452Y-79607544D01*
X132742455Y-79607547D01*
X132857664Y-79693793D01*
X132857671Y-79693797D01*
X132992517Y-79744091D01*
X132992516Y-79744091D01*
X132999444Y-79744835D01*
X133052127Y-79750500D01*
X134247872Y-79750499D01*
X134307483Y-79744091D01*
X134442331Y-79693796D01*
X134557546Y-79607546D01*
X134643796Y-79492331D01*
X134694091Y-79357483D01*
X134700500Y-79297873D01*
X134700499Y-78602128D01*
X134694091Y-78542517D01*
X134685070Y-78518333D01*
X134680085Y-78448644D01*
X134685066Y-78431677D01*
X134694091Y-78407483D01*
X134700500Y-78347873D01*
X134700499Y-77652128D01*
X134694091Y-77592517D01*
X134685070Y-77568333D01*
X134680085Y-77498644D01*
X134685066Y-77481677D01*
X134694091Y-77457483D01*
X134700500Y-77397873D01*
X134700499Y-76702128D01*
X134694091Y-76642517D01*
X134688933Y-76628689D01*
X134643797Y-76507671D01*
X134643793Y-76507664D01*
X134557547Y-76392455D01*
X134557544Y-76392452D01*
X134442335Y-76306206D01*
X134442328Y-76306202D01*
X134307482Y-76255908D01*
X134307483Y-76255908D01*
X134247883Y-76249501D01*
X134247881Y-76249500D01*
X134247873Y-76249500D01*
X134247864Y-76249500D01*
X133052129Y-76249500D01*
X133052123Y-76249501D01*
X132992516Y-76255908D01*
X132857671Y-76306202D01*
X132857664Y-76306206D01*
X132742455Y-76392452D01*
X132742452Y-76392455D01*
X132656206Y-76507664D01*
X132656202Y-76507671D01*
X132605910Y-76642513D01*
X132605909Y-76642517D01*
X132599500Y-76702127D01*
X132599500Y-76702134D01*
X132599500Y-76702135D01*
X132599500Y-77184480D01*
X132579815Y-77251519D01*
X132527011Y-77297274D01*
X132457853Y-77307218D01*
X132394297Y-77278193D01*
X132387819Y-77272161D01*
X132285188Y-77169530D01*
X132214853Y-77127011D01*
X132139606Y-77081522D01*
X131977196Y-77030914D01*
X131977194Y-77030913D01*
X131977192Y-77030913D01*
X131927778Y-77026423D01*
X131906616Y-77024500D01*
X131393384Y-77024500D01*
X131374145Y-77026248D01*
X131322807Y-77030913D01*
X131160393Y-77081522D01*
X131014811Y-77169530D01*
X131014810Y-77169531D01*
X130912681Y-77271661D01*
X130904735Y-77275999D01*
X130899310Y-77283247D01*
X130874550Y-77292481D01*
X130851358Y-77305146D01*
X130842328Y-77304500D01*
X130833846Y-77307664D01*
X130808025Y-77302047D01*
X130781666Y-77300162D01*
X130772612Y-77294343D01*
X130765573Y-77292812D01*
X130737319Y-77271661D01*
X130636819Y-77171161D01*
X130603334Y-77109838D01*
X130600500Y-77083480D01*
X130600500Y-75495096D01*
X130620185Y-75428057D01*
X130636814Y-75407419D01*
X131689138Y-74355095D01*
X131750459Y-74321612D01*
X131789421Y-74319420D01*
X131799991Y-74320500D01*
X132400008Y-74320499D01*
X132400016Y-74320498D01*
X132400019Y-74320498D01*
X132456302Y-74314748D01*
X132502797Y-74309999D01*
X132669334Y-74254814D01*
X132818656Y-74162712D01*
X132942712Y-74038656D01*
X132944752Y-74035347D01*
X132946745Y-74033555D01*
X132947193Y-74032989D01*
X132947289Y-74033065D01*
X132996694Y-73988623D01*
X133065656Y-73977395D01*
X133129740Y-74005234D01*
X133155829Y-74035339D01*
X133157681Y-74038341D01*
X133157683Y-74038344D01*
X133281654Y-74162315D01*
X133430875Y-74254356D01*
X133430880Y-74254358D01*
X133597302Y-74309505D01*
X133597309Y-74309506D01*
X133700019Y-74319999D01*
X133749999Y-74319998D01*
X133750000Y-74319998D01*
X133750000Y-71870000D01*
X133749999Y-71869999D01*
X133700029Y-71870000D01*
X133700011Y-71870001D01*
X133597302Y-71880494D01*
X133430880Y-71935641D01*
X133430875Y-71935643D01*
X133281654Y-72027684D01*
X133157683Y-72151655D01*
X133157679Y-72151660D01*
X133155826Y-72154665D01*
X133154018Y-72156290D01*
X133153202Y-72157323D01*
X133153025Y-72157183D01*
X133103874Y-72201385D01*
X133034911Y-72212601D01*
X132970831Y-72184752D01*
X132944753Y-72154653D01*
X132944737Y-72154628D01*
X132942712Y-72151344D01*
X132818656Y-72027288D01*
X132669334Y-71935186D01*
X132502797Y-71880001D01*
X132502795Y-71880000D01*
X132400010Y-71869500D01*
X131799998Y-71869500D01*
X131799980Y-71869501D01*
X131697203Y-71880000D01*
X131697200Y-71880001D01*
X131530668Y-71935185D01*
X131530663Y-71935187D01*
X131381342Y-72027289D01*
X131257289Y-72151342D01*
X131165187Y-72300663D01*
X131165185Y-72300668D01*
X131163701Y-72305146D01*
X131110001Y-72467203D01*
X131110001Y-72467204D01*
X131110000Y-72467204D01*
X131099500Y-72569983D01*
X131099500Y-73194902D01*
X131079815Y-73261941D01*
X131063181Y-73282583D01*
X129812429Y-74533335D01*
X129751106Y-74566820D01*
X129681414Y-74561836D01*
X129625481Y-74519964D01*
X129601064Y-74454500D01*
X129600748Y-74445654D01*
X129600748Y-63639606D01*
X132124498Y-63639606D01*
X132124499Y-63639609D01*
X132165423Y-63792337D01*
X132165424Y-63792339D01*
X132165423Y-63792339D01*
X132180654Y-63818718D01*
X132180655Y-63818719D01*
X132208359Y-63866704D01*
X132244479Y-63929266D01*
X132244481Y-63929269D01*
X132363349Y-64048137D01*
X132363355Y-64048142D01*
X132488181Y-64172968D01*
X132521666Y-64234291D01*
X132524500Y-64260649D01*
X132524500Y-64635701D01*
X132527401Y-64672567D01*
X132527402Y-64672573D01*
X132573254Y-64830393D01*
X132573255Y-64830396D01*
X132656917Y-64971862D01*
X132661702Y-64978031D01*
X132659256Y-64979927D01*
X132685857Y-65028642D01*
X132680873Y-65098334D01*
X132660069Y-65130703D01*
X132661702Y-65131969D01*
X132656917Y-65138137D01*
X132573255Y-65279603D01*
X132573254Y-65279606D01*
X132527402Y-65437426D01*
X132527401Y-65437432D01*
X132524500Y-65474298D01*
X132524500Y-65905701D01*
X132527401Y-65942567D01*
X132527402Y-65942573D01*
X132573254Y-66100393D01*
X132573255Y-66100396D01*
X132573256Y-66100398D01*
X132600500Y-66146465D01*
X132656917Y-66241862D01*
X132661702Y-66248031D01*
X132659256Y-66249927D01*
X132685857Y-66298642D01*
X132680873Y-66368334D01*
X132660069Y-66400703D01*
X132661702Y-66401969D01*
X132656917Y-66408137D01*
X132573255Y-66549603D01*
X132573254Y-66549606D01*
X132527402Y-66707426D01*
X132527401Y-66707432D01*
X132524500Y-66744298D01*
X132524500Y-67175701D01*
X132527401Y-67212567D01*
X132527402Y-67212573D01*
X132573254Y-67370393D01*
X132573255Y-67370396D01*
X132656917Y-67511862D01*
X132661702Y-67518031D01*
X132659256Y-67519927D01*
X132685857Y-67568642D01*
X132680873Y-67638334D01*
X132660069Y-67670703D01*
X132661702Y-67671969D01*
X132656917Y-67678137D01*
X132573255Y-67819603D01*
X132573254Y-67819606D01*
X132527402Y-67977426D01*
X132527401Y-67977432D01*
X132524500Y-68014298D01*
X132524500Y-68445701D01*
X132527401Y-68482567D01*
X132527402Y-68482573D01*
X132573254Y-68640393D01*
X132573255Y-68640396D01*
X132656917Y-68781862D01*
X132661702Y-68788031D01*
X132659256Y-68789927D01*
X132685857Y-68838642D01*
X132680873Y-68908334D01*
X132660069Y-68940703D01*
X132661702Y-68941969D01*
X132656917Y-68948137D01*
X132573255Y-69089603D01*
X132573254Y-69089606D01*
X132527402Y-69247426D01*
X132527401Y-69247432D01*
X132524500Y-69284298D01*
X132524500Y-69715701D01*
X132527401Y-69752567D01*
X132527402Y-69752573D01*
X132573254Y-69910393D01*
X132573255Y-69910396D01*
X132656917Y-70051862D01*
X132656923Y-70051870D01*
X132773129Y-70168076D01*
X132773133Y-70168079D01*
X132773135Y-70168081D01*
X132914602Y-70251744D01*
X132956224Y-70263836D01*
X133072426Y-70297597D01*
X133072429Y-70297597D01*
X133072431Y-70297598D01*
X133109306Y-70300500D01*
X133109314Y-70300500D01*
X134890686Y-70300500D01*
X134890694Y-70300500D01*
X134927569Y-70297598D01*
X134927571Y-70297597D01*
X134927573Y-70297597D01*
X134976507Y-70283380D01*
X135085398Y-70251744D01*
X135212379Y-70176648D01*
X135280103Y-70159465D01*
X135346366Y-70181625D01*
X135390129Y-70236091D01*
X135399500Y-70283380D01*
X135399500Y-72083480D01*
X135379815Y-72150519D01*
X135363181Y-72171161D01*
X135244531Y-72289810D01*
X135244528Y-72289814D01*
X135181002Y-72394898D01*
X135129474Y-72442085D01*
X135060615Y-72453923D01*
X134996286Y-72426654D01*
X134957180Y-72369751D01*
X134934358Y-72300880D01*
X134934356Y-72300875D01*
X134842315Y-72151654D01*
X134718345Y-72027684D01*
X134569124Y-71935643D01*
X134569119Y-71935641D01*
X134402697Y-71880494D01*
X134402690Y-71880493D01*
X134299986Y-71870000D01*
X134250000Y-71870000D01*
X134250000Y-74319999D01*
X134299972Y-74319999D01*
X134299986Y-74319998D01*
X134402697Y-74309505D01*
X134569119Y-74254358D01*
X134569124Y-74254356D01*
X134718345Y-74162315D01*
X134842315Y-74038345D01*
X134934356Y-73889124D01*
X134934358Y-73889119D01*
X134989505Y-73722697D01*
X134989505Y-73722694D01*
X134989786Y-73719949D01*
X134990433Y-73718361D01*
X134990924Y-73716071D01*
X134991332Y-73716158D01*
X135016176Y-73655255D01*
X135073353Y-73615098D01*
X135143163Y-73612228D01*
X135203443Y-73647556D01*
X135219261Y-73668389D01*
X135244528Y-73710185D01*
X135244531Y-73710189D01*
X135364811Y-73830469D01*
X135364813Y-73830470D01*
X135364815Y-73830472D01*
X135510394Y-73918478D01*
X135672804Y-73969086D01*
X135743384Y-73975500D01*
X135743387Y-73975500D01*
X136256613Y-73975500D01*
X136256616Y-73975500D01*
X136327196Y-73969086D01*
X136489606Y-73918478D01*
X136635185Y-73830472D01*
X136655767Y-73809890D01*
X136737319Y-73728339D01*
X136798642Y-73694854D01*
X136868334Y-73699838D01*
X136912681Y-73728339D01*
X137014811Y-73830469D01*
X137014813Y-73830470D01*
X137014815Y-73830472D01*
X137160394Y-73918478D01*
X137322804Y-73969086D01*
X137393384Y-73975500D01*
X137393387Y-73975500D01*
X137906613Y-73975500D01*
X137906616Y-73975500D01*
X137977196Y-73969086D01*
X138139606Y-73918478D01*
X138285185Y-73830472D01*
X138405472Y-73710185D01*
X138493478Y-73564606D01*
X138544086Y-73402196D01*
X138550500Y-73331616D01*
X138550500Y-72668386D01*
X139224500Y-72668386D01*
X139224500Y-73331613D01*
X139230913Y-73402192D01*
X139230913Y-73402194D01*
X139230914Y-73402196D01*
X139281522Y-73564606D01*
X139349883Y-73677689D01*
X139369530Y-73710188D01*
X139489811Y-73830469D01*
X139489813Y-73830470D01*
X139489815Y-73830472D01*
X139635394Y-73918478D01*
X139797804Y-73969086D01*
X139868384Y-73975500D01*
X139868387Y-73975500D01*
X140381613Y-73975500D01*
X140381616Y-73975500D01*
X140452196Y-73969086D01*
X140614606Y-73918478D01*
X140760185Y-73830472D01*
X140780767Y-73809890D01*
X140862319Y-73728339D01*
X140923642Y-73694854D01*
X140993334Y-73699838D01*
X141037681Y-73728339D01*
X141139811Y-73830469D01*
X141139813Y-73830470D01*
X141139815Y-73830472D01*
X141285394Y-73918478D01*
X141447804Y-73969086D01*
X141518384Y-73975500D01*
X141518387Y-73975500D01*
X142031613Y-73975500D01*
X142031616Y-73975500D01*
X142102196Y-73969086D01*
X142264606Y-73918478D01*
X142410185Y-73830472D01*
X142530472Y-73710185D01*
X142618478Y-73564606D01*
X142669086Y-73402196D01*
X142675500Y-73331616D01*
X142675500Y-72668384D01*
X142669086Y-72597804D01*
X142618478Y-72435394D01*
X142530472Y-72289815D01*
X142530470Y-72289813D01*
X142530469Y-72289811D01*
X142410188Y-72169530D01*
X142389995Y-72157323D01*
X142264606Y-72081522D01*
X142102196Y-72030914D01*
X142102194Y-72030913D01*
X142102192Y-72030913D01*
X142052778Y-72026423D01*
X142031616Y-72024500D01*
X141518384Y-72024500D01*
X141499145Y-72026248D01*
X141447807Y-72030913D01*
X141285393Y-72081522D01*
X141139811Y-72169530D01*
X141139810Y-72169531D01*
X141037681Y-72271661D01*
X140976358Y-72305146D01*
X140906666Y-72300162D01*
X140862319Y-72271661D01*
X140760188Y-72169530D01*
X140739995Y-72157323D01*
X140614606Y-72081522D01*
X140452196Y-72030914D01*
X140452194Y-72030913D01*
X140452192Y-72030913D01*
X140402778Y-72026423D01*
X140381616Y-72024500D01*
X139868384Y-72024500D01*
X139849145Y-72026248D01*
X139797807Y-72030913D01*
X139635393Y-72081522D01*
X139489811Y-72169530D01*
X139369530Y-72289811D01*
X139281522Y-72435393D01*
X139230913Y-72597807D01*
X139224500Y-72668386D01*
X138550500Y-72668386D01*
X138550500Y-72668384D01*
X138544086Y-72597804D01*
X138493478Y-72435394D01*
X138405472Y-72289815D01*
X138405470Y-72289813D01*
X138405469Y-72289811D01*
X138285188Y-72169530D01*
X138264995Y-72157323D01*
X138139606Y-72081522D01*
X137977196Y-72030914D01*
X137977194Y-72030913D01*
X137977192Y-72030913D01*
X137927778Y-72026423D01*
X137906616Y-72024500D01*
X137393384Y-72024500D01*
X137374145Y-72026248D01*
X137322807Y-72030913D01*
X137160393Y-72081522D01*
X137014811Y-72169530D01*
X137014810Y-72169531D01*
X136912681Y-72271661D01*
X136904735Y-72275999D01*
X136899310Y-72283247D01*
X136874550Y-72292481D01*
X136851358Y-72305146D01*
X136842328Y-72304500D01*
X136833846Y-72307664D01*
X136808025Y-72302047D01*
X136781666Y-72300162D01*
X136772612Y-72294343D01*
X136765573Y-72292812D01*
X136737319Y-72271661D01*
X136636819Y-72171161D01*
X136603334Y-72109838D01*
X136600500Y-72083480D01*
X136600500Y-64893508D01*
X136600501Y-64893495D01*
X136600501Y-64725392D01*
X136586347Y-64672569D01*
X136559577Y-64572664D01*
X136517625Y-64500000D01*
X136480524Y-64435738D01*
X136480518Y-64435730D01*
X135597191Y-63552403D01*
X135563706Y-63491080D01*
X135568690Y-63421388D01*
X135597189Y-63377043D01*
X137322401Y-61651832D01*
X137383719Y-61618350D01*
X137453411Y-61623334D01*
X137463349Y-61630000D01*
X138700000Y-61630000D01*
X139200000Y-61630000D01*
X140422295Y-61630000D01*
X140422295Y-61629998D01*
X140422100Y-61627513D01*
X140376281Y-61469801D01*
X140292685Y-61328447D01*
X140292678Y-61328438D01*
X140176561Y-61212321D01*
X140176552Y-61212314D01*
X140035196Y-61128717D01*
X140035193Y-61128716D01*
X139877495Y-61082900D01*
X139877489Y-61082899D01*
X139840649Y-61080000D01*
X139200000Y-61080000D01*
X139200000Y-61630000D01*
X138700000Y-61630000D01*
X138700000Y-61080000D01*
X138193594Y-61080000D01*
X138126555Y-61060315D01*
X138080800Y-61007511D01*
X138070856Y-60938353D01*
X138099881Y-60874797D01*
X138105890Y-60868343D01*
X139197415Y-59776819D01*
X139258738Y-59743334D01*
X139285096Y-59740500D01*
X143640903Y-59740500D01*
X143707942Y-59760185D01*
X143753697Y-59812989D01*
X143763641Y-59882147D01*
X143734616Y-59945703D01*
X143728584Y-59952181D01*
X140637181Y-63043584D01*
X140575858Y-63077069D01*
X140506166Y-63072085D01*
X140450233Y-63030213D01*
X140425816Y-62964749D01*
X140425500Y-62955903D01*
X140425500Y-62934313D01*
X140425499Y-62934298D01*
X140422598Y-62897432D01*
X140422597Y-62897426D01*
X140376745Y-62739606D01*
X140376744Y-62739603D01*
X140376744Y-62739602D01*
X140293081Y-62598135D01*
X140293078Y-62598132D01*
X140288298Y-62591969D01*
X140290635Y-62590155D01*
X140263798Y-62541050D01*
X140268756Y-62471356D01*
X140289554Y-62438998D01*
X140287903Y-62437717D01*
X140292686Y-62431550D01*
X140376281Y-62290198D01*
X140422100Y-62132486D01*
X140422295Y-62130001D01*
X140422295Y-62130000D01*
X137477705Y-62130000D01*
X137477704Y-62130001D01*
X137477899Y-62132486D01*
X137523718Y-62290198D01*
X137607314Y-62431552D01*
X137612100Y-62437722D01*
X137609640Y-62439629D01*
X137636210Y-62488288D01*
X137631226Y-62557980D01*
X137621376Y-62578439D01*
X137613519Y-62591534D01*
X137606919Y-62598135D01*
X137523256Y-62739602D01*
X137521911Y-62744228D01*
X137515333Y-62755194D01*
X137508874Y-62761148D01*
X137496702Y-62779062D01*
X137494501Y-62781264D01*
X137494481Y-62781284D01*
X137194481Y-63081283D01*
X137194479Y-63081286D01*
X137144361Y-63168095D01*
X137144359Y-63168097D01*
X137115425Y-63218210D01*
X137115424Y-63218211D01*
X137099544Y-63277473D01*
X137074499Y-63370944D01*
X137074499Y-63370946D01*
X137074499Y-63539047D01*
X137074500Y-63539060D01*
X137074500Y-65943882D01*
X137074499Y-65943900D01*
X137074499Y-66109606D01*
X137074498Y-66109606D01*
X137115423Y-66262337D01*
X137144358Y-66312452D01*
X137144359Y-66312456D01*
X137144360Y-66312456D01*
X137194479Y-66399266D01*
X137194481Y-66399269D01*
X137313349Y-66518137D01*
X137313355Y-66518142D01*
X137438821Y-66643608D01*
X137472306Y-66704931D01*
X137474759Y-66740999D01*
X137474501Y-66744278D01*
X137474500Y-66744313D01*
X137474500Y-67175701D01*
X137477401Y-67212567D01*
X137477402Y-67212573D01*
X137523254Y-67370393D01*
X137523255Y-67370396D01*
X137606917Y-67511862D01*
X137611702Y-67518031D01*
X137609256Y-67519927D01*
X137635857Y-67568642D01*
X137630873Y-67638334D01*
X137610069Y-67670703D01*
X137611702Y-67671969D01*
X137606917Y-67678137D01*
X137523255Y-67819603D01*
X137523254Y-67819606D01*
X137477402Y-67977426D01*
X137477401Y-67977432D01*
X137474500Y-68014298D01*
X137474500Y-68445701D01*
X137477401Y-68482567D01*
X137477402Y-68482573D01*
X137523254Y-68640393D01*
X137523255Y-68640396D01*
X137606917Y-68781862D01*
X137611702Y-68788031D01*
X137609256Y-68789927D01*
X137635857Y-68838642D01*
X137630873Y-68908334D01*
X137610069Y-68940703D01*
X137611702Y-68941969D01*
X137606917Y-68948137D01*
X137523255Y-69089603D01*
X137523254Y-69089606D01*
X137477402Y-69247426D01*
X137477401Y-69247432D01*
X137474500Y-69284298D01*
X137474500Y-69715701D01*
X137477401Y-69752567D01*
X137477402Y-69752573D01*
X137523254Y-69910393D01*
X137523255Y-69910396D01*
X137606917Y-70051862D01*
X137606923Y-70051870D01*
X137723129Y-70168076D01*
X137723133Y-70168079D01*
X137723135Y-70168081D01*
X137864602Y-70251744D01*
X137906224Y-70263836D01*
X138022426Y-70297597D01*
X138022429Y-70297597D01*
X138022431Y-70297598D01*
X138059306Y-70300500D01*
X138059314Y-70300500D01*
X139840686Y-70300500D01*
X139840694Y-70300500D01*
X139877569Y-70297598D01*
X139877571Y-70297597D01*
X139877573Y-70297597D01*
X139926507Y-70283380D01*
X140035398Y-70251744D01*
X140176865Y-70168081D01*
X140293081Y-70051865D01*
X140376744Y-69910398D01*
X140422598Y-69752569D01*
X140425500Y-69715694D01*
X140425500Y-69284306D01*
X140422598Y-69247431D01*
X140416463Y-69226315D01*
X140376745Y-69089606D01*
X140376744Y-69089603D01*
X140376744Y-69089602D01*
X140293081Y-68948135D01*
X140293078Y-68948132D01*
X140288298Y-68941969D01*
X140290750Y-68940066D01*
X140264155Y-68891421D01*
X140269104Y-68821726D01*
X140289940Y-68789304D01*
X140288298Y-68788031D01*
X140293075Y-68781870D01*
X140293081Y-68781865D01*
X140376744Y-68640398D01*
X140422598Y-68482569D01*
X140425500Y-68445694D01*
X140425500Y-68014306D01*
X140422598Y-67977431D01*
X140376744Y-67819602D01*
X140293081Y-67678135D01*
X140293078Y-67678132D01*
X140288298Y-67671969D01*
X140290750Y-67670066D01*
X140264155Y-67621421D01*
X140269104Y-67551726D01*
X140289940Y-67519304D01*
X140288298Y-67518031D01*
X140293075Y-67511870D01*
X140293081Y-67511865D01*
X140376744Y-67370398D01*
X140422598Y-67212569D01*
X140425500Y-67175694D01*
X140425500Y-67014500D01*
X140428050Y-67005814D01*
X140426762Y-66996853D01*
X140437740Y-66972812D01*
X140445185Y-66947461D01*
X140452025Y-66941533D01*
X140455787Y-66933297D01*
X140478021Y-66919007D01*
X140497989Y-66901706D01*
X140508503Y-66899418D01*
X140514565Y-66895523D01*
X140549500Y-66890500D01*
X140623331Y-66890500D01*
X140623347Y-66890501D01*
X140630943Y-66890501D01*
X140789054Y-66890501D01*
X140789057Y-66890501D01*
X140918818Y-66855731D01*
X140988665Y-66857394D01*
X141038590Y-66887825D01*
X145869274Y-71718509D01*
X145902759Y-71779832D01*
X145897775Y-71849524D01*
X145855903Y-71905457D01*
X145846690Y-71911728D01*
X145731659Y-71982680D01*
X145731655Y-71982683D01*
X145607683Y-72106655D01*
X145607679Y-72106660D01*
X145605826Y-72109665D01*
X145604018Y-72111290D01*
X145603202Y-72112323D01*
X145603025Y-72112183D01*
X145553874Y-72156385D01*
X145484911Y-72167601D01*
X145420831Y-72139752D01*
X145394753Y-72109653D01*
X145394737Y-72109628D01*
X145392712Y-72106344D01*
X145268656Y-71982288D01*
X145154259Y-71911728D01*
X145119336Y-71890187D01*
X145119331Y-71890185D01*
X145095629Y-71882331D01*
X144952797Y-71835001D01*
X144952795Y-71835000D01*
X144850010Y-71824500D01*
X144249998Y-71824500D01*
X144249980Y-71824501D01*
X144147203Y-71835000D01*
X144147200Y-71835001D01*
X143980668Y-71890185D01*
X143980663Y-71890187D01*
X143831342Y-71982289D01*
X143707289Y-72106342D01*
X143615187Y-72255663D01*
X143615185Y-72255668D01*
X143596477Y-72312125D01*
X143560001Y-72422203D01*
X143560001Y-72422204D01*
X143560000Y-72422204D01*
X143549500Y-72524983D01*
X143549500Y-73149902D01*
X143529815Y-73216941D01*
X143513181Y-73237583D01*
X142519481Y-74231282D01*
X142519477Y-74231287D01*
X142474319Y-74309505D01*
X142474034Y-74309999D01*
X142440423Y-74368215D01*
X142399499Y-74520943D01*
X142399499Y-74520945D01*
X142399499Y-74689046D01*
X142399500Y-74689059D01*
X142399500Y-76505951D01*
X142379815Y-76572990D01*
X142327011Y-76618745D01*
X142257853Y-76628689D01*
X142194297Y-76599664D01*
X142159318Y-76549284D01*
X142143797Y-76507671D01*
X142143793Y-76507664D01*
X142057547Y-76392455D01*
X142057544Y-76392452D01*
X141942335Y-76306206D01*
X141942328Y-76306202D01*
X141807482Y-76255908D01*
X141807483Y-76255908D01*
X141747883Y-76249501D01*
X141747881Y-76249500D01*
X141747873Y-76249500D01*
X141747864Y-76249500D01*
X140552129Y-76249500D01*
X140552123Y-76249501D01*
X140492516Y-76255908D01*
X140357671Y-76306202D01*
X140357664Y-76306206D01*
X140242455Y-76392452D01*
X140242452Y-76392455D01*
X140156206Y-76507664D01*
X140156202Y-76507671D01*
X140105908Y-76642517D01*
X140099501Y-76702116D01*
X140099501Y-76702123D01*
X140099500Y-76702135D01*
X140099500Y-77033889D01*
X140079815Y-77100928D01*
X140027011Y-77146683D01*
X139957853Y-77156627D01*
X139911350Y-77140006D01*
X139814606Y-77081522D01*
X139661743Y-77033889D01*
X139652196Y-77030914D01*
X139652194Y-77030913D01*
X139652192Y-77030913D01*
X139602778Y-77026423D01*
X139581616Y-77024500D01*
X139068384Y-77024500D01*
X139049145Y-77026248D01*
X138997807Y-77030913D01*
X138835393Y-77081522D01*
X138689811Y-77169530D01*
X138689810Y-77169531D01*
X138587681Y-77271661D01*
X138526358Y-77305146D01*
X138456666Y-77300162D01*
X138412319Y-77271661D01*
X138310188Y-77169530D01*
X138239853Y-77127011D01*
X138164606Y-77081522D01*
X138002196Y-77030914D01*
X138002194Y-77030913D01*
X138002192Y-77030913D01*
X137952778Y-77026423D01*
X137931616Y-77024500D01*
X137524499Y-77024500D01*
X137457460Y-77004815D01*
X137411705Y-76952011D01*
X137400499Y-76900500D01*
X137400499Y-76702129D01*
X137400498Y-76702123D01*
X137400497Y-76702116D01*
X137394091Y-76642517D01*
X137388933Y-76628689D01*
X137343797Y-76507671D01*
X137343793Y-76507664D01*
X137257547Y-76392455D01*
X137257544Y-76392452D01*
X137142335Y-76306206D01*
X137142328Y-76306202D01*
X137007482Y-76255908D01*
X137007483Y-76255908D01*
X136947883Y-76249501D01*
X136947881Y-76249500D01*
X136947873Y-76249500D01*
X136947864Y-76249500D01*
X135752129Y-76249500D01*
X135752123Y-76249501D01*
X135692516Y-76255908D01*
X135557671Y-76306202D01*
X135557664Y-76306206D01*
X135442455Y-76392452D01*
X135442452Y-76392455D01*
X135356206Y-76507664D01*
X135356202Y-76507671D01*
X135305910Y-76642513D01*
X135305909Y-76642517D01*
X135299500Y-76702127D01*
X135299500Y-76702134D01*
X135299500Y-76702135D01*
X135299500Y-77397870D01*
X135299501Y-77397876D01*
X135305909Y-77457484D01*
X135314929Y-77481670D01*
X135319911Y-77551361D01*
X135314929Y-77568330D01*
X135305910Y-77592512D01*
X135305909Y-77592515D01*
X135305909Y-77592517D01*
X135299500Y-77652127D01*
X135299500Y-77652134D01*
X135299500Y-77652135D01*
X135299500Y-78347870D01*
X135299501Y-78347876D01*
X135305909Y-78407484D01*
X135314929Y-78431670D01*
X135319911Y-78501361D01*
X135314929Y-78518330D01*
X135305910Y-78542512D01*
X135305909Y-78542515D01*
X135305909Y-78542517D01*
X135299500Y-78602127D01*
X135299500Y-78602134D01*
X135299500Y-78602135D01*
X135299500Y-79297870D01*
X135299501Y-79297876D01*
X135305908Y-79357483D01*
X135356202Y-79492328D01*
X135356206Y-79492335D01*
X135442452Y-79607544D01*
X135442455Y-79607547D01*
X135557664Y-79693793D01*
X135557671Y-79693797D01*
X135692517Y-79744091D01*
X135692516Y-79744091D01*
X135699444Y-79744835D01*
X135752127Y-79750500D01*
X136329532Y-79750499D01*
X136396570Y-79770183D01*
X136442325Y-79822987D01*
X136452269Y-79892146D01*
X136423244Y-79955702D01*
X136417212Y-79962180D01*
X135811286Y-80568107D01*
X135699482Y-80679910D01*
X135699478Y-80679916D01*
X135653486Y-80759577D01*
X135620424Y-80816841D01*
X135620423Y-80816842D01*
X135601314Y-80888160D01*
X135579499Y-80969572D01*
X135579499Y-80969574D01*
X135579499Y-81137675D01*
X135579500Y-81137688D01*
X135579500Y-90264701D01*
X135579499Y-90264719D01*
X135579499Y-90430425D01*
X135579498Y-90430425D01*
X135586829Y-90457785D01*
X135620423Y-90583156D01*
X135620424Y-90583157D01*
X135631415Y-90602196D01*
X135631416Y-90602197D01*
X135699475Y-90720080D01*
X135699481Y-90720088D01*
X135818349Y-90838956D01*
X135818354Y-90838960D01*
X136434913Y-91455520D01*
X136434915Y-91455521D01*
X136434919Y-91455524D01*
X136571838Y-91534573D01*
X136571845Y-91534577D01*
X136724572Y-91575501D01*
X136724574Y-91575501D01*
X136890283Y-91575501D01*
X136890299Y-91575500D01*
X142700979Y-91575500D01*
X142700995Y-91575501D01*
X142708591Y-91575501D01*
X142866702Y-91575501D01*
X142866705Y-91575501D01*
X143019433Y-91534577D01*
X143069552Y-91505639D01*
X143156364Y-91455520D01*
X143268168Y-91343716D01*
X143268168Y-91343714D01*
X143278376Y-91333507D01*
X143278378Y-91333504D01*
X144775319Y-89836563D01*
X144836642Y-89803078D01*
X144906334Y-89808062D01*
X144962267Y-89849934D01*
X144986684Y-89915398D01*
X144987000Y-89924244D01*
X144987000Y-90376613D01*
X144993413Y-90447192D01*
X144993413Y-90447194D01*
X144993414Y-90447196D01*
X145044022Y-90609606D01*
X145129482Y-90750974D01*
X145132030Y-90755188D01*
X145252311Y-90875469D01*
X145252313Y-90875470D01*
X145252315Y-90875472D01*
X145397894Y-90963478D01*
X145560304Y-91014086D01*
X145630884Y-91020500D01*
X145630887Y-91020500D01*
X146144113Y-91020500D01*
X146144116Y-91020500D01*
X146214696Y-91014086D01*
X146377106Y-90963478D01*
X146522685Y-90875472D01*
X146566266Y-90831891D01*
X146624819Y-90773339D01*
X146686142Y-90739854D01*
X146755834Y-90744838D01*
X146800181Y-90773339D01*
X146902311Y-90875469D01*
X146902313Y-90875470D01*
X146902315Y-90875472D01*
X147047894Y-90963478D01*
X147210304Y-91014086D01*
X147280884Y-91020500D01*
X147280887Y-91020500D01*
X147794113Y-91020500D01*
X147794116Y-91020500D01*
X147864696Y-91014086D01*
X148027106Y-90963478D01*
X148172685Y-90875472D01*
X148230804Y-90817353D01*
X148298276Y-90749882D01*
X148299368Y-90750974D01*
X148349165Y-90715372D01*
X148418949Y-90711917D01*
X148477623Y-90744795D01*
X148582108Y-90849280D01*
X148582112Y-90849283D01*
X148725204Y-90937544D01*
X148725207Y-90937545D01*
X148725213Y-90937549D01*
X148884815Y-90990436D01*
X148983326Y-91000500D01*
X148983331Y-91000500D01*
X149516669Y-91000500D01*
X149516674Y-91000500D01*
X149615185Y-90990436D01*
X149774787Y-90937549D01*
X149917891Y-90849281D01*
X149949819Y-90817353D01*
X150011142Y-90783868D01*
X150080834Y-90788852D01*
X150125181Y-90817353D01*
X150157108Y-90849280D01*
X150157112Y-90849283D01*
X150300204Y-90937544D01*
X150300207Y-90937545D01*
X150300213Y-90937549D01*
X150459815Y-90990436D01*
X150558326Y-91000500D01*
X150558331Y-91000500D01*
X151091669Y-91000500D01*
X151091674Y-91000500D01*
X151190185Y-90990436D01*
X151349787Y-90937549D01*
X151492891Y-90849281D01*
X151611781Y-90730391D01*
X151700049Y-90587287D01*
X151752936Y-90427685D01*
X151763000Y-90329174D01*
X151763000Y-89987596D01*
X151782685Y-89920557D01*
X151799314Y-89899920D01*
X155183506Y-86515727D01*
X155183511Y-86515724D01*
X155193714Y-86505520D01*
X155193716Y-86505520D01*
X155285847Y-86413389D01*
X156999500Y-86413389D01*
X156999500Y-87786610D01*
X157023257Y-87936611D01*
X157026598Y-87957701D01*
X157080127Y-88122445D01*
X157158768Y-88276788D01*
X157260586Y-88416928D01*
X157383072Y-88539414D01*
X157523212Y-88641232D01*
X157677555Y-88719873D01*
X157842299Y-88773402D01*
X158013389Y-88800500D01*
X158013390Y-88800500D01*
X158186610Y-88800500D01*
X158186611Y-88800500D01*
X158357701Y-88773402D01*
X158522445Y-88719873D01*
X158676788Y-88641232D01*
X158816928Y-88539414D01*
X158939414Y-88416928D01*
X159041232Y-88276788D01*
X159119873Y-88122445D01*
X159173402Y-87957701D01*
X159200500Y-87786611D01*
X159200500Y-86694746D01*
X159220185Y-86627707D01*
X159272989Y-86581952D01*
X159342147Y-86572008D01*
X159405703Y-86601033D01*
X159442429Y-86656426D01*
X159480127Y-86772445D01*
X159558768Y-86926788D01*
X159660586Y-87066928D01*
X159783072Y-87189414D01*
X159858513Y-87244225D01*
X159901178Y-87299555D01*
X159908985Y-87357145D01*
X159899500Y-87449981D01*
X159899500Y-88250001D01*
X159899501Y-88250019D01*
X159910000Y-88352796D01*
X159910001Y-88352799D01*
X159965185Y-88519331D01*
X159965187Y-88519336D01*
X159977571Y-88539414D01*
X160057288Y-88668656D01*
X160181344Y-88792712D01*
X160330666Y-88884814D01*
X160497203Y-88939999D01*
X160599991Y-88950500D01*
X161400008Y-88950499D01*
X161400016Y-88950498D01*
X161400019Y-88950498D01*
X161496316Y-88940661D01*
X161502797Y-88939999D01*
X161669334Y-88884814D01*
X161812412Y-88796563D01*
X161879802Y-88778124D01*
X161946465Y-88799047D01*
X161965187Y-88814422D01*
X165515139Y-92364374D01*
X165515149Y-92364385D01*
X165519479Y-92368715D01*
X165519480Y-92368716D01*
X165631284Y-92480520D01*
X165718095Y-92530639D01*
X165718097Y-92530641D01*
X165768213Y-92559576D01*
X165768215Y-92559577D01*
X165920942Y-92600500D01*
X165920943Y-92600500D01*
X175133285Y-92600500D01*
X175200324Y-92620185D01*
X175239402Y-92660350D01*
X175269530Y-92710188D01*
X175389811Y-92830469D01*
X175389813Y-92830470D01*
X175389815Y-92830472D01*
X175535394Y-92918478D01*
X175628018Y-92947339D01*
X175678809Y-92978044D01*
X176240139Y-93539374D01*
X176240149Y-93539385D01*
X176244479Y-93543715D01*
X176244480Y-93543716D01*
X176356284Y-93655520D01*
X176356286Y-93655521D01*
X176356290Y-93655524D01*
X176493209Y-93734573D01*
X176493216Y-93734577D01*
X176605019Y-93764534D01*
X176645942Y-93775500D01*
X176645943Y-93775500D01*
X180750979Y-93775500D01*
X180750995Y-93775501D01*
X180758591Y-93775501D01*
X180916702Y-93775501D01*
X180916705Y-93775501D01*
X181069433Y-93734577D01*
X181119552Y-93705639D01*
X181206364Y-93655520D01*
X181318168Y-93543716D01*
X181318168Y-93543714D01*
X181328376Y-93533507D01*
X181328377Y-93533504D01*
X182005520Y-92856364D01*
X182084577Y-92719432D01*
X182125501Y-92566705D01*
X182125501Y-92408590D01*
X182125501Y-92400995D01*
X182125500Y-92400977D01*
X182125500Y-89988585D01*
X182145185Y-89921546D01*
X182197989Y-89875791D01*
X182210489Y-89870881D01*
X182319334Y-89834814D01*
X182468656Y-89742712D01*
X182592712Y-89618656D01*
X182684814Y-89469334D01*
X182739999Y-89302797D01*
X182750500Y-89200009D01*
X182750499Y-87799992D01*
X182743531Y-87731784D01*
X182739999Y-87697203D01*
X182739998Y-87697200D01*
X182732641Y-87674998D01*
X182684814Y-87530666D01*
X182592712Y-87381344D01*
X182468656Y-87257288D01*
X182319334Y-87165186D01*
X182152797Y-87110001D01*
X182152795Y-87110000D01*
X182050016Y-87099500D01*
X182050009Y-87099500D01*
X180560500Y-87099500D01*
X180493461Y-87079815D01*
X180447706Y-87027011D01*
X180436500Y-86975500D01*
X180436500Y-85806623D01*
X180456185Y-85739584D01*
X180508989Y-85693829D01*
X180578147Y-85683885D01*
X180603829Y-85690439D01*
X180656517Y-85710091D01*
X180716127Y-85716500D01*
X181883872Y-85716499D01*
X181943483Y-85710091D01*
X182078331Y-85659796D01*
X182193546Y-85573546D01*
X182279796Y-85458331D01*
X182330091Y-85323483D01*
X182336500Y-85263873D01*
X182336499Y-84636128D01*
X182330091Y-84576517D01*
X182308388Y-84518331D01*
X182303405Y-84448641D01*
X182308384Y-84431679D01*
X182330091Y-84373483D01*
X182336500Y-84313873D01*
X182336499Y-83686128D01*
X182330091Y-83626517D01*
X182308388Y-83568331D01*
X182303405Y-83498641D01*
X182308384Y-83481679D01*
X182330091Y-83423483D01*
X182336500Y-83363873D01*
X182336499Y-82736128D01*
X182330091Y-82676517D01*
X182329522Y-82674992D01*
X182279797Y-82541671D01*
X182279793Y-82541664D01*
X182193547Y-82426455D01*
X182193544Y-82426452D01*
X182078335Y-82340206D01*
X182078328Y-82340202D01*
X181943482Y-82289908D01*
X181943483Y-82289908D01*
X181883883Y-82283501D01*
X181883881Y-82283500D01*
X181883873Y-82283500D01*
X181883864Y-82283500D01*
X180716129Y-82283500D01*
X180716123Y-82283501D01*
X180656516Y-82289908D01*
X180521671Y-82340202D01*
X180521664Y-82340206D01*
X180406455Y-82426452D01*
X180406452Y-82426455D01*
X180320206Y-82541664D01*
X180315953Y-82549454D01*
X180313879Y-82548321D01*
X180279665Y-82594026D01*
X180214201Y-82618442D01*
X180145928Y-82603590D01*
X180138425Y-82599143D01*
X180127148Y-82591912D01*
X180104716Y-82569480D01*
X179981142Y-82498135D01*
X179967785Y-82490423D01*
X179961013Y-82487618D01*
X179909200Y-82447366D01*
X179893546Y-82426454D01*
X179893543Y-82426452D01*
X179778331Y-82340204D01*
X179778329Y-82340203D01*
X179778328Y-82340202D01*
X179643482Y-82289908D01*
X179643483Y-82289908D01*
X179583883Y-82283501D01*
X179583881Y-82283500D01*
X179583873Y-82283500D01*
X179583864Y-82283500D01*
X178416129Y-82283500D01*
X178416123Y-82283501D01*
X178356516Y-82289908D01*
X178221671Y-82340202D01*
X178221664Y-82340206D01*
X178106455Y-82426452D01*
X178106452Y-82426455D01*
X178020206Y-82541664D01*
X178020202Y-82541671D01*
X177970464Y-82675028D01*
X177969909Y-82676517D01*
X177963500Y-82736127D01*
X177963500Y-82736134D01*
X177963500Y-82736135D01*
X177963500Y-83363870D01*
X177963501Y-83363876D01*
X177969908Y-83423483D01*
X177991876Y-83482382D01*
X177996860Y-83552074D01*
X177991877Y-83569046D01*
X177970401Y-83626626D01*
X177964000Y-83686155D01*
X177964000Y-83750000D01*
X178173032Y-83750000D01*
X178216365Y-83757818D01*
X178264050Y-83775603D01*
X178356517Y-83810091D01*
X178416127Y-83816500D01*
X178876001Y-83816499D01*
X178884686Y-83819049D01*
X178893647Y-83817761D01*
X178917683Y-83828738D01*
X178943039Y-83836183D01*
X178948967Y-83843025D01*
X178957203Y-83846786D01*
X178971489Y-83869017D01*
X178988794Y-83888987D01*
X178991081Y-83899502D01*
X178994977Y-83905564D01*
X179000000Y-83940499D01*
X179000000Y-84059500D01*
X178980315Y-84126539D01*
X178927511Y-84172294D01*
X178876000Y-84183500D01*
X178416129Y-84183500D01*
X178416123Y-84183501D01*
X178356516Y-84189908D01*
X178216365Y-84242182D01*
X178173032Y-84250000D01*
X177964000Y-84250000D01*
X177964000Y-84313844D01*
X177970401Y-84373372D01*
X177970403Y-84373380D01*
X177991876Y-84430952D01*
X177996860Y-84500644D01*
X177991876Y-84517617D01*
X177969910Y-84576511D01*
X177969909Y-84576515D01*
X177969909Y-84576517D01*
X177963500Y-84636127D01*
X177963500Y-84636134D01*
X177963500Y-84636135D01*
X177963500Y-85263870D01*
X177963501Y-85263876D01*
X177969908Y-85323483D01*
X178020202Y-85458328D01*
X178020206Y-85458335D01*
X178106452Y-85573544D01*
X178106455Y-85573547D01*
X178221664Y-85659793D01*
X178221671Y-85659797D01*
X178318833Y-85696036D01*
X178374767Y-85737907D01*
X178399184Y-85803371D01*
X178399500Y-85812218D01*
X178399500Y-87020030D01*
X178379815Y-87087069D01*
X178327011Y-87132824D01*
X178257853Y-87142768D01*
X178236497Y-87137736D01*
X178152799Y-87110001D01*
X178152795Y-87110000D01*
X178050016Y-87099500D01*
X178050009Y-87099500D01*
X176500097Y-87099500D01*
X176433058Y-87079815D01*
X176412416Y-87063181D01*
X175336819Y-85987584D01*
X175303334Y-85926261D01*
X175300500Y-85899903D01*
X175300500Y-85209797D01*
X175320185Y-85142758D01*
X175359403Y-85104258D01*
X175418656Y-85067712D01*
X175542712Y-84943656D01*
X175544752Y-84940347D01*
X175546745Y-84938555D01*
X175547193Y-84937989D01*
X175547289Y-84938065D01*
X175596694Y-84893623D01*
X175665656Y-84882395D01*
X175729740Y-84910234D01*
X175755829Y-84940339D01*
X175757681Y-84943341D01*
X175757683Y-84943344D01*
X175881654Y-85067315D01*
X176030875Y-85159356D01*
X176030880Y-85159358D01*
X176197302Y-85214505D01*
X176197309Y-85214506D01*
X176300019Y-85224999D01*
X176850000Y-85224999D01*
X176899972Y-85224999D01*
X176899986Y-85224998D01*
X177002697Y-85214505D01*
X177169119Y-85159358D01*
X177169124Y-85159356D01*
X177318345Y-85067315D01*
X177442315Y-84943345D01*
X177534356Y-84794124D01*
X177534358Y-84794119D01*
X177589505Y-84627697D01*
X177589506Y-84627690D01*
X177599999Y-84524986D01*
X177600000Y-84524973D01*
X177600000Y-84250000D01*
X176850000Y-84250000D01*
X176850000Y-85224999D01*
X176300019Y-85224999D01*
X176349999Y-85224998D01*
X176350000Y-85224998D01*
X176350000Y-83750000D01*
X176850000Y-83750000D01*
X177599999Y-83750000D01*
X177599999Y-83475028D01*
X177599998Y-83475013D01*
X177589505Y-83372302D01*
X177534358Y-83205880D01*
X177534356Y-83205875D01*
X177442315Y-83056654D01*
X177318345Y-82932684D01*
X177169124Y-82840643D01*
X177169119Y-82840641D01*
X177002697Y-82785494D01*
X177002690Y-82785493D01*
X176899986Y-82775000D01*
X176850000Y-82775000D01*
X176850000Y-83750000D01*
X176350000Y-83750000D01*
X176350000Y-82775000D01*
X176349999Y-82774999D01*
X176300029Y-82775000D01*
X176300011Y-82775001D01*
X176197302Y-82785494D01*
X176030880Y-82840641D01*
X176030875Y-82840643D01*
X175881654Y-82932684D01*
X175757683Y-83056655D01*
X175757679Y-83056660D01*
X175755826Y-83059665D01*
X175754018Y-83061290D01*
X175753202Y-83062323D01*
X175753025Y-83062183D01*
X175703874Y-83106385D01*
X175634911Y-83117601D01*
X175570831Y-83089752D01*
X175544753Y-83059653D01*
X175544737Y-83059628D01*
X175542712Y-83056344D01*
X175418656Y-82932288D01*
X175269334Y-82840186D01*
X175102797Y-82785001D01*
X175102795Y-82785000D01*
X175000010Y-82774500D01*
X174399998Y-82774500D01*
X174399980Y-82774501D01*
X174297203Y-82785000D01*
X174297200Y-82785001D01*
X174130668Y-82840185D01*
X174130663Y-82840187D01*
X173981342Y-82932289D01*
X173857289Y-83056342D01*
X173765187Y-83205663D01*
X173765185Y-83205668D01*
X173750495Y-83250000D01*
X173710001Y-83372203D01*
X173710001Y-83372204D01*
X173710000Y-83372204D01*
X173699500Y-83474983D01*
X173699500Y-84525001D01*
X173699501Y-84525019D01*
X173710000Y-84627796D01*
X173710001Y-84627799D01*
X173747537Y-84741073D01*
X173765186Y-84794334D01*
X173857288Y-84943656D01*
X173981344Y-85067712D01*
X174040596Y-85104258D01*
X174087321Y-85156204D01*
X174099500Y-85209797D01*
X174099500Y-86113330D01*
X174099499Y-86113348D01*
X174099499Y-86279054D01*
X174099498Y-86279054D01*
X174140423Y-86431785D01*
X174146349Y-86442049D01*
X174219477Y-86568712D01*
X174219481Y-86568717D01*
X174338349Y-86687585D01*
X174338355Y-86687590D01*
X175227822Y-87577057D01*
X175261307Y-87638380D01*
X175261394Y-87690692D01*
X175260001Y-87697196D01*
X175249500Y-87799983D01*
X175249500Y-89200001D01*
X175249501Y-89200018D01*
X175260000Y-89302796D01*
X175260001Y-89302799D01*
X175315185Y-89469331D01*
X175315187Y-89469336D01*
X175327816Y-89489811D01*
X175407288Y-89618656D01*
X175531344Y-89742712D01*
X175680666Y-89834814D01*
X175847203Y-89889999D01*
X175949991Y-89900500D01*
X178050008Y-89900499D01*
X178152797Y-89889999D01*
X178236498Y-89862262D01*
X178306323Y-89859861D01*
X178366365Y-89895592D01*
X178397558Y-89958112D01*
X178399500Y-89979969D01*
X178399500Y-90374903D01*
X178379815Y-90441942D01*
X178363181Y-90462584D01*
X177837584Y-90988181D01*
X177776261Y-91021666D01*
X177749903Y-91024500D01*
X177418384Y-91024500D01*
X177399145Y-91026248D01*
X177347807Y-91030913D01*
X177185393Y-91081522D01*
X177039811Y-91169530D01*
X177039810Y-91169531D01*
X176937681Y-91271661D01*
X176876358Y-91305146D01*
X176806666Y-91300162D01*
X176762319Y-91271661D01*
X176660188Y-91169530D01*
X176514606Y-91081522D01*
X176352196Y-91030914D01*
X176352194Y-91030913D01*
X176352192Y-91030913D01*
X176302778Y-91026423D01*
X176281616Y-91024500D01*
X175768384Y-91024500D01*
X175749145Y-91026248D01*
X175697807Y-91030913D01*
X175535393Y-91081522D01*
X175389811Y-91169530D01*
X175269530Y-91289811D01*
X175239402Y-91339650D01*
X175187874Y-91386838D01*
X175133285Y-91399500D01*
X166300097Y-91399500D01*
X166233058Y-91379815D01*
X166212416Y-91363181D01*
X163908425Y-89059190D01*
X163874940Y-88997867D01*
X163879924Y-88928175D01*
X163921796Y-88872242D01*
X163939812Y-88861024D01*
X163952289Y-88854667D01*
X164076788Y-88791232D01*
X164216928Y-88689414D01*
X164339414Y-88566928D01*
X164399682Y-88483975D01*
X164455012Y-88441311D01*
X164524626Y-88435332D01*
X164586421Y-88467938D01*
X164600315Y-88483973D01*
X164660586Y-88566928D01*
X164783072Y-88689414D01*
X164923212Y-88791232D01*
X165077555Y-88869873D01*
X165242299Y-88923402D01*
X165413389Y-88950500D01*
X165413390Y-88950500D01*
X165586610Y-88950500D01*
X165586611Y-88950500D01*
X165757701Y-88923402D01*
X165922445Y-88869873D01*
X166076788Y-88791232D01*
X166083591Y-88786289D01*
X167417261Y-88786289D01*
X167417262Y-88786290D01*
X167423471Y-88790801D01*
X167577742Y-88869408D01*
X167742415Y-88922914D01*
X167913429Y-88950000D01*
X168086571Y-88950000D01*
X168257584Y-88922914D01*
X168422257Y-88869408D01*
X168576525Y-88790803D01*
X168582736Y-88786289D01*
X168582737Y-88786289D01*
X168000001Y-88203553D01*
X168000000Y-88203553D01*
X167417261Y-88786289D01*
X166083591Y-88786289D01*
X166216928Y-88689414D01*
X166339414Y-88566928D01*
X166441232Y-88426788D01*
X166519873Y-88272445D01*
X166573402Y-88107701D01*
X166600500Y-87936611D01*
X166600500Y-87763389D01*
X166573402Y-87592299D01*
X166572406Y-87588151D01*
X166572984Y-87576577D01*
X166569146Y-87565644D01*
X166574696Y-87542315D01*
X166575893Y-87518369D01*
X166582635Y-87508947D01*
X166585318Y-87497672D01*
X166602601Y-87481045D01*
X166616554Y-87461549D01*
X166628608Y-87456028D01*
X166635672Y-87449234D01*
X166663494Y-87440053D01*
X166668974Y-87437544D01*
X166671260Y-87437092D01*
X166757701Y-87423402D01*
X166784070Y-87414833D01*
X166791338Y-87413400D01*
X166819049Y-87415922D01*
X166846864Y-87415128D01*
X166853361Y-87419045D01*
X166860920Y-87419734D01*
X166882872Y-87436841D01*
X166906697Y-87451208D01*
X166910044Y-87458017D01*
X166916031Y-87462682D01*
X166925246Y-87488934D01*
X166937526Y-87513908D01*
X166936931Y-87522219D01*
X166939174Y-87528608D01*
X166935314Y-87544830D01*
X166933273Y-87573372D01*
X166927086Y-87592411D01*
X166927086Y-87592414D01*
X166900000Y-87763428D01*
X166900000Y-87936571D01*
X166927085Y-88107584D01*
X166980592Y-88272259D01*
X167059196Y-88426525D01*
X167063709Y-88432736D01*
X167063709Y-88432737D01*
X167650000Y-87846446D01*
X167650000Y-87896078D01*
X167673852Y-87985095D01*
X167719930Y-88064905D01*
X167785095Y-88130070D01*
X167864905Y-88176148D01*
X167953922Y-88200000D01*
X168046078Y-88200000D01*
X168135095Y-88176148D01*
X168214905Y-88130070D01*
X168280070Y-88064905D01*
X168326148Y-87985095D01*
X168350000Y-87896078D01*
X168350000Y-87846447D01*
X168936289Y-88432736D01*
X168940803Y-88426525D01*
X169019408Y-88272257D01*
X169072914Y-88107584D01*
X169100000Y-87936571D01*
X169100000Y-87763428D01*
X169072913Y-87592414D01*
X169072913Y-87592411D01*
X169022154Y-87436191D01*
X169020159Y-87366350D01*
X169056239Y-87306517D01*
X169075315Y-87292133D01*
X169076769Y-87291241D01*
X169076788Y-87291232D01*
X169216928Y-87189414D01*
X169339414Y-87066928D01*
X169441232Y-86926788D01*
X169519873Y-86772445D01*
X169557569Y-86656426D01*
X169597007Y-86598752D01*
X169661365Y-86571554D01*
X169730212Y-86583469D01*
X169781687Y-86630713D01*
X169799500Y-86694746D01*
X169799500Y-87786610D01*
X169823257Y-87936611D01*
X169826598Y-87957701D01*
X169880127Y-88122445D01*
X169958768Y-88276788D01*
X170060586Y-88416928D01*
X170183072Y-88539414D01*
X170323212Y-88641232D01*
X170477555Y-88719873D01*
X170642299Y-88773402D01*
X170813389Y-88800500D01*
X170813390Y-88800500D01*
X170986610Y-88800500D01*
X170986611Y-88800500D01*
X171157701Y-88773402D01*
X171322445Y-88719873D01*
X171476788Y-88641232D01*
X171616928Y-88539414D01*
X171739414Y-88416928D01*
X171841232Y-88276788D01*
X171919873Y-88122445D01*
X171973402Y-87957701D01*
X172000500Y-87786611D01*
X172000500Y-86413389D01*
X171973402Y-86242299D01*
X171919873Y-86077555D01*
X171841232Y-85923212D01*
X171739414Y-85783072D01*
X171616928Y-85660586D01*
X171476788Y-85558768D01*
X171322445Y-85480127D01*
X171157701Y-85426598D01*
X171157699Y-85426597D01*
X171157698Y-85426597D01*
X171025718Y-85405694D01*
X170986611Y-85399500D01*
X170813389Y-85399500D01*
X170774282Y-85405694D01*
X170642302Y-85426597D01*
X170477552Y-85480128D01*
X170323211Y-85558768D01*
X170277432Y-85592029D01*
X170183072Y-85660586D01*
X170183070Y-85660588D01*
X170183069Y-85660588D01*
X170060588Y-85783069D01*
X170060588Y-85783070D01*
X170060586Y-85783072D01*
X170026070Y-85830579D01*
X169958768Y-85923211D01*
X169880128Y-86077550D01*
X169831955Y-86225812D01*
X169792517Y-86283487D01*
X169728158Y-86310685D01*
X169659312Y-86298770D01*
X169607836Y-86251526D01*
X169591551Y-86206892D01*
X169576706Y-86113160D01*
X169573403Y-86092303D01*
X169573402Y-86092302D01*
X169573402Y-86092299D01*
X169519873Y-85927555D01*
X169441232Y-85773212D01*
X169339414Y-85633072D01*
X169216928Y-85510586D01*
X169076788Y-85408768D01*
X168922445Y-85330127D01*
X168757701Y-85276598D01*
X168757699Y-85276597D01*
X168757698Y-85276597D01*
X168594989Y-85250827D01*
X168586611Y-85249500D01*
X168413389Y-85249500D01*
X168405011Y-85250827D01*
X168242302Y-85276597D01*
X168077552Y-85330128D01*
X167923211Y-85408768D01*
X167854989Y-85458335D01*
X167783072Y-85510586D01*
X167783070Y-85510588D01*
X167783069Y-85510588D01*
X167660588Y-85633069D01*
X167660581Y-85633078D01*
X167600317Y-85716023D01*
X167544987Y-85758689D01*
X167475374Y-85764667D01*
X167413579Y-85732061D01*
X167399683Y-85716023D01*
X167339418Y-85633078D01*
X167339414Y-85633072D01*
X167216928Y-85510586D01*
X167076788Y-85408768D01*
X166922445Y-85330127D01*
X166757701Y-85276598D01*
X166757699Y-85276597D01*
X166757698Y-85276597D01*
X166594989Y-85250827D01*
X166586611Y-85249500D01*
X166413389Y-85249500D01*
X166405011Y-85250827D01*
X166242302Y-85276597D01*
X166077552Y-85330128D01*
X165923211Y-85408768D01*
X165854989Y-85458335D01*
X165783072Y-85510586D01*
X165783070Y-85510588D01*
X165783069Y-85510588D01*
X165660588Y-85633069D01*
X165660581Y-85633078D01*
X165600317Y-85716023D01*
X165544987Y-85758689D01*
X165475374Y-85764667D01*
X165413579Y-85732061D01*
X165399683Y-85716023D01*
X165339418Y-85633078D01*
X165339414Y-85633072D01*
X165216928Y-85510586D01*
X165076788Y-85408768D01*
X164922445Y-85330127D01*
X164757701Y-85276598D01*
X164757699Y-85276597D01*
X164757698Y-85276597D01*
X164594989Y-85250827D01*
X164586611Y-85249500D01*
X164413389Y-85249500D01*
X164405011Y-85250827D01*
X164242302Y-85276597D01*
X164077552Y-85330128D01*
X163923211Y-85408768D01*
X163854989Y-85458335D01*
X163783072Y-85510586D01*
X163783070Y-85510588D01*
X163783069Y-85510588D01*
X163660588Y-85633069D01*
X163660581Y-85633078D01*
X163600317Y-85716023D01*
X163544987Y-85758689D01*
X163475374Y-85764667D01*
X163413579Y-85732061D01*
X163399683Y-85716023D01*
X163339418Y-85633078D01*
X163339414Y-85633072D01*
X163216928Y-85510586D01*
X163076788Y-85408768D01*
X162922445Y-85330127D01*
X162757701Y-85276598D01*
X162757699Y-85276597D01*
X162757698Y-85276597D01*
X162594989Y-85250827D01*
X162586611Y-85249500D01*
X162413389Y-85249500D01*
X162405011Y-85250827D01*
X162242301Y-85276597D01*
X162162818Y-85302423D01*
X162092977Y-85304418D01*
X162033144Y-85268337D01*
X162002316Y-85205636D01*
X162000500Y-85184492D01*
X162000500Y-84348999D01*
X162020185Y-84281960D01*
X162072989Y-84236205D01*
X162124500Y-84224999D01*
X162249972Y-84224999D01*
X162249986Y-84224998D01*
X162352697Y-84214505D01*
X162519119Y-84159358D01*
X162519124Y-84159356D01*
X162668345Y-84067315D01*
X162792315Y-83943345D01*
X162884356Y-83794124D01*
X162884358Y-83794119D01*
X162939505Y-83627697D01*
X162939506Y-83627690D01*
X162949999Y-83524986D01*
X162950000Y-83524973D01*
X162950000Y-83250000D01*
X162074000Y-83250000D01*
X162006961Y-83230315D01*
X161961206Y-83177511D01*
X161950000Y-83126000D01*
X161950000Y-83000000D01*
X161824000Y-83000000D01*
X161756961Y-82980315D01*
X161711206Y-82927511D01*
X161700000Y-82876000D01*
X161700000Y-82750000D01*
X162200000Y-82750000D01*
X162949999Y-82750000D01*
X162949999Y-82475028D01*
X162949998Y-82475013D01*
X162939505Y-82372302D01*
X162884358Y-82205880D01*
X162884356Y-82205875D01*
X162792315Y-82056654D01*
X162668345Y-81932684D01*
X162519124Y-81840643D01*
X162519119Y-81840641D01*
X162352697Y-81785494D01*
X162352690Y-81785493D01*
X162249986Y-81775000D01*
X162200000Y-81775000D01*
X162200000Y-82750000D01*
X161700000Y-82750000D01*
X161700000Y-81775000D01*
X161699999Y-81774999D01*
X161650029Y-81775000D01*
X161650011Y-81775001D01*
X161547302Y-81785494D01*
X161380880Y-81840641D01*
X161380875Y-81840643D01*
X161231654Y-81932684D01*
X161107683Y-82056655D01*
X161107679Y-82056660D01*
X161105826Y-82059665D01*
X161104018Y-82061290D01*
X161103202Y-82062323D01*
X161103025Y-82062183D01*
X161053874Y-82106385D01*
X160984911Y-82117601D01*
X160920831Y-82089752D01*
X160894753Y-82059653D01*
X160894737Y-82059628D01*
X160892712Y-82056344D01*
X160768656Y-81932288D01*
X160619334Y-81840186D01*
X160452797Y-81785001D01*
X160452795Y-81785000D01*
X160350010Y-81774500D01*
X159749998Y-81774500D01*
X159749980Y-81774501D01*
X159647203Y-81785000D01*
X159647200Y-81785001D01*
X159480668Y-81840185D01*
X159480663Y-81840187D01*
X159331342Y-81932289D01*
X159207289Y-82056342D01*
X159115187Y-82205663D01*
X159115185Y-82205668D01*
X159098290Y-82256654D01*
X159060001Y-82372203D01*
X159060001Y-82372204D01*
X159060000Y-82372204D01*
X159049500Y-82474983D01*
X159049500Y-83525001D01*
X159049501Y-83525019D01*
X159060000Y-83627796D01*
X159060001Y-83627799D01*
X159115185Y-83794331D01*
X159115187Y-83794336D01*
X159145219Y-83843025D01*
X159207288Y-83943656D01*
X159331344Y-84067712D01*
X159480666Y-84159814D01*
X159647203Y-84214999D01*
X159749991Y-84225500D01*
X160350008Y-84225499D01*
X160360576Y-84224419D01*
X160429268Y-84237187D01*
X160460861Y-84260096D01*
X160763181Y-84562416D01*
X160796666Y-84623739D01*
X160799500Y-84650097D01*
X160799500Y-85138033D01*
X160779815Y-85205072D01*
X160727011Y-85250827D01*
X160657853Y-85260771D01*
X160656103Y-85260506D01*
X160586611Y-85249500D01*
X160413389Y-85249500D01*
X160405011Y-85250827D01*
X160242302Y-85276597D01*
X160077552Y-85330128D01*
X159923211Y-85408768D01*
X159854989Y-85458335D01*
X159783072Y-85510586D01*
X159783070Y-85510588D01*
X159783069Y-85510588D01*
X159660588Y-85633069D01*
X159660588Y-85633070D01*
X159660586Y-85633072D01*
X159623668Y-85683885D01*
X159558768Y-85773211D01*
X159480128Y-85927552D01*
X159426597Y-86092302D01*
X159408448Y-86206891D01*
X159378519Y-86270026D01*
X159319207Y-86306957D01*
X159249345Y-86305959D01*
X159191112Y-86267349D01*
X159168045Y-86225812D01*
X159119873Y-86077555D01*
X159041232Y-85923212D01*
X158939414Y-85783072D01*
X158816928Y-85660586D01*
X158676788Y-85558768D01*
X158522445Y-85480127D01*
X158357701Y-85426598D01*
X158357699Y-85426597D01*
X158357698Y-85426597D01*
X158225718Y-85405694D01*
X158186611Y-85399500D01*
X158013389Y-85399500D01*
X157974282Y-85405694D01*
X157842302Y-85426597D01*
X157677552Y-85480128D01*
X157523211Y-85558768D01*
X157477432Y-85592029D01*
X157383072Y-85660586D01*
X157383070Y-85660588D01*
X157383069Y-85660588D01*
X157260588Y-85783069D01*
X157260588Y-85783070D01*
X157260586Y-85783072D01*
X157226070Y-85830579D01*
X157158768Y-85923211D01*
X157080128Y-86077552D01*
X157026597Y-86242302D01*
X156999500Y-86413389D01*
X155285847Y-86413389D01*
X155305520Y-86393716D01*
X155313378Y-86380103D01*
X155332771Y-86346517D01*
X155376932Y-86270026D01*
X155380762Y-86263391D01*
X155380764Y-86263390D01*
X155384576Y-86256787D01*
X155384576Y-86256786D01*
X155384577Y-86256785D01*
X155425500Y-86104058D01*
X155425500Y-85945943D01*
X155425500Y-85841930D01*
X155445185Y-85774891D01*
X155497989Y-85729136D01*
X155562103Y-85718572D01*
X155625019Y-85724999D01*
X156175000Y-85724999D01*
X156224972Y-85724999D01*
X156224986Y-85724998D01*
X156327697Y-85714505D01*
X156494119Y-85659358D01*
X156494124Y-85659356D01*
X156643345Y-85567315D01*
X156767315Y-85443345D01*
X156859356Y-85294124D01*
X156859358Y-85294119D01*
X156914505Y-85127697D01*
X156914506Y-85127690D01*
X156924999Y-85024986D01*
X156925000Y-85024973D01*
X156925000Y-84750000D01*
X156175000Y-84750000D01*
X156175000Y-85724999D01*
X155625019Y-85724999D01*
X155674999Y-85724998D01*
X155675000Y-85724998D01*
X155675000Y-84250000D01*
X156175000Y-84250000D01*
X156924999Y-84250000D01*
X156924999Y-83975028D01*
X156924998Y-83975013D01*
X156914505Y-83872302D01*
X156859358Y-83705880D01*
X156859356Y-83705875D01*
X156767315Y-83556654D01*
X156643345Y-83432684D01*
X156494124Y-83340643D01*
X156494119Y-83340641D01*
X156327697Y-83285494D01*
X156327690Y-83285493D01*
X156224986Y-83275000D01*
X156175000Y-83275000D01*
X156175000Y-84250000D01*
X155675000Y-84250000D01*
X155675000Y-83275000D01*
X155674999Y-83274999D01*
X155625029Y-83275000D01*
X155625011Y-83275001D01*
X155522302Y-83285494D01*
X155355878Y-83340642D01*
X155349334Y-83343694D01*
X155348492Y-83341889D01*
X155329607Y-83347052D01*
X155301902Y-83357389D01*
X155296279Y-83356166D01*
X155290733Y-83357683D01*
X155262525Y-83348825D01*
X155233628Y-83342541D01*
X155227208Y-83337735D01*
X155224073Y-83336751D01*
X155205372Y-83321392D01*
X155193716Y-83309736D01*
X155193713Y-83309734D01*
X154997334Y-83113355D01*
X154997332Y-83113352D01*
X154878461Y-82994481D01*
X154878460Y-82994480D01*
X154791648Y-82944360D01*
X154791648Y-82944359D01*
X154791644Y-82944358D01*
X154741529Y-82915423D01*
X154588801Y-82874499D01*
X154430687Y-82874499D01*
X154423091Y-82874499D01*
X154423075Y-82874500D01*
X153619313Y-82874500D01*
X153461198Y-82874500D01*
X153308471Y-82915423D01*
X153308470Y-82915423D01*
X153308468Y-82915424D01*
X153308465Y-82915425D01*
X153258352Y-82944359D01*
X153258351Y-82944360D01*
X153214945Y-82969420D01*
X153171541Y-82994479D01*
X153171538Y-82994481D01*
X152962181Y-83203839D01*
X152900858Y-83237324D01*
X152831166Y-83232340D01*
X152775233Y-83190468D01*
X152750816Y-83125004D01*
X152750500Y-83116158D01*
X152750500Y-81668591D01*
X152745285Y-81649130D01*
X152713136Y-81529148D01*
X152709577Y-81515864D01*
X152630520Y-81378932D01*
X152542090Y-81290502D01*
X152508606Y-81229178D01*
X152513590Y-81159487D01*
X152555462Y-81103553D01*
X152565600Y-81096718D01*
X152675185Y-81030472D01*
X152795472Y-80910185D01*
X152883478Y-80764606D01*
X152934086Y-80602196D01*
X152940500Y-80531616D01*
X152940500Y-79868384D01*
X152934086Y-79797804D01*
X152883478Y-79635394D01*
X152795472Y-79489815D01*
X152795470Y-79489813D01*
X152795469Y-79489811D01*
X152675188Y-79369530D01*
X152671679Y-79367409D01*
X152529606Y-79281522D01*
X152367196Y-79230914D01*
X152367194Y-79230913D01*
X152367192Y-79230913D01*
X152317778Y-79226423D01*
X152296616Y-79224500D01*
X152296613Y-79224500D01*
X152068430Y-79224500D01*
X152001391Y-79204815D01*
X151980749Y-79188181D01*
X151455923Y-78663355D01*
X151455921Y-78663352D01*
X151337050Y-78544481D01*
X151337049Y-78544480D01*
X151226267Y-78480520D01*
X151226267Y-78480519D01*
X151226262Y-78480518D01*
X151216705Y-78475000D01*
X151200119Y-78465423D01*
X151161936Y-78455192D01*
X151047390Y-78424499D01*
X150889276Y-78424499D01*
X150881680Y-78424499D01*
X150881664Y-78424500D01*
X146761669Y-78424500D01*
X146761653Y-78424499D01*
X146754057Y-78424499D01*
X146595943Y-78424499D01*
X146481397Y-78455192D01*
X146443214Y-78465423D01*
X146422594Y-78477328D01*
X146417067Y-78480520D01*
X146380969Y-78501361D01*
X146306285Y-78544479D01*
X146306282Y-78544481D01*
X146194478Y-78656286D01*
X145662584Y-79188181D01*
X145601261Y-79221666D01*
X145574903Y-79224500D01*
X145233318Y-79224500D01*
X145134816Y-79234563D01*
X145134812Y-79234564D01*
X145063502Y-79258194D01*
X144993673Y-79260595D01*
X144933632Y-79224863D01*
X144902440Y-79162342D01*
X144900499Y-79140496D01*
X144900499Y-78602128D01*
X144894091Y-78542517D01*
X144885070Y-78518333D01*
X144880085Y-78448644D01*
X144885066Y-78431677D01*
X144894091Y-78407483D01*
X144900500Y-78347873D01*
X144900499Y-77652128D01*
X144894091Y-77592517D01*
X144894089Y-77592512D01*
X144884805Y-77567620D01*
X144879820Y-77497928D01*
X144884804Y-77480951D01*
X144893598Y-77457371D01*
X144899999Y-77397844D01*
X144900000Y-77397827D01*
X144900000Y-77300000D01*
X144742107Y-77300000D01*
X144675068Y-77280315D01*
X144667796Y-77275267D01*
X144642331Y-77256204D01*
X144642328Y-77256202D01*
X144507482Y-77205908D01*
X144507483Y-77205908D01*
X144447883Y-77199501D01*
X144447881Y-77199500D01*
X144447873Y-77199500D01*
X144447865Y-77199500D01*
X143974000Y-77199500D01*
X143906961Y-77179815D01*
X143861206Y-77127011D01*
X143850000Y-77075500D01*
X143850000Y-77050000D01*
X143724500Y-77050000D01*
X143657461Y-77030315D01*
X143611706Y-76977511D01*
X143600500Y-76926000D01*
X143600500Y-76800000D01*
X144100000Y-76800000D01*
X144900000Y-76800000D01*
X144900000Y-76702172D01*
X144899999Y-76702155D01*
X144893598Y-76642627D01*
X144893596Y-76642620D01*
X144843354Y-76507913D01*
X144843350Y-76507906D01*
X144757190Y-76392812D01*
X144757187Y-76392809D01*
X144642093Y-76306649D01*
X144642086Y-76306645D01*
X144507379Y-76256403D01*
X144507372Y-76256401D01*
X144447844Y-76250000D01*
X144100000Y-76250000D01*
X144100000Y-76800000D01*
X143600500Y-76800000D01*
X143600500Y-74900096D01*
X143620185Y-74833057D01*
X143636815Y-74812419D01*
X144139138Y-74310095D01*
X144200459Y-74276612D01*
X144239421Y-74274420D01*
X144249991Y-74275500D01*
X144850008Y-74275499D01*
X144850016Y-74275498D01*
X144850019Y-74275498D01*
X144906302Y-74269748D01*
X144952797Y-74264999D01*
X145119334Y-74209814D01*
X145268656Y-74117712D01*
X145392712Y-73993656D01*
X145394752Y-73990347D01*
X145396745Y-73988555D01*
X145397193Y-73987989D01*
X145397289Y-73988065D01*
X145446694Y-73943623D01*
X145515656Y-73932395D01*
X145579740Y-73960234D01*
X145605829Y-73990339D01*
X145607681Y-73993341D01*
X145607683Y-73993344D01*
X145731654Y-74117315D01*
X145880875Y-74209356D01*
X145880880Y-74209358D01*
X146047302Y-74264505D01*
X146047309Y-74264506D01*
X146150019Y-74274999D01*
X146199999Y-74274998D01*
X146200000Y-74274998D01*
X146200000Y-73174000D01*
X146219685Y-73106961D01*
X146272489Y-73061206D01*
X146324000Y-73050000D01*
X146576000Y-73050000D01*
X146643039Y-73069685D01*
X146688794Y-73122489D01*
X146700000Y-73174000D01*
X146700000Y-74274999D01*
X146749972Y-74274999D01*
X146749986Y-74274998D01*
X146852697Y-74264505D01*
X147019119Y-74209358D01*
X147019124Y-74209356D01*
X147168345Y-74117315D01*
X147292315Y-73993345D01*
X147384356Y-73844124D01*
X147384358Y-73844119D01*
X147439505Y-73677697D01*
X147439506Y-73677689D01*
X147449038Y-73584391D01*
X147475434Y-73519699D01*
X147532614Y-73479548D01*
X147602425Y-73476684D01*
X147660077Y-73509312D01*
X153265139Y-79114374D01*
X153265149Y-79114385D01*
X153269479Y-79118715D01*
X153269480Y-79118716D01*
X153381284Y-79230520D01*
X153433377Y-79260595D01*
X153468095Y-79280639D01*
X153468097Y-79280641D01*
X153497942Y-79297872D01*
X153518215Y-79309577D01*
X153670943Y-79350501D01*
X153670946Y-79350501D01*
X153836653Y-79350501D01*
X153836669Y-79350500D01*
X173795932Y-79350500D01*
X173862971Y-79370185D01*
X173906416Y-79418203D01*
X173966657Y-79536433D01*
X174105483Y-79727510D01*
X174272490Y-79894517D01*
X174463567Y-80033343D01*
X174545153Y-80074913D01*
X174674003Y-80140566D01*
X174674005Y-80140566D01*
X174674008Y-80140568D01*
X174793828Y-80179500D01*
X174898631Y-80213553D01*
X175131903Y-80250500D01*
X175131908Y-80250500D01*
X175368097Y-80250500D01*
X175601368Y-80213553D01*
X175668818Y-80191637D01*
X175825992Y-80140568D01*
X176036433Y-80033343D01*
X176227510Y-79894517D01*
X176394517Y-79727510D01*
X176533343Y-79536433D01*
X176593583Y-79418204D01*
X176641558Y-79367409D01*
X176704068Y-79350500D01*
X180295932Y-79350500D01*
X180362971Y-79370185D01*
X180406416Y-79418203D01*
X180466657Y-79536433D01*
X180605483Y-79727510D01*
X180772490Y-79894517D01*
X180963567Y-80033343D01*
X181045153Y-80074913D01*
X181174003Y-80140566D01*
X181174005Y-80140566D01*
X181174008Y-80140568D01*
X181293828Y-80179500D01*
X181398631Y-80213553D01*
X181631903Y-80250500D01*
X181631908Y-80250500D01*
X181868097Y-80250500D01*
X182101368Y-80213553D01*
X182168818Y-80191637D01*
X182325992Y-80140568D01*
X182536433Y-80033343D01*
X182727510Y-79894517D01*
X182894517Y-79727510D01*
X183033343Y-79536433D01*
X183140568Y-79325992D01*
X183213553Y-79101368D01*
X183231901Y-78985522D01*
X183250500Y-78868097D01*
X183250500Y-78631902D01*
X183213553Y-78398631D01*
X183140566Y-78174003D01*
X183033342Y-77963566D01*
X182894517Y-77772490D01*
X182727510Y-77605483D01*
X182536433Y-77466657D01*
X182518208Y-77457371D01*
X182325996Y-77359433D01*
X182101368Y-77286446D01*
X181868097Y-77249500D01*
X181868092Y-77249500D01*
X181631908Y-77249500D01*
X181631903Y-77249500D01*
X181398631Y-77286446D01*
X181174003Y-77359433D01*
X180963566Y-77466657D01*
X180883265Y-77525000D01*
X180772490Y-77605483D01*
X180772488Y-77605485D01*
X180772487Y-77605485D01*
X180605485Y-77772487D01*
X180605485Y-77772488D01*
X180605483Y-77772490D01*
X180545862Y-77854550D01*
X180466657Y-77963566D01*
X180406417Y-78081795D01*
X180358442Y-78132591D01*
X180295932Y-78149500D01*
X176704068Y-78149500D01*
X176637029Y-78129815D01*
X176593583Y-78081795D01*
X176533342Y-77963566D01*
X176394517Y-77772490D01*
X176227510Y-77605483D01*
X176036433Y-77466657D01*
X176018208Y-77457371D01*
X175825996Y-77359433D01*
X175601368Y-77286446D01*
X175368097Y-77249500D01*
X175368092Y-77249500D01*
X175131908Y-77249500D01*
X175131903Y-77249500D01*
X174898631Y-77286446D01*
X174674003Y-77359433D01*
X174463566Y-77466657D01*
X174383265Y-77525000D01*
X174272490Y-77605483D01*
X174272488Y-77605485D01*
X174272487Y-77605485D01*
X174105485Y-77772487D01*
X174105485Y-77772488D01*
X174105483Y-77772490D01*
X174045862Y-77854550D01*
X173966657Y-77963566D01*
X173906417Y-78081795D01*
X173858442Y-78132591D01*
X173795932Y-78149500D01*
X154050097Y-78149500D01*
X153983058Y-78129815D01*
X153962416Y-78113181D01*
X149981182Y-74131947D01*
X173750000Y-74131947D01*
X173750000Y-74368052D01*
X173786934Y-74601247D01*
X173859897Y-74825802D01*
X173967087Y-75036174D01*
X174027338Y-75119104D01*
X174027340Y-75119105D01*
X174726212Y-74420233D01*
X174737482Y-74462292D01*
X174809890Y-74587708D01*
X174912292Y-74690110D01*
X175037708Y-74762518D01*
X175079765Y-74773787D01*
X174380893Y-75472658D01*
X174463828Y-75532914D01*
X174674197Y-75640102D01*
X174898752Y-75713065D01*
X174898751Y-75713065D01*
X175131948Y-75750000D01*
X175368052Y-75750000D01*
X175601247Y-75713065D01*
X175825802Y-75640102D01*
X176036163Y-75532918D01*
X176036169Y-75532914D01*
X176119104Y-75472658D01*
X176119105Y-75472658D01*
X175420233Y-74773787D01*
X175462292Y-74762518D01*
X175587708Y-74690110D01*
X175690110Y-74587708D01*
X175762518Y-74462292D01*
X175773787Y-74420233D01*
X176472658Y-75119105D01*
X176472658Y-75119104D01*
X176532914Y-75036169D01*
X176532918Y-75036163D01*
X176640102Y-74825802D01*
X176713065Y-74601247D01*
X176750000Y-74368052D01*
X176750000Y-74131947D01*
X180250000Y-74131947D01*
X180250000Y-74368052D01*
X180286934Y-74601247D01*
X180359897Y-74825802D01*
X180467087Y-75036174D01*
X180527338Y-75119104D01*
X180527340Y-75119105D01*
X181226212Y-74420233D01*
X181237482Y-74462292D01*
X181309890Y-74587708D01*
X181412292Y-74690110D01*
X181537708Y-74762518D01*
X181579765Y-74773787D01*
X180880893Y-75472658D01*
X180963828Y-75532914D01*
X181174197Y-75640102D01*
X181398752Y-75713065D01*
X181398751Y-75713065D01*
X181631948Y-75750000D01*
X181868052Y-75750000D01*
X182101247Y-75713065D01*
X182325802Y-75640102D01*
X182536163Y-75532918D01*
X182536169Y-75532914D01*
X182619104Y-75472658D01*
X182619105Y-75472658D01*
X181920233Y-74773787D01*
X181962292Y-74762518D01*
X182087708Y-74690110D01*
X182190110Y-74587708D01*
X182262518Y-74462292D01*
X182273787Y-74420233D01*
X182972658Y-75119105D01*
X182972658Y-75119104D01*
X183032914Y-75036169D01*
X183032918Y-75036163D01*
X183140102Y-74825802D01*
X183213065Y-74601247D01*
X183250000Y-74368052D01*
X183250000Y-74131947D01*
X183213065Y-73898752D01*
X183140102Y-73674197D01*
X183032914Y-73463828D01*
X182972658Y-73380894D01*
X182972658Y-73380893D01*
X182273787Y-74079765D01*
X182262518Y-74037708D01*
X182190110Y-73912292D01*
X182087708Y-73809890D01*
X181962292Y-73737482D01*
X181920234Y-73726212D01*
X182619105Y-73027340D01*
X182619104Y-73027338D01*
X182536174Y-72967087D01*
X182325802Y-72859897D01*
X182101247Y-72786934D01*
X182101248Y-72786934D01*
X181868052Y-72750000D01*
X181631948Y-72750000D01*
X181398752Y-72786934D01*
X181174197Y-72859897D01*
X180963830Y-72967084D01*
X180880894Y-73027340D01*
X181579766Y-73726212D01*
X181537708Y-73737482D01*
X181412292Y-73809890D01*
X181309890Y-73912292D01*
X181237482Y-74037708D01*
X181226212Y-74079766D01*
X180527340Y-73380894D01*
X180467084Y-73463830D01*
X180359897Y-73674197D01*
X180286934Y-73898752D01*
X180250000Y-74131947D01*
X176750000Y-74131947D01*
X176713065Y-73898752D01*
X176640102Y-73674197D01*
X176532914Y-73463828D01*
X176472658Y-73380894D01*
X176472658Y-73380893D01*
X175773787Y-74079765D01*
X175762518Y-74037708D01*
X175690110Y-73912292D01*
X175587708Y-73809890D01*
X175462292Y-73737482D01*
X175420234Y-73726212D01*
X176119105Y-73027340D01*
X176119104Y-73027339D01*
X176036174Y-72967087D01*
X175825802Y-72859897D01*
X175601247Y-72786934D01*
X175601248Y-72786934D01*
X175368052Y-72750000D01*
X175131948Y-72750000D01*
X174898752Y-72786934D01*
X174674197Y-72859897D01*
X174463830Y-72967084D01*
X174380894Y-73027340D01*
X175079766Y-73726212D01*
X175037708Y-73737482D01*
X174912292Y-73809890D01*
X174809890Y-73912292D01*
X174737482Y-74037708D01*
X174726212Y-74079765D01*
X174027340Y-73380894D01*
X173967084Y-73463830D01*
X173859897Y-73674197D01*
X173786934Y-73898752D01*
X173750000Y-74131947D01*
X149981182Y-74131947D01*
X145720915Y-69871680D01*
X145687430Y-69810357D01*
X145692414Y-69740665D01*
X145734286Y-69684732D01*
X145799750Y-69660315D01*
X145808596Y-69659999D01*
X146234161Y-69659999D01*
X146301651Y-69653867D01*
X146301658Y-69653865D01*
X146456989Y-69605462D01*
X146456998Y-69605459D01*
X146596233Y-69521289D01*
X146596237Y-69521286D01*
X146711286Y-69406237D01*
X146711289Y-69406233D01*
X146795459Y-69266998D01*
X146795461Y-69266992D01*
X146843864Y-69111662D01*
X146843865Y-69111655D01*
X146849999Y-69044151D01*
X146849999Y-68779206D01*
X146869683Y-68712167D01*
X146922487Y-68666412D01*
X146991646Y-68656468D01*
X147055201Y-68685493D01*
X147061680Y-68691525D01*
X147928867Y-69558712D01*
X147962352Y-69620035D01*
X147965186Y-69646393D01*
X147965186Y-71271516D01*
X147965185Y-71271534D01*
X147965185Y-71437240D01*
X147965184Y-71437240D01*
X148006109Y-71589970D01*
X148006109Y-71589971D01*
X148013126Y-71602126D01*
X148013128Y-71602128D01*
X148085163Y-71726898D01*
X148085167Y-71726903D01*
X148204035Y-71845771D01*
X148204040Y-71845775D01*
X149838784Y-73480520D01*
X149838786Y-73480521D01*
X149838790Y-73480524D01*
X149975709Y-73559573D01*
X149975716Y-73559577D01*
X150128443Y-73600501D01*
X150187585Y-73600501D01*
X150230918Y-73608319D01*
X150300017Y-73634091D01*
X150359627Y-73640500D01*
X150880372Y-73640499D01*
X150939983Y-73634091D01*
X151074831Y-73583796D01*
X151190046Y-73497546D01*
X151218914Y-73458983D01*
X151262929Y-73400188D01*
X151318862Y-73358317D01*
X151362195Y-73350499D01*
X151758429Y-73350499D01*
X151825468Y-73370184D01*
X151857695Y-73400188D01*
X151930309Y-73497187D01*
X151930312Y-73497190D01*
X152045406Y-73583350D01*
X152045413Y-73583354D01*
X152180120Y-73633596D01*
X152180127Y-73633598D01*
X152239655Y-73639999D01*
X152239672Y-73640000D01*
X152360000Y-73640000D01*
X152360000Y-73264499D01*
X152362550Y-73255813D01*
X152361262Y-73246852D01*
X152372240Y-73222811D01*
X152379685Y-73197460D01*
X152386525Y-73191532D01*
X152390287Y-73183296D01*
X152412521Y-73169006D01*
X152432489Y-73151705D01*
X152443003Y-73149417D01*
X152449065Y-73145522D01*
X152484000Y-73140499D01*
X152516000Y-73140499D01*
X152583039Y-73160184D01*
X152628794Y-73212988D01*
X152640000Y-73264499D01*
X152640000Y-73640000D01*
X152760328Y-73640000D01*
X152760344Y-73639999D01*
X152819872Y-73633598D01*
X152819879Y-73633596D01*
X152954586Y-73583354D01*
X152954593Y-73583350D01*
X153069687Y-73497190D01*
X153069690Y-73497187D01*
X153155850Y-73382093D01*
X153155854Y-73382086D01*
X153206096Y-73247379D01*
X153206098Y-73247372D01*
X153212499Y-73187844D01*
X153212500Y-73187827D01*
X153212500Y-73156849D01*
X153153373Y-73125729D01*
X153149398Y-73121874D01*
X153144088Y-73120315D01*
X153124596Y-73097820D01*
X153103217Y-73077086D01*
X153101957Y-73071693D01*
X153098333Y-73067511D01*
X153094096Y-73038044D01*
X153087322Y-73009048D01*
X153089176Y-73003832D01*
X153088389Y-72998353D01*
X153107736Y-72951646D01*
X153110734Y-72943218D01*
X153111460Y-72942656D01*
X153111862Y-72941687D01*
X153135818Y-72909687D01*
X153191752Y-72867817D01*
X153207529Y-72864970D01*
X153212500Y-72860000D01*
X153212500Y-72812172D01*
X153212499Y-72812158D01*
X153207493Y-72765601D01*
X153207493Y-72739093D01*
X153213000Y-72687873D01*
X153212999Y-72312128D01*
X153207745Y-72263252D01*
X153207745Y-72236746D01*
X153213000Y-72187873D01*
X153212999Y-71812128D01*
X153212998Y-71812125D01*
X153212998Y-71812112D01*
X153207493Y-71760911D01*
X153207493Y-71734398D01*
X153212499Y-71687841D01*
X153212500Y-71687827D01*
X153212500Y-71640000D01*
X153203824Y-71631324D01*
X153197485Y-71628959D01*
X153168044Y-71620315D01*
X153163859Y-71616419D01*
X153160775Y-71615269D01*
X153135818Y-71590313D01*
X153111862Y-71558313D01*
X153087443Y-71492849D01*
X153102293Y-71424576D01*
X153151698Y-71375169D01*
X153211127Y-71360000D01*
X153212500Y-71360000D01*
X153212500Y-71312172D01*
X153212499Y-71312155D01*
X153206098Y-71252627D01*
X153206096Y-71252620D01*
X153155854Y-71117913D01*
X153155850Y-71117906D01*
X153069690Y-71002812D01*
X153069687Y-71002809D01*
X152954593Y-70916649D01*
X152954586Y-70916645D01*
X152819879Y-70866403D01*
X152819872Y-70866401D01*
X152760344Y-70860000D01*
X152640000Y-70860000D01*
X152640000Y-71235500D01*
X152637449Y-71244185D01*
X152638738Y-71253147D01*
X152627759Y-71277187D01*
X152620315Y-71302539D01*
X152613474Y-71308466D01*
X152609713Y-71316703D01*
X152587478Y-71330992D01*
X152567511Y-71348294D01*
X152556996Y-71350581D01*
X152550935Y-71354477D01*
X152516000Y-71359500D01*
X152484000Y-71359500D01*
X152416961Y-71339815D01*
X152371206Y-71287011D01*
X152360000Y-71235500D01*
X152360000Y-70860000D01*
X152239655Y-70860000D01*
X152180127Y-70866401D01*
X152180120Y-70866403D01*
X152045413Y-70916645D01*
X152045406Y-70916649D01*
X151930312Y-71002809D01*
X151930309Y-71002812D01*
X151857696Y-71099811D01*
X151801763Y-71141682D01*
X151758430Y-71149500D01*
X151362195Y-71149500D01*
X151357812Y-71148213D01*
X151353351Y-71149184D01*
X151324597Y-71138460D01*
X151295156Y-71129815D01*
X151290970Y-71125918D01*
X151287886Y-71124768D01*
X151262929Y-71099812D01*
X151245234Y-71076175D01*
X151220816Y-71010711D01*
X151220500Y-71001863D01*
X151220500Y-63538914D01*
X151220500Y-63538912D01*
X151179577Y-63386185D01*
X151150768Y-63336286D01*
X151100524Y-63249259D01*
X151100521Y-63249255D01*
X151100520Y-63249253D01*
X150988716Y-63137449D01*
X150988715Y-63137448D01*
X150984385Y-63133118D01*
X150984374Y-63133108D01*
X146629621Y-58778355D01*
X146629619Y-58778352D01*
X146510748Y-58659481D01*
X146510747Y-58659480D01*
X146423935Y-58609360D01*
X146423935Y-58609359D01*
X146423931Y-58609358D01*
X146373816Y-58580423D01*
X146221088Y-58539499D01*
X146062974Y-58539499D01*
X146055378Y-58539499D01*
X146055362Y-58539500D01*
X138905939Y-58539500D01*
X138865018Y-58550464D01*
X138865018Y-58550465D01*
X138827750Y-58560451D01*
X138753213Y-58580423D01*
X138753208Y-58580426D01*
X138616289Y-58659475D01*
X138616281Y-58659481D01*
X135660420Y-61615343D01*
X135599097Y-61648828D01*
X135529405Y-61643844D01*
X135473472Y-61601972D01*
X135453663Y-61562259D01*
X135426744Y-61469602D01*
X135343081Y-61328135D01*
X135343079Y-61328133D01*
X135343076Y-61328129D01*
X135226870Y-61211923D01*
X135226862Y-61211917D01*
X135148681Y-61165681D01*
X135085398Y-61128256D01*
X135085397Y-61128255D01*
X135085396Y-61128255D01*
X135085393Y-61128254D01*
X134927573Y-61082402D01*
X134927567Y-61082401D01*
X134890701Y-61079500D01*
X134890694Y-61079500D01*
X133109306Y-61079500D01*
X133109298Y-61079500D01*
X133072432Y-61082401D01*
X133072426Y-61082402D01*
X132914606Y-61128254D01*
X132914603Y-61128255D01*
X132773137Y-61211917D01*
X132773129Y-61211923D01*
X132656923Y-61328129D01*
X132656916Y-61328138D01*
X132573253Y-61469605D01*
X132572798Y-61470658D01*
X132571511Y-61472551D01*
X132569285Y-61476316D01*
X132569048Y-61476176D01*
X132568760Y-61476600D01*
X132567847Y-61480803D01*
X132546702Y-61509062D01*
X132544501Y-61511264D01*
X132544481Y-61511284D01*
X132244481Y-61811283D01*
X132244479Y-61811286D01*
X132194361Y-61898095D01*
X132194359Y-61898097D01*
X132165425Y-61948210D01*
X132165424Y-61948211D01*
X132165423Y-61948216D01*
X132124499Y-62100944D01*
X132124499Y-62259058D01*
X132124499Y-62259060D01*
X132124500Y-62269054D01*
X132124500Y-63473882D01*
X132124499Y-63473900D01*
X132124499Y-63639606D01*
X132124498Y-63639606D01*
X129600748Y-63639606D01*
X129600748Y-57624499D01*
X129620433Y-57557460D01*
X129673237Y-57511705D01*
X129724748Y-57500499D01*
X184375500Y-57500499D01*
X184442539Y-57520184D01*
G37*
%TD.AperFunction*%
%TD*%
M02*
