M48
; DRILL file KiCad 10.0.2 date 2026-07-30T19:12:57
; FORMAT={3:3/ absolute / metric / keep zeros}
; #@! TF.CreationDate,2026-07-30T19:12:57-06:00
; #@! TF.GenerationSoftware,Kicad,Pcbnew,10.0.2
; #@! TF.FileFunction,Plated,1,2,PTH
FMAT,2
METRIC
; #@! TA.AperFunction,Plated,PTH,ComponentDrill
T1C0.200
; #@! TA.AperFunction,Plated,PTH,ComponentDrill
T2C0.600
; #@! TA.AperFunction,Plated,PTH,ComponentDrill
T3C0.700
; #@! TA.AperFunction,Plated,PTH,ComponentDrill
T4C1.000
; #@! TA.AperFunction,Plated,PTH,ComponentDrill
T5C1.100
%
G90
G05
T1
X147700Y-084625
X147700Y-085825
X147700Y-087025
X149100Y-084625
X149100Y-085825
X149100Y-087025
T3
X160500Y-086350
X161000Y-087850
X162500Y-086350
X163500Y-087850
X164500Y-086350
X165500Y-087850
X166500Y-086350
X168000Y-087850
X168500Y-086350
T4
X145500Y-060690
X145500Y-063230
X145500Y-065770
X145500Y-068310
T5
X175250Y-074250
X175250Y-078750
X181750Y-074250
X181750Y-078750
T2
G00X133750Y-081180
M15
G01X133150Y-081180
M16
G05
G00X133750Y-089820
M15
G01X133150Y-089820
M16
G05
G00X138180Y-081180
M15
G01X137080Y-081180
M16
G05
G00X138180Y-089820
M15
G01X137080Y-089820
M16
G05
G00X158100Y-086550
M15
G01X158100Y-087650
M16
G05
G00X158100Y-095200
M15
G01X158100Y-096000
M16
G05
G00X170900Y-086550
M15
G01X170900Y-087650
M16
G05
G00X170900Y-095200
M15
G01X170900Y-096000
M16
G05
M30
